<svg width="440" height="354" viewBox="0 0 440 354" fill="none" xmlns="http://www.w3.org/2000/svg">
    <g clip-path="url(#clip0_2262_9271)">
        <path d="M306.39 344.56L298.245 344.559L294.371 313.131H306.391L306.39 344.56Z"
            fill="#FFB6B6" />
        <path
            d="M306.171 341.898L297.475 338.36L297.226 338.257L292.425 341.898C289.714 341.899 287.114 342.976 285.197 344.894C283.281 346.812 282.204 349.413 282.203 352.125V352.457H308.463V341.898H306.171Z"
            fill="#2F2E41" />
        <path d="M379.978 333.966L372.689 337.601L355.207 311.201L365.966 305.837L379.978 333.966Z"
            fill="#FFB6B6" />
        <path
            d="M380.652 330.656L378.787 331.582L378.596 331.678L369.249 332.4L368.968 332.419L366.293 337.817C365.091 338.416 364.02 339.246 363.139 340.259C362.258 341.273 361.586 342.45 361.16 343.723C360.735 344.997 360.564 346.342 360.658 347.682C360.752 349.021 361.109 350.329 361.709 351.531L361.856 351.825L385.357 340.11L380.652 330.656Z"
            fill="#2F2E41" />
        <path
            d="M300.865 175.631L345.775 177.204L346.087 176.749C346.087 176.749 349.918 185.691 349.918 193.356C349.918 195.905 348.147 212.573 349.047 215.727C349.159 216.119 348.389 217.08 348.641 218.906C348.805 220.091 349.71 219.18 349.918 220.823C350.067 222.002 348.475 222.653 348.641 224.016C348.823 225.506 351.014 230.333 351.212 231.99C353.311 249.637 356.107 275.201 356.107 275.201C356.107 275.201 367.335 305.288 369.71 305.777C373.697 306.597 376.389 313.85 374.179 315.358C373.127 316.076 359.53 320.908 359.53 320.908C358.783 321.043 356.446 319.87 357.935 317.097C358.209 316.586 356.574 317.886 356.303 317.274C356.014 316.624 356.581 314.038 356.25 313.316C353.279 306.837 348.716 297.859 344.393 293.248C338.005 286.437 333.959 277.761 332.846 268.487L322.93 213.474L319.531 228.901L316.718 231.681L317.49 238.164L317.357 244.456L310.334 270.645C310.334 270.645 309.281 319.554 310.972 321.107C311.889 321.948 315.776 332.309 308.418 333.243L295.05 332.211C295.05 332.211 293.249 328.414 294.15 327.062C295.05 325.711 294.996 326.08 293.898 323.868C292.799 321.656 293.249 317.908 293.249 317.908C291.498 300.295 290.807 282.593 291.18 264.897C291.85 235.831 295.911 202.441 295.911 201.761C295.945 201.065 295.817 200.371 295.537 199.734V197.899L297.262 191.399L300.865 175.631Z"
            fill="#07689F" />
        <path
            d="M364.064 181.125C373.86 181.125 381.801 173.181 381.801 163.38C381.801 153.58 373.86 145.636 364.064 145.636C354.269 145.636 346.328 153.58 346.328 163.38C346.328 173.181 354.269 181.125 364.064 181.125Z"
            fill="#0988D0" />
        <path
            d="M361.643 172.616C361.337 172.616 361.035 172.544 360.761 172.407C360.487 172.27 360.249 172.071 360.065 171.826L355.227 165.371C355.071 165.164 354.958 164.928 354.894 164.677C354.829 164.426 354.815 164.164 354.852 163.908C354.889 163.651 354.975 163.404 355.107 163.181C355.239 162.958 355.414 162.763 355.621 162.608C355.829 162.452 356.064 162.339 356.315 162.275C356.566 162.211 356.828 162.196 357.084 162.233C357.34 162.27 357.587 162.356 357.81 162.489C358.033 162.621 358.228 162.795 358.383 163.003L361.549 167.225L369.68 155.024C369.823 154.808 370.008 154.622 370.223 154.478C370.438 154.333 370.68 154.233 370.934 154.182C371.188 154.131 371.45 154.13 371.705 154.181C371.959 154.231 372.201 154.331 372.417 154.475C372.632 154.619 372.817 154.804 372.962 155.019C373.106 155.235 373.206 155.477 373.257 155.731C373.308 155.985 373.308 156.247 373.257 156.502C373.207 156.756 373.107 156.998 372.963 157.214L363.285 171.737C363.11 171.999 362.875 172.216 362.599 172.369C362.323 172.522 362.014 172.606 361.698 172.615C361.68 172.615 361.662 172.616 361.643 172.616Z"
            fill="white" />
        <path
            d="M372.834 182.14C373.007 181.414 373.019 180.659 372.868 179.929C372.718 179.198 372.41 178.509 371.965 177.911C371.519 177.312 370.949 176.819 370.292 176.465C369.636 176.111 368.91 175.906 368.166 175.863L359.078 144.884L352.93 152.022L362.711 181.028C362.722 182.283 363.193 183.492 364.035 184.423C364.877 185.355 366.031 185.945 367.279 186.082C368.526 186.219 369.781 185.894 370.805 185.167C371.829 184.44 372.551 183.363 372.834 182.14Z"
            fill="#FFB8B8" />
        <path
            d="M366.422 167.027L365.241 162.696L366.595 160.109L366.493 159.809L366.084 158.646L363.964 156.947L364.724 154.782L362.042 147.162L361.385 145.839L345.992 114.917L342.301 107.501L341.446 106.16L338.784 101.982L335.144 96.2784C334.566 95.3667 333.812 94.5792 332.926 93.9619C332.04 93.3445 331.041 92.9095 329.986 92.6822C329.645 92.6072 329.299 92.5538 328.951 92.5225L328.702 92.5033C328.081 92.469 327.458 92.5055 326.844 92.6119H326.832C325.751 92.7995 324.721 93.2083 323.805 93.8128C323.085 94.2794 322.443 94.8572 321.903 95.5246C320.66 97.0672 320.014 99.0059 320.083 100.986L320.198 104.103L320.313 106.939L325.714 116.712L326.065 117.351L326.072 117.37L342.691 147.455L347.703 156.526L348.463 157.905L351.834 160.141L350.933 162.389L351.195 165.89L354.062 168.055L358.218 172.277L358.384 172.622L359.661 171.977L359.782 171.913L360.07 171.83L364.022 170.636L366.422 169.914L366.499 169.888L367.157 169.722L366.422 167.027Z"
            fill="#E6E6E6" />
        <path
            d="M434.743 307.655C433.539 306.123 431.904 304.988 430.049 304.395C428.194 303.801 426.204 303.778 424.336 304.327L423.927 304.448L420.263 318.763C419.714 316.629 418.539 311.813 417.798 307.099L417.734 306.709L417.37 306.869C413.539 308.563 409.937 310.735 406.651 313.333C400.828 318.006 396.092 323.892 392.772 330.581C389.452 337.27 387.628 344.602 387.427 352.067L387.42 352.342L387.414 352.514L387.899 352.342L398.312 348.618C402.923 349.025 407.566 348.396 411.902 346.778C416.239 345.16 420.16 342.594 423.378 339.267C427.586 334.827 430.472 329.117 433.262 323.592C434.079 321.982 434.915 320.321 435.771 318.724C436.725 316.988 437.137 315.005 436.954 313.032C436.771 311.059 436.001 309.186 434.743 307.655Z"
            fill="#F2F2F2" />
        <path d="M167.523 70.0329H166.246V20.8214H258.603V22.0989H167.523V70.0329Z" fill="#3F3D56" />
        <path
            d="M272.764 35.4892C282.559 35.4892 290.5 27.5446 290.5 17.7446C290.5 7.94452 282.559 0 272.764 0C262.968 0 255.027 7.94452 255.027 17.7446C255.027 27.5446 262.968 35.4892 272.764 35.4892Z"
            fill="#0988D0" />
        <path
            d="M270.343 26.9798C270.036 26.9798 269.734 26.9085 269.46 26.7714C269.186 26.6343 268.948 26.4353 268.765 26.1901L263.926 19.7354C263.77 19.528 263.657 19.292 263.593 19.0409C263.529 18.7899 263.514 18.5285 263.551 18.2719C263.588 18.0154 263.675 17.7685 263.807 17.5455C263.939 17.3224 264.113 17.1276 264.32 16.9721C264.528 16.8166 264.764 16.7034 265.015 16.6391C265.266 16.5748 265.527 16.5605 265.783 16.5972C266.04 16.6339 266.286 16.7207 266.509 16.8528C266.732 16.9849 266.927 17.1596 267.082 17.3669L270.248 21.5895L278.379 9.38802C278.522 9.17209 278.707 8.98659 278.922 8.84212C279.138 8.69765 279.379 8.59706 279.634 8.54608C279.888 8.4951 280.149 8.49473 280.404 8.54501C280.658 8.59528 280.9 8.69521 281.116 8.83908C281.331 8.98295 281.517 9.16794 281.661 9.38348C281.805 9.59901 281.905 9.84086 281.956 10.0952C282.007 10.3496 282.007 10.6114 281.957 10.8658C281.906 11.1202 281.806 11.3622 281.662 11.5778L271.984 26.1008C271.809 26.3635 271.574 26.5803 271.298 26.7331C271.022 26.886 270.713 26.9703 270.398 26.9792C270.379 26.9795 270.361 26.9798 270.343 26.9798Z"
            fill="white" />
        <path d="M104.953 189.509H103.676V238.72H196.033V237.443H104.953V189.509Z" fill="#3F3D56" />
        <path
            d="M210.197 256.498C219.993 256.498 227.934 248.553 227.934 238.753C227.934 228.953 219.993 221.009 210.197 221.009C200.402 221.009 192.461 228.953 192.461 238.753C192.461 248.553 200.402 256.498 210.197 256.498Z"
            fill="#0988D0" />
        <path
            d="M207.776 247.989C207.47 247.989 207.168 247.917 206.894 247.78C206.62 247.643 206.382 247.444 206.198 247.199L201.359 240.744C201.204 240.537 201.091 240.301 201.027 240.05C200.962 239.799 200.948 239.537 200.985 239.281C201.021 239.024 201.108 238.777 201.24 238.554C201.372 238.331 201.547 238.136 201.754 237.981C201.961 237.825 202.197 237.712 202.448 237.648C202.699 237.584 202.96 237.569 203.217 237.606C203.473 237.643 203.72 237.73 203.943 237.862C204.166 237.994 204.361 238.168 204.516 238.376L207.682 242.598L215.812 230.397C215.956 230.181 216.141 229.995 216.356 229.851C216.571 229.706 216.813 229.606 217.067 229.555C217.321 229.504 217.583 229.504 217.837 229.554C218.092 229.604 218.334 229.704 218.549 229.848C218.765 229.992 218.95 230.177 219.094 230.392C219.239 230.608 219.339 230.85 219.39 231.104C219.44 231.358 219.441 231.62 219.39 231.875C219.34 232.129 219.24 232.371 219.096 232.587L209.418 247.11C209.243 247.372 209.008 247.589 208.731 247.742C208.455 247.895 208.147 247.979 207.831 247.988C207.813 247.988 207.795 247.989 207.776 247.989Z"
            fill="white" />
        <path
            d="M350.555 191.319C350.574 192.664 350.358 194.002 349.917 195.272L349.821 195.253C338.481 197.215 328.366 197.536 323.687 190.573C317.582 182.795 309.184 182.883 299.817 186.298L298.706 185.097L296.816 183.059L298.553 181.092L296.816 177.298L298.266 172.616L300.117 172.277L299.619 168.247L298.84 165.89L301.126 163.379L303.067 157.113L301.669 144C299.755 126.025 303.463 107.898 312.28 92.12L317.585 87.3549L319.788 85.3748L322.744 79.856L325.866 80.2201L334.319 81.1973L334.607 81.8872L336.682 86.895L347.612 98.6417L347.12 103.598L346.903 105.783L346.744 107.354L345.99 114.917L342.919 145.814L342.689 147.455L340.219 165.219C344.235 169.103 347.784 176.582 349.489 183.417C349.681 184.177 349.138 184.95 349.278 185.691C349.476 186.739 350.338 187.735 350.434 188.712C350.523 189.578 350.564 190.448 350.555 191.319Z"
            fill="#E6E6E6" />
        <path
            d="M328.909 77.8777C337.017 77.8777 343.591 71.3013 343.591 63.1888C343.591 55.0763 337.017 48.4999 328.909 48.4999C320.8 48.4999 314.227 55.0763 314.227 63.1888C314.227 71.3013 320.8 77.8777 328.909 77.8777Z"
            fill="#FFB6B6" />
        <path
            d="M346.609 59.1817C345.74 56.4714 343.356 54.1782 340.527 53.8785C340.741 52.0784 340.458 50.2539 339.708 48.6038C338.957 46.9536 337.769 45.541 336.272 44.5198C334.775 43.4986 333.026 42.9079 331.217 42.812C329.407 42.7161 327.606 43.1187 326.01 43.976C325.671 43.5682 325.232 43.2549 324.736 43.0664C324.241 42.878 323.705 42.8208 323.181 42.9003C322.132 43.0731 321.144 43.5062 320.307 44.16C318.227 45.6821 316.598 47.7399 315.594 50.1146C314.591 52.4892 314.249 55.0917 314.606 57.645C314.6 56.3498 315.173 58.8557 316.818 59.0771C318.189 59.3529 319.493 59.8913 320.66 60.6625C321.826 61.4336 323.126 61.979 324.494 62.2703C325.874 62.4722 326.229 68.0063 325.244 71.5706C325.057 72.2461 324.962 73.1524 325.584 73.4743C326.351 73.8707 327.125 72.874 327.982 72.7768C328.367 72.7708 328.739 72.9144 329.02 73.1773C329.301 73.4403 329.469 73.8021 329.488 74.1865C329.489 74.5721 329.398 74.9523 329.222 75.2956C329.046 75.6388 328.791 75.935 328.478 76.1597C327.848 76.6025 327.15 76.9406 326.412 77.1609L326.66 77.5125C326.876 77.9144 327.226 78.2284 327.648 78.4008C328.071 78.5731 328.54 78.593 328.976 78.4571C329.958 79.6419 340.075 76.352 340.569 74.1895C342.688 72.2795 344.447 70.0052 345.765 67.4743C347.081 64.9154 347.382 61.9535 346.609 59.1817Z"
            fill="#2F2E41" />
        <path
            d="M358.478 103.918C358.274 105.63 356.672 106.907 354.986 107.265C354.129 107.43 353.25 107.445 352.388 107.31C351.545 107.185 350.713 106.999 349.898 106.754C348.889 106.467 347.891 106.143 346.903 105.783C344.082 104.775 341.363 103.503 338.782 101.983C336.83 100.842 334.961 99.5661 333.189 98.1628C332.27 97.4346 331.378 96.6744 330.514 95.8824L331.593 96.3934C330.629 95.0967 329.665 93.8001 328.701 92.5034C327.769 91.2514 326.839 89.9995 325.911 88.7475C325.853 88.6709 325.809 88.6198 325.789 88.5942V88.5878C325.362 88.0193 324.94 87.4508 324.519 86.8824C323.248 85.1769 321.997 82.673 323.459 81.1336C323.771 80.8338 324.149 80.6121 324.563 80.4867C324.977 80.3612 325.415 80.3356 325.841 80.4118C326.299 80.4713 326.742 80.6142 327.149 80.8334C328.266 81.5569 329.214 82.5135 329.927 83.6375C330.923 82.1875 332.857 81.651 334.607 81.8873C334.702 81.8937 334.792 81.9065 334.881 81.9192C336.701 82.2322 337.486 81.2485 339.063 82.2131C339.797 82.6602 340.244 84.9597 340.978 85.4068C341.393 85.6623 342.932 86.0456 343.353 86.3075C344.183 86.8185 343.973 88.7284 344.809 89.2394C345.428 89.6162 347.088 88.6006 347.708 88.9775C348.359 89.3799 349.265 92.0371 349.917 92.4331C351.213 93.2316 352.253 91.7752 353.55 92.5673C355.216 93.5957 356.991 94.739 357.693 96.5659C358.312 98.1755 357.514 100.379 355.976 100.839C356.711 100.927 357.383 101.297 357.85 101.872C358.317 102.446 358.542 103.18 358.478 103.918Z"
            fill="#E6E6E6" />
        <path opacity="0.2"
            d="M346.906 105.783L346.747 107.354C344.937 107.18 343.157 106.779 341.448 106.16C339.197 105.404 337.245 103.952 335.874 102.014C335.006 100.711 334.099 99.4145 333.192 98.1625C331.686 96.0674 330.192 94.1128 328.953 92.5223C327.44 90.5997 326.303 89.2072 325.914 88.7473C325.856 88.6707 325.812 88.6195 325.793 88.594L325.773 88.5748L325.793 88.5876C333.379 98.1935 340.544 103.733 347.123 103.598C347.123 103.598 347.896 106.141 346.906 105.783Z"
            fill="black" />
        <path
            d="M277.483 28.8591C277.296 29.5812 277.27 30.3356 277.406 31.069C277.542 31.8024 277.837 32.497 278.271 33.104C278.704 33.711 279.265 34.2155 279.915 34.582C280.564 34.9485 281.286 35.1681 282.029 35.2253L290.516 66.3738L296.801 59.3561L287.583 30.167C287.596 28.9112 287.148 27.6941 286.325 26.7464C285.501 25.7987 284.359 25.1862 283.114 25.025C281.869 24.8638 280.608 25.165 279.57 25.8717C278.532 26.5783 277.79 27.6413 277.483 28.8591Z"
            fill="#FFB8B8" />
        <path
            d="M327.309 108.51L327.251 105.674L321.901 95.5245L321.703 95.1541L321.69 95.1349L317.585 87.3549L297.775 49.7795L295.648 48.9977L295.754 45.9455L295.648 42.6102L293.092 40.8958L292.002 38.8287L290.457 39.2695H290.451L290.406 39.2822L283.651 41.1793H283.645L282.24 41.9714L280.963 45.8039L280.684 47.6183L280.963 50.914L284.155 51.5527L283.098 54.932L286.307 64.6536C290.323 81.6444 295.807 96.3102 305.276 104.684L306.054 105.962L312.216 116.048C313.056 117.427 314.286 118.527 315.751 119.208C317.216 119.889 318.849 120.121 320.445 119.874H320.452C321.535 119.705 322.574 119.319 323.504 118.737C324.361 118.208 325.111 117.52 325.713 116.712C326.813 115.25 327.395 113.463 327.366 111.634L327.309 108.51Z"
            fill="#E6E6E6" />
        <path
            d="M439.241 353.804L265.741 354C265.539 354 265.346 353.92 265.203 353.777C265.061 353.635 264.98 353.441 264.98 353.239C264.98 353.038 265.061 352.844 265.203 352.702C265.346 352.559 265.539 352.479 265.741 352.479L439.241 352.283C439.443 352.283 439.636 352.363 439.779 352.505C439.921 352.648 440.001 352.841 440.001 353.043C440.001 353.245 439.921 353.438 439.779 353.581C439.636 353.724 439.443 353.804 439.241 353.804Z"
            fill="#CACACA" />
        <path
            d="M53.3935 98.1818C53.3828 88.5801 57.0495 79.3392 63.6396 72.3591L41.0234 41.2164C40.0924 39.9333 38.896 38.8661 37.5157 38.0873C36.1353 37.3085 34.6034 36.8365 33.0243 36.7033C31.4452 36.5701 29.8559 36.779 28.3647 37.3156C26.8736 37.8523 25.5155 38.7041 24.383 39.8132C16.6356 47.3689 10.485 56.4053 6.29645 66.3857C2.10788 76.366 -0.0331953 87.0867 0.000389053 97.9111C0.000452135 101.999 0.305049 106.081 0.911633 110.123C1.1496 111.721 1.73315 113.248 2.6216 114.597C3.51005 115.947 4.68202 117.086 6.05576 117.935C7.41399 118.777 8.93927 119.311 10.5252 119.502C12.1111 119.692 13.7195 119.534 15.2382 119.039L54.2898 106.345C53.6954 103.664 53.3949 100.927 53.3935 98.1818Z"
            fill="#F2F2F2" />
        <path
            d="M55.4703 110.522L14.871 123.719C13.3685 124.205 11.9879 125.009 10.8228 126.075C9.65774 127.142 8.73541 128.446 8.11831 129.9C7.50122 131.354 7.20378 132.924 7.24616 134.504C7.28853 136.083 7.66972 137.635 8.36391 139.054C14.1456 150.789 22.6685 160.958 33.211 168.699C43.7535 176.44 56.0051 181.526 68.9287 183.526C70.5027 183.768 72.1103 183.666 73.6414 183.228C75.1725 182.79 76.5907 182.026 77.7989 180.988C79.0054 179.953 79.9738 178.669 80.6374 177.224C81.3011 175.779 81.6443 174.208 81.6436 172.618V134.681C75.6306 133.12 70.0957 130.098 65.5299 125.884C60.9642 121.669 57.5088 116.393 55.4703 110.522Z"
            fill="#E6E6E6" />
        <path
            d="M177.563 134.225C176.877 132.597 175.849 131.135 174.549 129.94C173.248 128.744 171.705 127.843 170.026 127.297L125.747 112.904C123.162 118.985 119.025 124.281 113.751 128.259C108.477 132.238 102.251 134.761 95.6953 135.574V181.73C95.6962 183.502 96.0799 185.252 96.8201 186.862C97.5603 188.471 98.6396 189.902 99.9839 191.055C101.328 192.208 102.906 193.057 104.609 193.544C106.311 194.03 108.099 194.143 109.85 193.873C124.236 191.647 137.874 185.985 149.61 177.368C161.346 168.75 170.833 157.431 177.27 144.367C178.043 142.797 178.47 141.078 178.521 139.328C178.571 137.578 178.245 135.838 177.563 134.225Z"
            fill="#07689F" />
        <path
            d="M166.562 28.3565C165.301 27.1219 163.79 26.1735 162.13 25.5761C160.47 24.9786 158.7 24.7461 156.943 24.8943C155.185 25.0426 153.479 25.5681 151.943 26.4351C150.406 27.302 149.074 28.4901 148.038 29.9185L117.766 71.6043C121.248 75.097 124.009 79.2418 125.891 83.8019C127.772 88.3621 128.737 93.2484 128.731 98.1818C128.731 99.0997 128.687 100.006 128.622 100.908L176.742 116.55C178.444 117.1 180.244 117.272 182.019 117.054C183.793 116.836 185.499 116.233 187.017 115.289C188.535 114.344 189.829 113.079 190.809 111.583C191.789 110.087 192.431 108.395 192.69 106.625C193.365 102.125 193.705 97.5805 193.705 93.03C193.742 80.9806 191.358 69.0465 186.696 57.9365C182.033 46.8266 175.186 36.7675 166.562 28.3565Z"
            fill="#0988D0" />
        <path
            d="M91.0623 60.4953C97.5432 60.4879 103.915 62.1619 109.556 65.3539L128.033 39.9107C128.975 38.615 129.625 37.1302 129.937 35.5588C130.25 33.9874 130.218 32.3669 129.844 30.8091C129.481 29.281 128.792 27.8498 127.823 26.6142C126.854 25.3786 125.628 24.3681 124.231 23.6525C112.823 17.8482 100.21 14.8138 87.4115 14.7951C74.6134 14.7765 61.9909 17.7741 50.5665 23.5452C49.1257 24.2724 47.8603 25.3044 46.8578 26.5696C45.8552 27.8347 45.1396 29.3028 44.7605 30.8721C44.3866 32.419 44.3534 34.0288 44.6631 35.5898C44.9729 37.1509 45.6182 38.6259 46.5543 39.9126L67.5149 68.776C74.1886 63.4066 82.4983 60.4844 91.0623 60.4953Z"
            fill="#E6E6E6" />
    </g>
    <defs>
        <clipPath id="clip0_2262_9271">
            <rect width="440" height="354" fill="white" />
        </clipPath>
    </defs>
</svg>