<svg width="468" height="335" viewBox="0 0 468 335" fill="none" xmlns="http://www.w3.org/2000/svg">
    <g clip-path="url(#clip0_2262_9382)">
        <path
            d="M467.353 335H272.877C272.705 335 272.541 334.932 272.42 334.811C272.299 334.69 272.23 334.526 272.23 334.355C272.23 334.183 272.299 334.019 272.42 333.898C272.541 333.777 272.705 333.709 272.877 333.709H467.353C467.524 333.709 467.688 333.777 467.809 333.898C467.931 334.019 467.999 334.183 467.999 334.355C467.999 334.526 467.931 334.69 467.809 334.811C467.688 334.932 467.524 335 467.353 335Z"
            fill="#3F3D56" />
        <path d="M345.935 327.608H338.015L334.246 297.085L345.937 297.086L345.935 327.608Z"
            fill="#FFB8B8" />
        <path
            d="M332.357 325.347H347.633V334.956H322.738C322.738 333.694 322.987 332.445 323.47 331.279C323.954 330.113 324.662 329.054 325.555 328.161C326.449 327.269 327.509 326.561 328.676 326.078C329.843 325.595 331.094 325.347 332.357 325.347Z"
            fill="#2F2E41" />
        <path d="M403.409 318.644L396.204 321.932L380.082 295.733L390.716 290.881L403.409 318.644Z"
            fill="#FFB8B8" />
        <path
            d="M390.116 322.224L404.012 315.883L408.008 324.624L385.363 334.956C384.839 333.809 384.545 332.569 384.5 331.308C384.455 330.047 384.659 328.789 385.1 327.607C385.542 326.424 386.212 325.34 387.072 324.417C387.933 323.493 388.967 322.748 390.116 322.224Z"
            fill="#2F2E41" />
        <path
            d="M380.342 224.692C381.1 224.121 381.725 223.392 382.171 222.554C382.617 221.716 382.874 220.791 382.923 219.843C382.972 218.896 382.813 217.949 382.457 217.069C382.1 216.19 381.555 215.399 380.859 214.753L390.17 193.646L378.341 195.649L371.313 215.385C370.303 216.624 369.784 218.19 369.854 219.787C369.923 221.383 370.576 222.898 371.689 224.045C372.802 225.192 374.298 225.892 375.892 226.011C377.487 226.13 379.07 225.661 380.342 224.692Z"
            fill="#FFB8B8" />
        <path
            d="M345.431 319.56H337.864C337.13 319.557 336.424 319.279 335.887 318.779C335.349 318.28 335.02 317.597 334.964 316.866L326.961 206.775C326.93 206.353 326.992 205.93 327.142 205.534C327.292 205.139 327.527 204.781 327.83 204.485C328.133 204.19 328.497 203.964 328.897 203.824C329.296 203.684 329.722 203.633 330.143 203.674L377.783 208.317C378.492 208.386 379.152 208.713 379.635 209.236C380.119 209.759 380.394 210.441 380.408 211.153L381.325 259.715C381.33 259.979 381.381 260.239 381.476 260.485L399.428 306.993C399.567 307.353 399.632 307.736 399.621 308.121C399.611 308.506 399.523 308.885 399.364 309.236C399.205 309.586 398.978 309.902 398.696 310.165C398.414 310.427 398.082 310.63 397.72 310.763L390.052 313.586C389.386 313.831 388.653 313.824 387.992 313.567C387.331 313.31 386.786 312.82 386.461 312.189L364.408 269.35C364.288 269.117 364.2 268.869 364.147 268.612L360.38 250.479C360.271 249.953 359.978 249.483 359.553 249.154C359.129 248.824 358.601 248.657 358.064 248.681C357.527 248.705 357.016 248.92 356.623 249.286C356.23 249.653 355.98 250.147 355.919 250.68L348.32 316.986C348.239 317.694 347.899 318.348 347.367 318.823C346.834 319.298 346.145 319.56 345.431 319.56Z"
            fill="#2F2E41" />
        <path
            d="M349.197 120.695C357.961 120.695 365.066 113.597 365.066 104.841C365.066 96.0858 357.961 88.9879 349.197 88.9879C340.433 88.9879 333.328 96.0858 333.328 104.841C333.328 113.597 340.433 120.695 349.197 120.695Z"
            fill="#FFB8B8" />
        <path
            d="M329.98 207.411C332.012 208.811 354.898 223.878 380.985 211.894C380.647 208.984 377.392 179.763 380.235 158.221C381.584 148.001 377.51 138.533 369.058 132.244C364.468 128.845 359.054 126.73 353.373 126.117C347.693 125.504 341.951 126.415 336.74 128.757C336.312 128.949 335.881 129.148 335.446 129.356L329.98 207.411Z"
            fill="#0988D0" />
        <path
            d="M381.232 211.654C380.829 211.654 380.431 211.57 380.062 211.408C379.694 211.246 379.363 211.008 379.092 210.711L375.62 206.928C375.283 206.558 375.046 206.107 374.933 205.62C374.82 205.132 374.835 204.623 374.975 204.143L382.926 177.26L370.829 151.883C370.299 150.767 370.169 149.503 370.461 148.303C370.719 147.25 371.29 146.299 372.1 145.577C372.91 144.855 373.919 144.394 374.996 144.257C376.073 144.119 377.166 144.311 378.131 144.807C379.096 145.303 379.889 146.079 380.403 147.034L396.755 173.542C397.392 174.572 397.765 175.742 397.843 176.95C397.92 178.157 397.7 179.365 397.201 180.468L383.885 209.944C383.688 210.382 383.384 210.765 383.002 211.057C382.619 211.349 382.17 211.541 381.695 211.617C381.542 211.641 381.387 211.654 381.232 211.654Z"
            fill="#0988D0" />
        <path opacity="0.2"
            d="M341.723 208.216H335.383L346.449 156.189L347.088 156.272L344.626 205.457C344.589 206.201 344.267 206.903 343.727 207.417C343.186 207.93 342.469 208.217 341.723 208.216Z"
            fill="black" />
        <path
            d="M335.857 221.151C336.481 220.435 336.94 219.592 337.202 218.68C337.464 217.768 337.523 216.809 337.375 215.872C337.226 214.935 336.873 214.042 336.342 213.255C335.81 212.469 335.112 211.809 334.298 211.321L339.02 188.743L327.864 193.155L325.091 213.92C324.361 215.341 324.179 216.981 324.578 218.528C324.978 220.075 325.932 221.421 327.259 222.313C328.586 223.204 330.194 223.578 331.779 223.364C333.364 223.15 334.815 222.362 335.857 221.151Z"
            fill="#FFB8B8" />
        <path
            d="M335.218 208.281C335.109 208.281 334.999 208.275 334.89 208.263L328.129 207.512C327.398 207.429 326.726 207.072 326.247 206.515C325.768 205.957 325.517 205.24 325.545 204.505L328.343 136.871C328.43 134.75 329.289 132.733 330.757 131.198C332.226 129.664 334.204 128.716 336.321 128.533C338.438 128.35 340.55 128.943 342.261 130.203C343.972 131.463 345.164 133.302 345.616 135.377L347.418 143.658L347.409 143.717L338.086 205.806C337.985 206.494 337.64 207.123 337.113 207.577C336.587 208.031 335.914 208.281 335.218 208.281Z"
            fill="#0988D0" />
        <path
            d="M362.271 118.818C360.625 119.1 359.271 116.812 359.066 115.202C358.862 113.592 359.449 112.052 359.513 110.453C359.577 108.853 358.822 106.91 357.16 106.436C355.417 105.939 353.801 107.336 352.017 107.168C349.531 106.934 348.283 104.027 347.982 101.676C347.68 99.3243 347.444 96.5398 345.291 95.1989C343.144 93.8622 340.489 94.8348 338.023 94.8764C333.854 94.9467 329.611 91.771 328.637 87.8521C329.142 87.9978 329.682 87.9707 330.171 87.7752C330.659 87.5798 331.069 87.2271 331.334 86.773C331.543 86.2886 331.585 85.7488 331.455 85.2376C331.325 84.7265 331.029 84.2727 330.614 83.947L335.339 86.2585C334.693 84.9455 335.668 83.4499 337.011 82.9527C338.353 82.4555 339.915 82.6788 341.396 82.9087C348.794 84.057 357.363 83.491 362.271 89.1264C365.67 93.0297 368.468 100.457 368.086 105.263C367.704 110.069 362.271 118.818 362.271 118.818Z"
            fill="#2F2E41" />
        <path
            d="M182.2 297.563H12.2757C11.0766 297.561 9.927 297.085 9.07912 296.238C8.23125 295.391 7.75431 294.242 7.75296 293.044L8.76408e-06 4.53564C-0.00116156 3.94116 0.11489 3.35228 0.341534 2.80261C0.568178 2.25294 0.900975 1.75324 1.32093 1.33206C1.74088 0.910888 2.23976 0.576477 2.78908 0.34792C3.33841 0.119364 3.9274 0.00113897 4.52246 0H174.447C175.646 0.00134283 176.795 0.477809 177.643 1.32486C178.491 2.17192 178.968 3.32039 178.969 4.5183L180.374 56.7842L179.083 56.8189L177.677 4.53564C177.679 4.11063 177.596 3.68953 177.434 3.29641C177.273 2.90329 177.035 2.54585 176.735 2.24453C176.435 1.9432 176.079 1.70388 175.686 1.54026C175.293 1.37664 174.872 1.29193 174.447 1.29094H4.52246C3.66598 1.29194 2.84488 1.63228 2.23926 2.23732C1.63363 2.84235 1.29296 3.66266 1.29196 4.5183L9.04493 293.027C9.04368 293.452 9.12627 293.873 9.28797 294.266C9.44968 294.659 9.68733 295.017 9.98736 295.318C10.2874 295.619 10.6439 295.859 11.0365 296.022C11.4292 296.186 11.8502 296.271 12.2757 296.272H182.2C183.056 296.271 183.878 295.93 184.483 295.325C185.089 294.72 185.429 293.9 185.43 293.044L183.922 236.906L185.213 236.871L186.722 293.027C186.724 293.621 186.608 294.21 186.381 294.76C186.154 295.31 185.821 295.809 185.402 296.231C184.982 296.652 184.483 296.986 183.933 297.215C183.384 297.443 182.795 297.561 182.2 297.563Z"
            fill="#CCCCCC" />
        <path d="M182.456 134.241L181.164 134.276L181.83 159.052L183.122 159.018L182.456 134.241Z"
            fill="#CCCCCC" />
        <path
            d="M166.953 272.137H26.1936C25.1709 272.136 24.1905 271.73 23.4673 271.007C22.7442 270.285 22.3374 269.305 22.3363 268.283L15.9141 29.2965C15.9128 28.7893 16.0116 28.2868 16.2047 27.8177C16.3979 27.3487 16.6817 26.9222 17.0399 26.5627C17.3981 26.2033 17.8236 25.9178 18.2922 25.7227C18.7609 25.5276 19.2634 25.4266 19.7711 25.4255H160.53C161.553 25.4267 162.533 25.8331 163.256 26.5555C163.979 27.278 164.386 28.2575 164.387 29.2791L165.551 56.7744L164.26 56.8287L163.096 29.3063C163.098 28.9678 163.033 28.6321 162.906 28.3186C162.778 28.0051 162.589 27.7199 162.351 27.4793C162.113 27.2387 161.829 27.0475 161.517 26.9166C161.204 26.7857 160.869 26.7177 160.53 26.7165H19.7711C19.091 26.7173 18.4391 26.9876 17.9582 27.468C17.4773 27.9484 17.2068 28.5997 17.206 29.2792L23.6282 268.266C23.6269 268.604 23.6922 268.939 23.8204 269.251C23.9487 269.564 24.1373 269.848 24.3756 270.087C24.6138 270.327 24.897 270.517 25.209 270.648C25.521 270.778 25.8555 270.845 26.1936 270.846H166.953C167.633 270.845 168.285 270.575 168.766 270.095C169.246 269.614 169.517 268.963 169.518 268.283L168.686 236.905L169.978 236.871L170.81 268.266C170.811 268.774 170.712 269.276 170.519 269.745C170.326 270.214 170.042 270.641 169.684 271C169.326 271.359 168.9 271.645 168.431 271.84C167.963 272.035 167.46 272.136 166.953 272.137Z"
            fill="#CCCCCC" />
        <path d="M167.276 134.887L165.984 134.921L166.634 159.449L167.926 159.415L167.276 134.887Z"
            fill="#CCCCCC" />
        <path
            d="M204.406 134.904H39.6501C38.4574 134.902 37.3135 134.431 36.4667 133.592C35.6199 132.753 35.1387 131.614 35.1275 130.423L32.543 60.6744C32.5443 59.4765 33.0212 58.328 33.8691 57.481C34.717 56.6339 35.8666 56.1575 37.0657 56.1561H201.821C203.014 56.1574 204.158 56.6288 205.005 57.4678C205.851 58.3069 206.333 59.4458 206.344 60.6372L208.928 130.385C208.927 131.583 208.45 132.732 207.602 133.579C206.754 134.426 205.605 134.902 204.406 134.904ZM33.8353 60.6404L36.4196 130.385C36.4206 131.241 36.7612 132.061 37.3669 132.666C37.9725 133.271 38.7936 133.612 39.6501 133.613H204.406C205.256 133.612 206.072 133.276 206.677 132.678C207.281 132.081 207.626 131.269 207.636 130.419L205.052 60.6744C205.051 59.8188 204.71 58.9985 204.104 58.3934C203.499 57.7884 202.678 57.4481 201.821 57.4471H37.0657C36.2151 57.4481 35.3991 57.7837 34.7945 58.3814C34.1899 58.9791 33.8453 59.7907 33.8353 60.6404Z"
            fill="#3F3D56" />
        <path
            d="M235.421 237.534H70.6657C69.4731 237.532 68.3291 237.061 67.4823 236.222C66.6355 235.383 66.1543 234.244 66.1432 233.053L63.5586 163.304C63.5599 162.107 64.0369 160.958 64.8847 160.111C65.7326 159.264 66.8822 158.787 68.0813 158.786H232.837C234.029 158.787 235.173 159.259 236.02 160.098C236.867 160.937 237.348 162.076 237.359 163.267L239.944 233.015C239.943 234.213 239.466 235.362 238.618 236.209C237.77 237.056 236.62 237.532 235.421 237.534ZM64.851 163.27L67.4352 233.015C67.4362 233.871 67.7769 234.691 68.3825 235.296C68.9881 235.901 69.8092 236.242 70.6657 236.243H235.421C236.272 236.242 237.088 235.906 237.692 235.308C238.297 234.711 238.642 233.899 238.652 233.049L236.067 163.304C236.066 162.449 235.726 161.628 235.12 161.023C234.514 160.418 233.693 160.078 232.837 160.077H68.0813C67.2307 160.078 66.4147 160.414 65.8101 161.011C65.2055 161.609 64.8609 162.421 64.851 163.27Z"
            fill="#3F3D56" />
        <path
            d="M109.754 173.955C108.641 173.955 107.572 174.397 106.785 175.184C105.997 175.97 105.555 177.038 105.555 178.15C105.555 179.263 105.997 180.33 106.785 181.117C107.572 181.904 108.641 182.346 109.754 182.346H193.747C194.861 182.346 195.929 181.904 196.717 181.117C197.504 180.33 197.947 179.263 197.947 178.15C197.947 177.038 197.504 175.97 196.717 175.184C195.929 174.397 194.861 173.955 193.747 173.955H109.754Z"
            fill="#0988D0" />
        <path
            d="M109.754 193.964C108.641 193.964 107.572 194.406 106.785 195.193C105.997 195.98 105.555 197.047 105.555 198.16C105.555 199.273 105.997 200.34 106.785 201.127C107.572 201.913 108.641 202.355 109.754 202.355H193.747C194.861 202.355 195.929 201.913 196.717 201.127C197.504 200.34 197.947 199.273 197.947 198.16C197.947 197.047 197.504 195.98 196.717 195.193C195.929 194.406 194.861 193.964 193.747 193.964H109.754Z"
            fill="#0988D0" />
        <path
            d="M109.754 213.974C108.641 213.974 107.572 214.416 106.785 215.203C105.997 215.99 105.555 217.057 105.555 218.17C105.555 219.282 105.997 220.349 106.785 221.136C107.572 221.923 108.641 222.365 109.754 222.365H193.747C194.861 222.365 195.929 221.923 196.717 221.136C197.504 220.349 197.947 219.282 197.947 218.17C197.947 217.057 197.504 215.99 196.717 215.203C195.929 214.416 194.861 213.974 193.747 213.974H109.754Z"
            fill="#0988D0" />
        <path
            d="M78.7387 71.3247C77.6249 71.3247 76.5567 71.7667 75.7691 72.5536C74.9815 73.3404 74.5391 74.4075 74.5391 75.5203C74.5391 76.633 74.9815 77.7002 75.7691 78.487C76.5567 79.2738 77.6249 79.7158 78.7387 79.7158H162.732C163.846 79.7158 164.914 79.2738 165.701 78.487C166.489 77.7002 166.931 76.633 166.931 75.5203C166.931 74.4075 166.489 73.3404 165.701 72.5536C164.914 71.7667 163.846 71.3247 162.732 71.3247H78.7387Z"
            fill="#0988D0" />
        <path
            d="M78.7387 91.3344C77.6249 91.3344 76.5567 91.7764 75.7691 92.5632C74.9815 93.35 74.5391 94.4172 74.5391 95.5299C74.5391 96.6427 74.9815 97.7098 75.7691 98.4966C76.5567 99.2835 77.6249 99.7255 78.7387 99.7255H162.732C163.846 99.7255 164.914 99.2835 165.701 98.4966C166.489 97.7098 166.931 96.6427 166.931 95.5299C166.931 94.4172 166.489 93.35 165.701 92.5632C164.914 91.7764 163.846 91.3344 162.732 91.3344H78.7387Z"
            fill="#0988D0" />
        <path
            d="M78.7387 111.344C77.6249 111.344 76.5567 111.786 75.7691 112.573C74.9815 113.36 74.5391 114.427 74.5391 115.54C74.5391 116.652 74.9815 117.719 75.7691 118.506C76.5567 119.293 77.6249 119.735 78.7387 119.735H162.732C163.846 119.735 164.914 119.293 165.701 118.506C166.489 117.719 166.931 116.652 166.931 115.54C166.931 114.427 166.489 113.36 165.701 112.573C164.914 111.786 163.846 111.344 162.732 111.344H78.7387Z"
            fill="#0988D0" />
        <path
            d="M90.6915 19.3642C94.2598 19.3642 97.1525 16.4743 97.1525 12.9094C97.1525 9.34459 94.2598 6.45471 90.6915 6.45471C87.1232 6.45471 84.2305 9.34459 84.2305 12.9094C84.2305 16.4743 87.1232 19.3642 90.6915 19.3642Z"
            fill="#E6E6E6" />
    </g>
    <defs>
        <clipPath id="clip0_2262_9382">
            <rect width="468" height="335" fill="white" />
        </clipPath>
    </defs>
</svg>