<svg width="276" height="285" viewBox="0 0 276 285" fill="none" xmlns="http://www.w3.org/2000/svg">
    <g clip-path="url(#clip0_2261_5181)">
        <path
            d="M193.754 285H118.214C117.336 284.999 116.494 284.649 115.874 284.028C115.253 283.406 114.903 282.563 114.902 281.684V228.807C114.903 227.928 115.253 227.085 115.874 226.464C116.494 225.842 117.336 225.492 118.214 225.491H193.754C194.632 225.492 195.473 225.842 196.094 226.464C196.715 227.085 197.064 227.928 197.065 228.807V281.684C197.064 282.563 196.715 283.406 196.094 284.028C195.473 284.649 194.632 284.999 193.754 285Z"
            fill="#F2F2F2" />
        <path
            d="M70.3068 147.163C70.8133 146.514 71.1715 145.762 71.3561 144.959C71.5408 144.157 71.5475 143.324 71.3757 142.518C71.2039 141.713 70.8579 140.955 70.3619 140.298C69.866 139.641 69.2321 139.101 68.5051 138.716L68.0291 88.1304L58.5859 92.4692L60.663 141.392C60.0976 142.658 60.0155 144.088 60.4324 145.41C60.8493 146.732 61.7361 147.855 62.9249 148.566C64.1136 149.278 65.5217 149.528 66.8822 149.269C68.2428 149.01 69.4613 148.261 70.3068 147.163Z"
            fill="#9E616A" />
        <path
            d="M70.054 75.3233C70.054 75.3233 60.8679 70.862 59.5975 79.2791C58.3271 87.6962 53.1016 109.603 53.1016 109.603L68.9582 108.48L70.054 75.3233Z"
            fill="#9E616A" />
        <path
            d="M70.3068 147.163C70.8133 146.514 71.1715 145.762 71.3561 144.959C71.5408 144.157 71.5475 143.324 71.3757 142.518C71.2039 141.713 70.8579 140.955 70.3619 140.298C69.866 139.641 69.2321 139.101 68.5051 138.716L68.0291 88.1304L58.5859 92.4692L60.663 141.392C60.0976 142.658 60.0155 144.088 60.4324 145.41C60.8493 146.732 61.7361 147.855 62.9249 148.566C64.1136 149.278 65.5217 149.528 66.8822 149.269C68.2428 149.01 69.4613 148.261 70.3068 147.163Z"
            fill="#9E616A" />
        <path
            d="M70.054 75.3233C70.054 75.3233 60.8679 70.862 59.5975 79.2791C58.3271 87.6962 53.1016 109.603 53.1016 109.603L68.9582 108.48L70.054 75.3233Z"
            fill="#0988D0" />
        <path
            d="M43.456 270.184C43.0851 270.201 42.7179 270.104 42.4042 269.905C42.0905 269.706 41.8454 269.416 41.7021 269.073C41.5589 268.73 41.5244 268.351 41.6034 267.988C41.6823 267.624 41.8709 267.294 42.1436 267.042C42.1892 266.86 42.222 266.73 42.2677 266.548C42.2513 266.508 42.2349 266.469 42.2183 266.429C41.8447 265.546 41.2186 264.792 40.4186 264.264C39.6187 263.735 38.6806 263.455 37.7222 263.459C36.7637 263.462 35.8278 263.749 35.0318 264.284C34.2358 264.818 33.6152 265.576 33.2482 266.463C31.781 270.001 29.9131 273.544 29.4532 277.285C29.2506 278.938 29.3361 280.614 29.7057 282.239C26.2599 274.713 24.4705 266.533 24.459 258.254C24.4583 256.177 24.5736 254.101 24.8043 252.036C24.995 250.344 25.2596 248.663 25.5981 246.995C27.445 237.942 31.4104 229.457 37.1686 222.237C39.9556 220.714 42.2094 218.373 43.6265 215.529C44.1398 214.506 44.5026 213.415 44.7036 212.288C44.3893 212.329 44.0697 212.355 43.7554 212.376C43.6574 212.381 43.5543 212.386 43.4564 212.391L43.4195 212.393C43.0739 212.408 42.7313 212.324 42.4328 212.149C42.1343 211.974 41.8926 211.716 41.737 211.407C41.5813 211.098 41.5182 210.75 41.5552 210.406C41.5923 210.061 41.728 209.735 41.946 209.466C42.0817 209.299 42.2175 209.132 42.3534 208.965C42.5596 208.707 42.7709 208.454 42.9771 208.196C43.0009 208.172 43.0232 208.146 43.0441 208.119C43.2812 207.824 43.5182 207.535 43.7554 207.241C43.3226 206.569 42.7405 206.006 42.0545 205.595C39.6786 204.202 36.4007 205.167 34.6844 207.319C32.963 209.471 32.6383 212.489 33.2361 215.178C33.8241 217.465 34.7966 219.636 36.1121 221.597C35.9832 221.762 35.8492 221.922 35.7203 222.087C33.365 225.119 31.3121 228.376 29.5912 231.809C30.0097 227.963 29.5102 224.072 28.1337 220.456C26.7388 217.087 24.1241 214.25 21.8215 211.337C19.0557 207.838 13.3843 209.365 12.8971 213.8C12.8924 213.843 12.8878 213.886 12.8833 213.929C13.2253 214.122 13.5601 214.327 13.8876 214.544C14.2991 214.819 14.618 215.213 14.8024 215.672C14.9868 216.132 15.0282 216.637 14.9212 217.121C14.8141 217.605 14.5636 218.045 14.2025 218.383C13.8413 218.722 13.3864 218.944 12.8973 219.019L12.8472 219.027C12.969 220.261 13.1844 221.484 13.4914 222.686C14.3811 226.04 15.9532 229.173 18.1092 231.89C20.2653 234.608 22.9587 236.85 26.0207 238.476C26.2217 238.579 26.4175 238.682 26.6185 238.78C24.8895 243.686 23.805 248.796 23.3922 253.982C23.1585 257.041 23.1723 260.115 23.4334 263.172L23.4179 263.064C22.7582 259.664 20.9468 256.596 18.2898 254.379C14.3434 251.133 8.76781 249.938 4.51033 247.329C4.05786 247.038 3.53176 246.883 2.99406 246.882C2.45637 246.881 1.9295 247.033 1.47562 247.322C1.02174 247.61 0.65978 248.023 0.432414 248.511C0.205048 248.999 0.121769 249.541 0.192397 250.075C0.198107 250.113 0.203905 250.151 0.209802 250.189C0.844464 250.448 1.46241 250.746 2.06004 251.082C2.40205 251.275 2.73683 251.48 3.06439 251.697C3.47589 251.972 3.79475 252.365 3.97918 252.825C4.16361 253.285 4.20501 253.79 4.09796 254.274C3.99091 254.757 3.74041 255.197 3.37927 255.536C3.01813 255.875 2.5632 256.097 2.07408 256.172L2.02396 256.18C1.98788 256.185 1.95696 256.19 1.92094 256.195C3.00534 258.788 4.52734 261.174 6.42028 263.249C8.75869 265.762 11.585 267.769 14.7258 269.149C17.8667 270.529 21.256 271.252 24.6858 271.273H24.691C25.622 275.324 26.971 279.267 28.7162 283.038H43.0956C43.1472 282.878 43.1936 282.713 43.24 282.553C41.909 282.637 40.5728 282.557 39.2611 282.316C40.328 281.005 41.3948 279.684 42.4617 278.374C42.4855 278.349 42.5079 278.323 42.5287 278.296C43.0699 277.625 43.6162 276.96 44.1573 276.289L44.1576 276.288C44.1865 274.232 43.9508 272.181 43.4564 270.185L43.456 270.184Z"
            fill="#F2F2F2" />
        <path
            d="M255.45 270.184C255.079 270.201 254.712 270.104 254.398 269.905C254.085 269.706 253.84 269.416 253.696 269.073C253.553 268.73 253.519 268.351 253.598 267.988C253.676 267.624 253.865 267.294 254.138 267.042C254.183 266.86 254.216 266.73 254.262 266.548C254.245 266.508 254.229 266.469 254.212 266.429C253.839 265.546 253.213 264.792 252.413 264.264C251.613 263.735 250.675 263.455 249.716 263.459C248.758 263.462 247.822 263.749 247.026 264.284C246.23 264.818 245.609 265.576 245.242 266.463C243.775 270.001 241.907 273.544 241.447 277.285C241.245 278.938 241.33 280.614 241.7 282.239C238.254 274.713 236.465 266.533 236.453 258.254C236.452 256.177 236.568 254.101 236.798 252.036C236.989 250.344 237.254 248.663 237.592 246.995C239.439 237.942 243.404 229.457 249.163 222.237C251.95 220.714 254.204 218.373 255.621 215.529C256.134 214.506 256.497 213.415 256.698 212.288C256.383 212.329 256.064 212.355 255.749 212.376C255.652 212.381 255.548 212.386 255.451 212.391L255.414 212.393C255.068 212.408 254.725 212.324 254.427 212.149C254.128 211.974 253.887 211.716 253.731 211.407C253.575 211.098 253.512 210.75 253.549 210.406C253.586 210.061 253.722 209.735 253.94 209.466C254.076 209.299 254.212 209.132 254.348 208.965C254.554 208.707 254.765 208.454 254.971 208.196C254.995 208.172 255.017 208.146 255.038 208.119C255.275 207.824 255.512 207.535 255.749 207.241C255.317 206.569 254.735 206.006 254.049 205.595C251.673 204.202 248.395 205.167 246.678 207.319C244.957 209.471 244.632 212.489 245.23 215.178C245.818 217.465 246.791 219.636 248.106 221.597C247.977 221.762 247.843 221.922 247.714 222.087C245.359 225.119 243.306 228.376 241.585 231.809C242.004 227.963 241.504 224.072 240.128 220.456C238.733 217.087 236.118 214.25 233.816 211.337C231.05 207.838 225.378 209.365 224.891 213.8C224.886 213.843 224.882 213.886 224.877 213.929C225.219 214.122 225.554 214.327 225.882 214.544C226.293 214.819 226.612 215.213 226.797 215.672C226.981 216.132 227.022 216.637 226.915 217.121C226.808 217.605 226.558 218.045 226.197 218.383C225.835 218.722 225.381 218.944 224.891 219.019L224.841 219.027C224.963 220.261 225.179 221.484 225.486 222.686C226.375 226.04 227.947 229.173 230.103 231.89C232.259 234.608 234.953 236.85 238.015 238.476C238.216 238.579 238.412 238.682 238.613 238.78C236.884 243.686 235.799 248.796 235.386 253.982C235.153 257.041 235.166 260.115 235.428 263.172L235.412 263.064C234.752 259.664 232.941 256.596 230.284 254.379C226.337 251.133 220.762 249.938 216.504 247.329C216.052 247.038 215.526 246.883 214.988 246.882C214.45 246.881 213.924 247.033 213.47 247.322C213.016 247.61 212.654 248.023 212.427 248.511C212.199 248.999 212.116 249.541 212.187 250.075C212.192 250.113 212.198 250.151 212.204 250.189C212.839 250.448 213.457 250.746 214.054 251.082C214.396 251.275 214.731 251.48 215.059 251.697C215.47 251.972 215.789 252.365 215.973 252.825C216.158 253.285 216.199 253.79 216.092 254.274C215.985 254.757 215.735 255.197 215.373 255.536C215.012 255.875 214.557 256.097 214.068 256.172L214.018 256.18C213.982 256.185 213.951 256.19 213.915 256.195C214.999 258.788 216.522 261.174 218.414 263.249C220.753 265.762 223.579 267.769 226.72 269.149C229.861 270.529 233.25 271.252 236.68 271.273H236.685C237.616 275.324 238.965 279.267 240.71 283.038H255.09C255.141 282.878 255.188 282.713 255.234 282.553C253.903 282.637 252.567 282.557 251.255 282.316C252.322 281.005 253.389 279.684 254.456 278.374C254.48 278.349 254.502 278.323 254.523 278.296C255.064 277.625 255.61 276.96 256.151 276.289L256.152 276.288C256.181 274.232 255.945 272.181 255.451 270.185L255.45 270.184Z"
            fill="#F2F2F2" />
        <path
            d="M200.078 282.944C200.036 282.944 199.995 282.943 199.954 282.942C198.901 282.882 197.913 282.418 197.194 281.646C196.475 280.875 196.081 279.855 196.094 278.8C196.094 272.38 191.513 268.635 186.974 267.772C182.434 266.909 176.801 268.71 174.45 274.684L172.312 280.057C170.464 281.903 167.96 282.939 165.349 282.939C162.739 282.939 160.234 281.903 158.386 280.057L158.26 279.93L158.338 279.769L196.094 202.429V200.533C196.041 199.949 196.042 199.361 196.095 198.777L196.094 3.9874C196.094 3.45346 196.201 2.92496 196.408 2.43325C196.616 1.94153 196.921 1.49662 197.303 1.12491C197.686 0.753195 198.14 0.462257 198.637 0.269345C199.134 0.076434 199.665 -0.0145233 200.198 0.00188263C201.251 0.0620984 202.239 0.526281 202.958 1.29781C203.677 2.06935 204.071 3.08879 204.059 4.14396V198.8C204.111 199.384 204.111 199.972 204.058 200.556L204.059 202.428L241.892 279.93L241.766 280.057C239.918 281.903 237.414 282.939 234.803 282.939C232.192 282.939 229.688 281.903 227.84 280.057L227.784 279.971L225.703 274.684C223.351 268.711 217.719 266.91 213.179 267.772C208.639 268.635 204.059 272.38 204.059 278.8V278.957C204.059 280.014 203.639 281.028 202.893 281.776C202.146 282.524 201.134 282.944 200.078 282.944Z"
            fill="#E6E6E6" />
        <path
            d="M269.187 140.991H130.963C129.356 140.989 127.816 140.35 126.679 139.212C125.543 138.075 124.904 136.532 124.902 134.924V38.1677C124.904 36.559 125.543 35.0166 126.679 33.8791C127.816 32.7416 129.356 32.1017 130.963 32.0999H269.187C270.794 32.1018 272.335 32.7417 273.471 33.8792C274.607 35.0167 275.246 36.559 275.248 38.1677V134.924C275.246 136.532 274.607 138.074 273.471 139.212C272.334 140.349 270.794 140.989 269.187 140.991Z"
            fill="white" />
        <path
            d="M269.187 141.744H130.963C129.157 141.742 127.425 141.023 126.148 139.744C124.871 138.465 124.153 136.732 124.15 134.924V38.1675C124.152 36.3593 124.871 34.6257 126.148 33.3471C127.425 32.0685 129.157 31.3493 130.963 31.3473H269.187C270.993 31.3494 272.725 32.0686 274.002 33.3472C275.279 34.6258 275.997 36.3593 275.999 38.1675V134.924C275.997 136.732 275.279 138.465 274.002 139.744C272.725 141.022 270.993 141.742 269.187 141.744ZM130.963 32.8526C129.555 32.8542 128.206 33.4146 127.211 34.411C126.215 35.4074 125.656 36.7584 125.654 38.1675V134.924C125.656 136.333 126.215 137.684 127.211 138.68C128.206 139.676 129.555 140.237 130.963 140.238H269.187C270.595 140.237 271.944 139.676 272.939 138.68C273.934 137.684 274.494 136.333 274.496 134.924V38.1675C274.494 36.7584 273.934 35.4074 272.939 34.411C271.944 33.4146 270.595 32.8542 269.187 32.8526H130.963Z"
            fill="#F2F2F2" />
        <path
            d="M220.514 38.1494H179.639C177.048 38.1465 174.564 37.1145 172.731 35.2799C170.899 33.4453 169.868 30.9579 169.865 28.3634V28.1855H230.288V28.3634C230.285 30.9579 229.254 33.4453 227.422 35.2799C225.589 37.1145 223.105 38.1465 220.514 38.1494Z"
            fill="#E6E6E6" />
        <path
            d="M220.691 147.041H179.817C177.226 147.038 174.741 146.006 172.909 144.171C171.077 142.337 170.046 139.849 170.043 137.255V137.077H230.466V137.255C230.463 139.849 229.432 142.337 227.599 144.171C225.767 146.006 223.283 147.038 220.691 147.041Z"
            fill="#E6E6E6" />
        <path
            d="M275.479 283.443C275.479 283.521 275.464 283.599 275.434 283.672C275.404 283.744 275.36 283.81 275.304 283.866C275.249 283.921 275.183 283.965 275.111 283.995C275.038 284.025 274.961 284.04 274.882 284.04H0.596395C0.438221 284.04 0.286539 283.977 0.174694 283.865C0.0628486 283.753 0 283.601 0 283.443C0 283.284 0.0628486 283.132 0.174694 283.021C0.286539 282.909 0.438221 282.846 0.596395 282.846H274.882C274.961 282.845 275.038 282.861 275.111 282.891C275.183 282.921 275.249 282.965 275.304 283.02C275.36 283.075 275.404 283.141 275.434 283.214C275.464 283.287 275.479 283.364 275.479 283.443Z"
            fill="#CCCCCC" />
        <path d="M92.3687 269.543H99.5936L103.031 241.641L92.3672 241.642L92.3687 269.543Z"
            fill="#9E616A" />
        <path
            d="M89.9225 265.975L101.344 265.292V270.191L112.202 277.7C112.739 278.07 113.143 278.603 113.355 279.22C113.568 279.837 113.578 280.506 113.384 281.129C113.19 281.752 112.802 282.296 112.277 282.683C111.752 283.07 111.117 283.278 110.465 283.278H96.868L94.5243 278.432L93.6092 283.278H88.4824L89.9225 265.975Z"
            fill="#2F2E41" />
        <path
            d="M67.7978 114.35L67.0902 117.727L66.4883 130.184L90.6668 126.906L92.5236 112.482L89.9571 108.26L67.7978 114.35Z"
            fill="#9E616A" />
        <path d="M55.8042 269.543H63.0291L66.4661 241.641L55.8027 241.642L55.8042 269.543Z"
            fill="#9E616A" />
        <path
            d="M51.8851 220.249L51.8848 220.174L54.5893 207.534L56.2569 201.241L51.6214 164.396C50.53 137.627 66.0413 124.759 66.1633 124.633L66.4997 124.283L91.3757 123.673C104.76 131.702 103.245 175.616 105.696 205.482C105.871 207.611 108.067 210.755 107.527 212.78C103.244 228.851 104.499 246.229 101.236 246.743L91.232 246.604L86.0652 223.126L90.8345 205.22C88.7193 204.83 87.2575 194.476 87.2575 194.476C86.3358 193.38 83.1539 184.061 83.1539 184.061L78.9112 158.265L72.0948 202.634L73.7364 213.043L72.3778 216.622L66.5601 246.169L66.4983 246.645L55.53 245.549L51.8851 220.249Z"
            fill="#2F2E41" />
        <path
            d="M53.3581 265.975L64.7793 265.292V270.191L75.6378 277.7C76.1741 278.07 76.5781 278.603 76.7906 279.22C77.0031 279.837 77.0132 280.506 76.8192 281.129C76.6252 281.752 76.2374 282.296 75.7124 282.683C75.1874 283.07 74.5527 283.278 73.9009 283.278H60.3035L57.9598 278.432L57.0447 283.278H51.918L53.3581 265.975Z"
            fill="#2F2E41" />
        <path
            d="M87.7437 65.6351L93.8419 72.419L101.167 86.2416L97.5686 103.286L99.1418 111.284L101.465 120.076C92.514 125.033 81.8819 118.187 72.1144 115.147L62.5039 119.398L63.0121 107.695L63.2727 78.2111C63.2827 77.0786 63.5251 75.9603 63.9848 74.9256C64.4445 73.8909 65.1117 72.9618 65.945 72.196C66.7784 71.4302 67.76 70.8441 68.829 70.474C69.898 70.1039 71.0316 69.9578 72.1594 70.0446L78.5964 65.2958L87.7437 65.6351Z"
            fill="#0988D0" />
        <path
            d="M86.0364 62.084C93.1381 62.084 98.8951 56.3201 98.8951 49.2099C98.8951 42.0997 93.1381 36.3358 86.0364 36.3358C78.9348 36.3358 73.1777 42.0997 73.1777 49.2099C73.1777 56.3201 78.9348 62.084 86.0364 62.084Z"
            fill="#9E616A" />
        <path
            d="M101.168 44.5637C100.941 45.8252 95.5279 46.434 95.6908 44.1897C94.6376 46.3026 93.0638 49.369 95.0685 52.8814C94.2833 53.7377 93.7886 54.8206 93.6552 55.9754C93.5219 57.1302 93.7566 58.2976 94.326 59.3107C94.8964 60.2391 95.3743 61.2213 95.7528 62.2433C95.8291 62.4914 95.8836 62.7457 95.9157 63.0033C95.948 63.2622 95.9101 63.5251 95.806 63.7642C95.702 64.0034 95.5355 64.2101 95.3241 64.3628C95.1128 64.5154 94.8643 64.6082 94.6048 64.6316C94.3452 64.6549 94.0842 64.608 93.849 64.4956C88.3961 61.8215 78.8869 62.2748 72.9213 63.9063C72.9611 62.7443 72.9452 61.5851 72.8736 60.4284C72.6559 61.8748 72.0731 63.2417 71.1805 64.3997C70.1591 64.7021 69.1575 65.0164 68.1878 65.3268C68.0399 65.3748 67.8818 65.3817 67.7303 65.3469C67.5787 65.312 67.4395 65.2367 67.3274 65.1289C67.2152 65.0211 67.1344 64.8849 67.0934 64.7348C67.0525 64.5847 67.0529 64.4262 67.0948 64.2763C67.2838 63.5895 67.3191 62.8694 67.1981 62.1674C66.9517 60.7109 66.2204 59.3938 65.7037 58.0131C65.1871 56.6323 64.8929 55.0446 65.5249 53.7115C66.5066 51.6423 69.2728 51.0096 70.4929 49.0718C71.8641 46.8952 70.799 44.058 71.0136 41.4914C71.3156 37.8623 74.2845 34.9138 77.631 33.4892C83.4257 31.0221 90.6751 33.02 95.0192 37.5802C95.6285 37.1683 96.3399 36.9335 97.0745 36.9019C97.809 36.8703 98.538 37.0431 99.1804 37.4012C100.464 38.0896 101.386 38.4477 101.962 39.7887C102.467 40.9665 101.398 43.2983 101.168 44.5637Z"
            fill="#2F2E41" />
        <path
            d="M95.6433 195.959L65.3904 165.67C65.0391 165.317 64.8418 164.839 64.8418 164.342C64.8418 163.844 65.0391 163.366 65.3903 163.013L86.5417 141.837C86.8937 141.485 87.3708 141.287 87.8681 141.287C88.3655 141.287 88.8425 141.485 89.1946 141.837L119.448 172.126C119.799 172.478 119.996 172.956 119.996 173.454C119.996 173.952 119.799 174.43 119.447 174.782L98.2961 195.959C97.944 196.31 97.467 196.508 96.9697 196.508C96.4724 196.508 95.9954 196.31 95.6433 195.959Z"
            fill="white" />
        <path
            d="M96.971 197.009C96.6588 197.01 96.3495 196.949 96.061 196.83C95.7726 196.711 95.5106 196.535 95.2903 196.314L65.0373 166.024C64.5919 165.578 64.3418 164.973 64.3418 164.342C64.3418 163.711 64.5919 163.105 65.0373 162.659L86.1887 141.482C86.6347 141.036 87.2392 140.786 87.8695 140.786C88.4998 140.786 89.1043 141.036 89.5503 141.482L119.803 171.771C120.248 172.218 120.499 172.823 120.499 173.454C120.499 174.085 120.248 174.69 119.803 175.137L98.6517 196.314C98.4314 196.535 98.1694 196.711 97.8809 196.83C97.5924 196.949 97.2832 197.01 96.971 197.009ZM87.8694 141.789C87.6889 141.789 87.51 141.824 87.3432 141.893C87.1764 141.962 87.0249 142.063 86.8976 142.192L65.7459 163.368C65.4886 163.627 65.3441 163.977 65.3441 164.342C65.3441 164.706 65.4886 165.056 65.7459 165.315L95.999 195.604C96.2612 195.854 96.6092 195.993 96.971 195.993C97.3328 195.993 97.6808 195.854 97.943 195.604L119.094 174.427C119.352 174.169 119.496 173.819 119.496 173.454C119.496 173.089 119.352 172.739 119.094 172.481L88.8414 142.192C88.714 142.063 88.5625 141.962 88.3957 141.893C88.2288 141.824 88.0499 141.789 87.8694 141.789Z"
            fill="#E6E6E6" />
        <path
            d="M84.2457 144.654C83.7392 144.005 83.3811 143.253 83.1964 142.45C83.0117 141.648 83.005 140.815 83.1768 140.009C83.3486 139.204 83.6946 138.446 84.1906 137.789C84.6866 137.132 85.3204 136.592 86.0474 136.207L86.5234 85.6216L95.9666 89.9604L93.8895 138.884C94.4549 140.149 94.537 141.579 94.1201 142.901C93.7032 144.223 92.8164 145.346 91.6276 146.058C90.4389 146.769 89.0309 147.019 87.6703 146.76C86.3098 146.502 85.0913 145.752 84.2457 144.654Z"
            fill="#9E616A" />
        <path
            d="M84.5 72.8144C84.5 72.8144 93.6861 68.3531 94.9565 76.7703C96.2269 85.1874 101.452 107.094 101.452 107.094L85.5957 105.971L84.5 72.8144Z"
            fill="#9E616A" />
        <path
            d="M84.2457 144.654C83.7392 144.005 83.3811 143.253 83.1964 142.45C83.0117 141.648 83.005 140.815 83.1768 140.009C83.3486 139.204 83.6946 138.446 84.1906 137.789C84.6866 137.132 85.3204 136.592 86.0474 136.207L86.5234 85.6216L95.9666 89.9604L93.8895 138.884C94.4549 140.149 94.537 141.579 94.1201 142.901C93.7032 144.223 92.8164 145.346 91.6276 146.058C90.4389 146.769 89.0309 147.019 87.6703 146.76C86.3098 146.502 85.0913 145.752 84.2457 144.654Z"
            fill="#9E616A" />
        <path
            d="M84.5 72.8144C84.5 72.8144 93.6861 68.3531 94.9565 76.7703C96.2269 85.1874 101.452 107.094 101.452 107.094L85.5957 105.971L84.5 72.8144Z"
            fill="#0988D0" />
    </g>
    <defs>
        <clipPath id="clip0_2261_5181">
            <rect width="276" height="285" fill="white" />
        </clipPath>
    </defs>
</svg>