<svg width="461" height="397" viewBox="0 0 461 397" fill="none" xmlns="http://www.w3.org/2000/svg">
    <g clip-path="url(#clip0_2262_9417)">
        <path
            d="M327.658 395.638C324.351 395.635 321.098 394.796 318.2 393.197L49.1263 245.556C44.5309 243.028 41.1228 238.774 39.6496 233.728C38.1763 228.681 38.7583 223.255 41.2679 218.639L154.819 10.326C156.064 8.04083 157.746 6.02422 159.769 4.39129C161.791 2.75835 164.114 1.54107 166.606 0.808947C169.097 0.0768224 171.708 -0.155808 174.289 0.12434C176.869 0.404488 179.37 1.19193 181.648 2.44169L450.722 150.083C455.317 152.611 458.725 156.865 460.198 161.911C461.672 166.957 461.09 172.383 458.58 177L345.029 385.312C343.789 387.602 342.109 389.622 340.086 391.255C338.063 392.889 335.737 394.104 333.242 394.829C331.429 395.364 329.548 395.637 327.658 395.638ZM319.826 390.214C323.638 392.305 328.121 392.792 332.29 391.566C336.458 390.341 339.971 387.505 342.056 383.681L455.607 175.368C457.686 171.543 458.168 167.047 456.948 162.866C455.727 158.685 452.903 155.16 449.096 153.065L180.022 5.42441C176.21 3.33327 171.727 2.84676 167.558 4.07191C163.389 5.29706 159.876 8.13351 157.792 11.9573L44.2411 220.27C42.1617 224.095 41.6795 228.591 42.9002 232.772C44.1209 236.954 46.9448 240.478 50.7524 242.573L319.826 390.214Z"
            fill="#F2F2F2" />
        <path
            d="M333.204 322.783C330.108 322.781 327.063 321.998 324.347 320.507L106.808 201.143C104.692 199.985 102.824 198.418 101.311 196.535C99.7986 194.651 98.6711 192.486 97.9934 190.164C97.3156 187.843 97.1008 185.41 97.3612 183.005C97.6216 180.6 98.3522 178.27 99.5111 176.149L167.327 51.7381C168.484 49.616 170.046 47.7433 171.923 46.2269C173.801 44.7105 175.959 43.5801 178.272 42.9002C180.585 42.2204 183.01 42.0044 185.406 42.2646C187.803 42.5248 190.125 43.2562 192.24 44.4169L409.778 163.78C411.893 164.94 413.76 166.507 415.271 168.391C416.783 170.276 417.909 172.44 418.587 174.761C419.265 177.082 419.48 179.514 419.221 181.919C418.961 184.323 418.232 186.653 417.076 188.775L349.259 313.185C347.691 316.086 345.372 318.509 342.547 320.198C339.721 321.887 336.494 322.78 333.204 322.783Z"
            fill="#F2F2F2" />
        <path
            d="M326.451 395.583H19.7661C14.8995 395.578 10.2338 393.636 6.79257 390.183C3.35136 386.731 1.41568 382.05 1.41016 377.167V139.737C1.41568 134.854 3.35136 130.173 6.79257 126.72C10.2338 123.268 14.8995 121.326 19.7661 121.32H326.451C331.317 121.326 335.983 123.268 339.424 126.72C342.866 130.173 344.801 134.854 344.807 139.737V377.167C344.801 382.05 342.866 386.731 339.424 390.183C335.983 393.636 331.317 395.578 326.451 395.583Z"
            fill="white" />
        <path
            d="M326.453 397H19.7679C14.5269 396.994 9.50232 394.903 5.7964 391.184C2.09048 387.466 0.00590033 382.425 0 377.167V139.737C0.00590033 134.478 2.09048 129.437 5.7964 125.719C9.50232 122.001 14.5269 119.909 19.7679 119.903H326.453C331.694 119.909 336.718 122.001 340.424 125.719C344.13 129.437 346.215 134.478 346.221 139.737V377.167C346.215 382.425 344.13 387.466 340.424 391.184C336.718 394.903 331.694 396.994 326.453 397ZM19.7679 123.303C15.4254 123.308 11.2621 125.041 8.19152 128.122C5.1209 131.203 3.39368 135.38 3.38878 139.737V377.167C3.39368 381.524 5.1209 385.701 8.19152 388.781C11.2621 391.862 15.4254 393.595 19.7679 393.6H326.453C330.795 393.595 334.958 391.862 338.029 388.781C341.1 385.701 342.827 381.524 342.832 377.167V139.737C342.827 135.38 341.1 131.203 338.029 128.122C334.958 125.041 330.795 123.308 326.453 123.303H19.7679Z"
            fill="#E6E6E6" />
        <path
            d="M220.837 199.399C217.274 199.396 213.759 200.223 210.569 201.815C207.379 203.406 204.6 205.719 202.452 208.571C200.146 207.575 197.63 207.17 195.13 207.391C192.629 207.612 190.223 208.452 188.126 209.837C186.029 211.221 184.308 213.107 183.117 215.323C181.925 217.54 181.301 220.019 181.301 222.537H243.899C243.899 219.499 243.303 216.49 242.144 213.683C240.985 210.875 239.286 208.324 237.144 206.176C235.003 204.027 232.461 202.323 229.662 201.16C226.864 199.997 223.865 199.399 220.837 199.399Z"
            fill="#E6E6E6" />
        <path
            d="M83.702 289.97C104.214 289.97 120.842 273.287 120.842 252.708C120.842 232.128 104.214 215.446 83.702 215.446C63.1904 215.446 46.5625 232.128 46.5625 252.708C46.5625 273.287 63.1904 289.97 83.702 289.97Z"
            fill="#0988D0" />
        <path
            d="M301.241 329.5C299.879 329.822 298.483 329.983 297.084 329.981H49.138C46.0844 329.986 43.0796 329.212 40.4062 327.732L41.067 326.78L68.7308 286.813L109.724 227.603L110.322 226.736L116.772 217.42C117.206 216.793 117.784 216.281 118.458 215.927C119.132 215.573 119.881 215.388 120.641 215.388C121.402 215.388 122.151 215.573 122.825 215.927C123.498 216.281 124.077 216.793 124.51 217.42L145.939 248.365V248.371L158.545 266.583L188.637 310.046L234.278 244.682C234.713 244.059 235.291 243.55 235.964 243.198C236.636 242.847 237.383 242.663 238.142 242.663C238.9 242.663 239.647 242.847 240.32 243.198C240.992 243.55 241.57 244.059 242.005 244.682L271.284 286.609L272.967 289.017L301.241 329.5Z"
            fill="#3F3D56" />
        <path
            d="M171.544 238.035C167.148 238.031 162.812 239.052 158.876 241.015C154.94 242.979 151.512 245.832 148.861 249.351C146.017 248.122 142.912 247.622 139.827 247.895C136.742 248.167 133.773 249.204 131.186 250.913C128.599 252.621 126.476 254.947 125.006 257.682C123.536 260.417 122.766 263.475 122.766 266.582H199.998C199.998 262.833 199.262 259.121 197.832 255.658C196.402 252.194 194.306 249.047 191.664 246.396C189.022 243.745 185.885 241.642 182.433 240.208C178.98 238.773 175.28 238.035 171.544 238.035Z"
            fill="#CCCCCC" />
        <path
            d="M297.084 330.548H49.1383C46.6901 330.55 44.2654 330.068 42.0031 329.129C39.7408 328.19 37.6852 326.813 35.9541 325.076C34.2229 323.339 32.8501 321.277 31.9142 319.007C30.9784 316.737 30.4978 314.304 30.5 311.848V170.047C30.5056 165.09 32.4711 160.336 35.9652 156.831C39.4594 153.325 44.1968 151.353 49.1383 151.348H297.084C302.026 151.353 306.763 153.325 310.257 156.831C313.751 160.336 315.717 165.09 315.723 170.047V311.848C315.725 314.305 315.245 316.737 314.31 319.007C313.374 321.277 312.001 323.34 310.27 325.077C308.538 326.814 306.483 328.191 304.22 329.13C301.958 330.069 299.533 330.551 297.084 330.548ZM49.1383 152.481C44.4963 152.486 40.046 154.339 36.7636 157.632C33.4812 160.925 31.6349 165.39 31.6296 170.047V311.848C31.6274 314.156 32.0788 316.441 32.9579 318.573C33.8371 320.705 35.1267 322.643 36.7529 324.274C38.3792 325.906 40.3102 327.2 42.4354 328.082C44.5607 328.964 46.8384 329.417 49.1383 329.415H297.084C299.384 329.417 301.662 328.965 303.788 328.083C305.913 327.201 307.844 325.907 309.471 324.275C311.097 322.644 312.387 320.706 313.266 318.574C314.145 316.441 314.596 314.156 314.593 311.848V170.047C314.588 165.39 312.741 160.925 309.459 157.632C306.177 154.339 301.726 152.486 297.084 152.481H49.1383Z"
            fill="#3F3D56" />
    </g>
    <defs>
        <clipPath id="clip0_2262_9417">
            <rect width="461" height="397" fill="white" />
        </clipPath>
    </defs>
</svg>