<svg width="232" height="232" viewBox="0 0 232 232" fill="none" xmlns="http://www.w3.org/2000/svg">
    <path
        d="M19.2183 138.142L22.8421 136.05C22.8421 136.05 24.9997 127.08 24.1413 119.016C22.9303 107.671 15.4645 103.402 12.6248 104.382C9.78514 105.361 8.96386 108.66 13.6642 115.415C16.4343 119.401 19.84 127.702 19.2183 138.142Z"
        fill="#07689F" />
    <g opacity="0.65">
        <path opacity="0.65"
            d="M19.2163 138.142L22.8401 136.05C22.8401 136.05 24.9977 127.08 24.1393 119.016C22.9283 107.671 15.4625 103.402 12.6229 104.382C9.78319 105.361 8.96191 108.66 13.6622 115.415C16.4323 119.401 19.8381 127.702 19.2163 138.142Z"
            fill="white" />
    </g>
    <path
        d="M20.7213 133.739H20.6842C20.619 133.726 20.5614 133.689 20.524 133.634C20.4866 133.579 20.4724 133.512 20.4847 133.446C22.4706 122.96 18.8189 111.221 14.2903 106.33C14.2453 106.281 14.2218 106.216 14.2249 106.149C14.2279 106.083 14.2573 106.02 14.3065 105.975C14.3557 105.93 14.4208 105.907 14.4874 105.91C14.5539 105.913 14.6165 105.942 14.6615 105.992C19.269 110.97 23.0135 122.918 20.9765 133.535C20.9654 133.594 20.9336 133.647 20.8868 133.684C20.8399 133.721 20.7812 133.741 20.7213 133.739Z"
        fill="white" />
    <path
        d="M10.0907 143.409C9.55242 143.687 8.10938 142.453 7.71034 142.156C7.02311 141.633 6.48151 140.943 6.13738 140.151C5.74942 139.254 5.65207 138.258 5.85898 137.302C5.96965 136.798 6.11539 136.302 6.29514 135.818C6.45754 135.354 6.61994 134.862 6.78698 134.379C6.98065 133.916 7.07852 133.419 7.07466 132.918C6.99578 131.915 6.14666 131.173 5.37178 130.528C4.51338 129.813 3.63178 128.89 3.69674 127.688C3.80937 126.758 4.2271 125.892 4.88458 125.225C5.49242 124.529 6.20698 123.916 6.76842 123.178C7.20648 122.658 7.45222 122.002 7.46442 121.322C7.4301 120.907 7.3117 120.503 7.11642 120.134C6.66583 119.366 6.27791 118.562 5.95642 117.731C5.7105 116.877 5.8033 115.833 6.49002 115.262C6.7949 115.06 7.13664 114.92 7.49571 114.85C7.85478 114.78 8.22413 114.781 8.58266 114.854C9.2607 114.973 9.90494 115.237 10.4711 115.629C12.3271 116.784 13.3015 119.1 15.2828 120.018C16.073 120.308 16.8804 120.548 17.7003 120.738C18.111 120.836 18.4967 121.019 18.833 121.275C19.1692 121.53 19.4487 121.853 19.6537 122.222C20.3219 123.744 18.851 125.508 19.2918 127.108C19.6862 128.5 21.0132 129.127 21.7092 130.421C21.9939 130.996 22.0866 131.646 21.9737 132.277C21.8537 133.34 21.5391 134.372 21.0457 135.321C20.4918 136.296 19.8798 137.236 19.2129 138.138C19.2129 138.138 10.1742 143.376 10.0907 143.409Z"
        fill="#07689F" />
    <g opacity="0.3">
        <path opacity="0.3"
            d="M10.0907 143.409C9.55242 143.687 8.10938 142.453 7.71034 142.156C7.02311 141.633 6.48151 140.943 6.13738 140.151C5.74942 139.254 5.65207 138.258 5.85898 137.302C5.96965 136.798 6.11539 136.302 6.29514 135.817C6.45754 135.353 6.61994 134.862 6.78698 134.379C6.98065 133.916 7.07852 133.419 7.07466 132.917C6.99578 131.915 6.14666 131.173 5.37178 130.528C4.51338 129.813 3.63178 128.89 3.69674 127.688C3.80937 126.758 4.2271 125.892 4.88458 125.224C5.49242 124.528 6.20698 123.916 6.76842 123.178C7.20648 122.658 7.45222 122.002 7.46442 121.322C7.4301 120.907 7.3117 120.503 7.11642 120.134C6.66583 119.366 6.27791 118.562 5.95642 117.731C5.7105 116.877 5.8033 115.833 6.49002 115.262C6.7949 115.06 7.13664 114.92 7.49571 114.85C7.85478 114.78 8.22413 114.781 8.58266 114.854C9.2607 114.973 9.90494 115.237 10.4711 115.629C12.3271 116.784 13.3015 119.1 15.2828 120.018C16.073 120.308 16.8804 120.548 17.7003 120.737C18.111 120.836 18.4967 121.019 18.833 121.275C19.1692 121.53 19.4487 121.853 19.6537 122.222C20.3219 123.744 18.851 125.507 19.2918 127.108C19.6862 128.5 21.0132 129.127 21.7092 130.421C21.9939 130.996 22.0866 131.646 21.9737 132.277C21.8537 133.34 21.5391 134.372 21.0457 135.321C20.4918 136.296 19.8798 137.236 19.2129 138.137C19.2129 138.137 10.1742 143.376 10.0907 143.409Z"
            fill="white" />
    </g>
    <path
        d="M15.3395 140.676C15.2763 140.67 15.218 140.639 15.1771 140.59C15.1363 140.542 15.1163 140.479 15.1215 140.416C15.9891 131.006 12.073 120.371 8.99202 117.183C8.94834 117.138 8.92453 117.077 8.92583 117.014C8.92714 116.951 8.95345 116.891 8.99898 116.847C9.04452 116.803 9.10554 116.779 9.16862 116.781C9.23171 116.782 9.2917 116.808 9.33538 116.854C12.4767 120.102 16.4763 130.918 15.5947 140.458C15.5924 140.489 15.5839 140.519 15.5698 140.547C15.5557 140.575 15.5362 140.599 15.5125 140.62C15.4888 140.64 15.4613 140.655 15.4316 140.665C15.4019 140.674 15.3706 140.678 15.3395 140.676Z"
        fill="white" />
    <path
        d="M14.4046 129.076H14.335C12.1319 128.341 9.85596 127.846 7.5467 127.6C7.51577 127.598 7.48562 127.589 7.45803 127.575C7.43044 127.561 7.40597 127.541 7.38607 127.518C7.36617 127.494 7.35124 127.466 7.34217 127.437C7.3331 127.407 7.33007 127.376 7.33326 127.345C7.33424 127.313 7.34197 127.281 7.35594 127.253C7.36991 127.224 7.38982 127.198 7.41435 127.178C7.43888 127.157 7.46749 127.142 7.49829 127.133C7.5291 127.124 7.5614 127.122 7.5931 127.127C9.94108 127.368 12.256 127.863 14.4974 128.602C14.5489 128.624 14.5914 128.662 14.6176 128.712C14.6438 128.761 14.6522 128.818 14.6412 128.872C14.6303 128.927 14.6007 128.976 14.5576 129.012C14.5145 129.047 14.4604 129.066 14.4046 129.066V129.076Z"
        fill="white" />
    <path
        d="M212.777 138.142L209.153 136.05C209.153 136.05 206.996 127.08 207.854 119.016C209.065 107.671 216.531 103.402 219.371 104.382C222.21 105.361 223.032 108.66 218.331 115.415C215.561 119.401 212.155 127.702 212.777 138.142Z"
        fill="#07689F" />
    <g opacity="0.65">
        <path opacity="0.65"
            d="M212.777 138.142L209.153 136.049C209.153 136.049 206.996 127.08 207.854 119.016C209.065 107.671 216.531 103.402 219.371 104.381C222.21 105.36 223.032 108.659 218.331 115.415C215.561 119.401 212.155 127.702 212.777 138.142Z"
            fill="white" />
    </g>
    <path
        d="M211.275 133.739H211.312C211.377 133.726 211.435 133.689 211.472 133.634C211.51 133.579 211.524 133.512 211.512 133.446C209.526 122.983 213.177 111.225 217.706 106.335C217.751 106.286 217.775 106.221 217.772 106.154C217.768 106.088 217.739 106.025 217.69 105.98C217.641 105.935 217.576 105.912 217.509 105.915C217.442 105.918 217.38 105.947 217.335 105.996C212.727 110.975 208.983 122.923 211.02 133.539C211.032 133.597 211.064 133.649 211.111 133.686C211.158 133.722 211.216 133.741 211.275 133.739Z"
        fill="white" />
    <path
        d="M221.906 143.409C222.445 143.687 223.888 142.453 224.287 142.156C224.974 141.633 225.516 140.943 225.86 140.151C226.248 139.254 226.345 138.258 226.138 137.302C226.027 136.798 225.882 136.302 225.702 135.817C225.539 135.353 225.377 134.862 225.21 134.379C225.016 133.916 224.919 133.419 224.922 132.917C225.001 131.915 225.85 131.173 226.625 130.528C227.484 129.813 228.365 128.89 228.3 127.688C228.188 126.758 227.77 125.892 227.112 125.224C226.505 124.528 225.79 123.916 225.229 123.178C224.791 122.658 224.545 122.002 224.533 121.322C224.567 120.907 224.685 120.503 224.881 120.134C225.331 119.366 225.719 118.562 226.041 117.731C226.287 116.877 226.194 115.833 225.507 115.262C225.202 115.06 224.86 114.92 224.501 114.85C224.142 114.78 223.773 114.781 223.414 114.854C222.736 114.973 222.092 115.237 221.526 115.629C219.67 116.784 218.695 119.1 216.714 120.018C215.924 120.308 215.117 120.548 214.297 120.737C213.886 120.836 213.5 121.019 213.164 121.275C212.828 121.53 212.548 121.853 212.343 122.222C211.675 123.744 213.146 125.507 212.705 127.108C212.311 128.5 210.984 129.127 210.288 130.421C210.003 130.996 209.91 131.646 210.023 132.277C210.143 133.34 210.458 134.372 210.951 135.321C211.505 136.296 212.117 137.236 212.784 138.137C212.784 138.137 221.823 143.376 221.906 143.409Z"
        fill="#07689F" />
    <g opacity="0.3">
        <path opacity="0.3"
            d="M221.904 143.408C222.443 143.687 223.886 142.453 224.285 142.156C224.972 141.633 225.514 140.943 225.858 140.151C226.246 139.254 226.343 138.258 226.136 137.302C226.025 136.798 225.88 136.302 225.7 135.817C225.538 135.353 225.375 134.862 225.208 134.379C225.014 133.916 224.917 133.419 224.92 132.917C224.999 131.915 225.848 131.173 226.623 130.528C227.482 129.813 228.363 128.89 228.298 127.688C228.186 126.758 227.768 125.892 227.11 125.224C226.503 124.528 225.788 123.916 225.227 123.178C224.789 122.658 224.543 122.002 224.531 121.322C224.565 120.907 224.683 120.502 224.879 120.134C225.329 119.365 225.717 118.562 226.039 117.731C226.285 116.877 226.192 115.833 225.505 115.262C225.2 115.06 224.858 114.92 224.499 114.85C224.14 114.78 223.771 114.781 223.412 114.854C222.734 114.973 222.09 115.237 221.524 115.629C219.668 116.784 218.694 119.099 216.712 120.018C215.922 120.308 215.115 120.548 214.295 120.737C213.884 120.836 213.498 121.019 213.162 121.275C212.826 121.53 212.546 121.853 212.341 122.222C211.673 123.744 213.144 125.507 212.703 127.108C212.309 128.5 210.982 129.126 210.286 130.421C210.001 130.995 209.908 131.646 210.021 132.277C210.141 133.34 210.456 134.372 210.949 135.321C211.503 136.296 212.115 137.236 212.782 138.137C212.782 138.137 221.821 143.376 221.904 143.408Z"
            fill="white" />
    </g>
    <path
        d="M216.659 140.675C216.722 140.67 216.78 140.639 216.821 140.59C216.862 140.542 216.882 140.479 216.877 140.416C216.009 131.006 219.925 120.371 223.006 117.183C223.05 117.138 223.074 117.077 223.072 117.014C223.071 116.95 223.045 116.89 222.999 116.847C222.954 116.803 222.893 116.779 222.829 116.781C222.766 116.782 222.706 116.808 222.663 116.854C219.521 120.102 215.522 130.918 216.403 140.457C216.406 140.489 216.414 140.519 216.428 140.547C216.442 140.575 216.462 140.599 216.486 140.62C216.509 140.64 216.537 140.655 216.566 140.665C216.596 140.674 216.627 140.678 216.659 140.675Z"
        fill="white" />
    <path
        d="M217.612 129.076H217.682C219.877 128.343 222.145 127.848 224.447 127.6C224.478 127.598 224.508 127.589 224.536 127.575C224.563 127.561 224.588 127.541 224.607 127.518C224.627 127.494 224.642 127.466 224.651 127.437C224.66 127.407 224.663 127.376 224.66 127.345C224.659 127.313 224.652 127.281 224.638 127.253C224.624 127.224 224.604 127.198 224.579 127.178C224.555 127.157 224.526 127.142 224.495 127.133C224.464 127.124 224.432 127.122 224.4 127.127C222.052 127.368 219.738 127.862 217.496 128.602C217.445 128.624 217.402 128.662 217.376 128.712C217.35 128.761 217.341 128.818 217.352 128.872C217.363 128.927 217.393 128.976 217.436 129.012C217.479 129.047 217.533 129.066 217.589 129.066L217.612 129.076Z"
        fill="white" />
    <path
        d="M116 228.961C178.107 228.961 228.455 199.892 228.455 164.033C228.455 128.175 178.107 99.106 116 99.106C53.8928 99.106 3.54492 128.175 3.54492 164.033C3.54492 199.892 53.8928 228.961 116 228.961Z"
        fill="#F5F5F5" />
    <path d="M90.11 175.276L122.186 156.758L82.5607 133.883L50.4844 152.401L90.11 175.276Z"
        fill="#E0E0E0" />
    <path d="M136.075 215.63L165.924 198.397L136.075 181.164L106.23 198.397L136.075 215.63Z"
        fill="#E0E0E0" />
    <path
        d="M181.616 190.718C195.997 190.718 207.656 183.987 207.656 175.684C207.656 167.382 195.997 160.651 181.616 160.651C167.235 160.651 155.576 167.382 155.576 175.684C155.576 183.987 167.235 190.718 181.616 190.718Z"
        fill="#E0E0E0" />
    <path
        d="M46.1881 193.386C64.3211 193.386 79.0208 184.9 79.0208 174.432C79.0208 163.964 64.3211 155.478 46.1881 155.478C28.0551 155.478 13.3555 163.964 13.3555 174.432C13.3555 184.9 28.0551 193.386 46.1881 193.386Z"
        fill="#E0E0E0" />
    <path
        d="M9.6229 43.2727C9.56754 43.273 9.51307 43.2586 9.46514 43.2309C9.41555 43.2034 9.37429 43.163 9.34572 43.114C9.31714 43.065 9.30229 43.0092 9.30274 42.9525V32.3501C9.30229 32.2934 9.31714 32.2376 9.34572 32.1886C9.37429 32.1396 9.41555 32.0992 9.46514 32.0717L18.5874 26.8053C18.6356 26.7758 18.691 26.7601 18.7475 26.7601C18.804 26.7601 18.8594 26.7758 18.9075 26.8053C18.9559 26.8338 18.996 26.8745 19.0237 26.9234C19.0514 26.9722 19.0657 27.0275 19.0653 27.0837V37.6907C19.0654 37.7468 19.0504 37.8018 19.0218 37.85C18.9932 37.8982 18.9521 37.9377 18.9029 37.9645L9.7853 43.2309C9.73553 43.2582 9.67968 43.2726 9.6229 43.2727ZM9.94306 32.5311V42.4003L18.425 37.5051V27.6359L9.94306 32.5311Z"
        fill="#E0E0E0" />
    <path
        d="M9.6229 61.299C9.56681 61.3001 9.51173 61.2839 9.46514 61.2526C9.41592 61.2259 9.37484 61.1863 9.34625 61.1381C9.31766 61.0899 9.30263 61.0349 9.30274 60.9789V50.3718C9.30229 50.3151 9.31714 50.2593 9.34572 50.2103C9.37429 50.1613 9.41555 50.121 9.46514 50.0934L18.5874 44.827C18.6363 44.7998 18.6914 44.7855 18.7475 44.7855C18.8035 44.7855 18.8586 44.7998 18.9075 44.827C18.9559 44.8555 18.996 44.8962 19.0237 44.9451C19.0514 44.994 19.0657 45.0493 19.0653 45.1054V55.7125C19.0653 55.7691 19.0502 55.8247 19.0217 55.8736C18.9932 55.9225 18.9522 55.963 18.9029 55.9909L9.7853 61.248C9.73731 61.2805 9.68086 61.2982 9.6229 61.299ZM9.94306 50.576V60.4406L18.425 55.5454V45.6576L9.94306 50.576Z"
        fill="#E0E0E0" />
    <path
        d="M14.0736 56.3391L11.9531 54.2975L12.6584 52.7941L13.8694 53.9541L19.0987 42.8923L20.0128 43.7693L14.0736 56.3391Z"
        fill="#07689F" />
    <path
        d="M9.62289 79.3441C9.56753 79.3444 9.51306 79.33 9.46513 79.3023C9.41618 79.2741 9.37545 79.2335 9.34697 79.1847C9.31848 79.1359 9.30324 79.0804 9.30273 79.0239V68.3937C9.30277 68.3371 9.31782 68.2815 9.34635 68.2326C9.37488 68.1836 9.41587 68.1432 9.46513 68.1153L18.5874 62.8489C18.6356 62.8246 18.6892 62.8129 18.7432 62.8149C18.7971 62.8169 18.8497 62.8325 18.896 62.8603C18.9423 62.8881 18.9809 62.9272 19.008 62.9738C19.0352 63.0205 19.0501 63.0733 19.0514 63.1273V73.7343C19.0518 73.791 19.037 73.8468 19.0084 73.8958C18.9798 73.9448 18.9386 73.9852 18.889 74.0127L9.78529 79.2791C9.73778 79.3146 9.68178 79.337 9.62289 79.3441ZM9.94305 68.6025V78.4671L18.425 73.5719V63.6841L9.94305 68.6025Z"
        fill="#E0E0E0" />
    <path
        d="M222.214 43.2309L213.096 37.9645C213.047 37.9377 213.006 37.8982 212.977 37.85C212.949 37.8018 212.933 37.7468 212.934 37.6907V27.0837C212.933 27.0275 212.948 26.9722 212.975 26.9234C213.003 26.8745 213.043 26.8338 213.091 26.8053C213.14 26.7758 213.195 26.7601 213.251 26.7601C213.308 26.7601 213.363 26.7758 213.412 26.8053L222.534 32.0717C222.583 32.0992 222.625 32.1396 222.653 32.1886C222.682 32.2376 222.697 32.2934 222.696 32.3501V42.9525C222.697 43.0092 222.682 43.065 222.653 43.114C222.625 43.163 222.583 43.2034 222.534 43.2309C222.486 43.2586 222.431 43.273 222.376 43.2727C222.319 43.2726 222.263 43.2582 222.214 43.2309ZM213.574 27.6359V37.5051L222.056 42.4003V32.5311L213.574 27.6359Z"
        fill="#E0E0E0" />
    <path
        d="M222.214 61.248L213.096 55.9862C213.047 55.9583 213.006 55.9179 212.977 55.869C212.949 55.82 212.934 55.7644 212.934 55.7078V45.1054C212.933 45.0493 212.948 44.994 212.975 44.9451C213.003 44.8962 213.043 44.8555 213.091 44.827C213.14 44.7998 213.195 44.7855 213.251 44.7855C213.307 44.7855 213.363 44.7998 213.412 44.827L222.534 50.112C222.583 50.1395 222.625 50.1799 222.653 50.2289C222.682 50.2779 222.697 50.3337 222.696 50.3904V60.9974C222.696 61.0535 222.681 61.1085 222.653 61.1567C222.624 61.2049 222.583 61.2444 222.534 61.2712C222.487 61.3025 222.432 61.3187 222.376 61.3176C222.316 61.3114 222.259 61.2871 222.214 61.248ZM213.574 45.6576V55.5269L222.056 60.4221V50.576L213.574 45.6576Z"
        fill="#E0E0E0" />
    <path
        d="M222.214 79.2791L213.096 74.0127C213.046 73.9852 213.005 73.9448 212.977 73.8958C212.948 73.8468 212.933 73.791 212.934 73.7343V63.1273C212.935 63.0733 212.95 63.0205 212.977 62.9738C213.004 62.9272 213.043 62.8881 213.089 62.8603C213.135 62.8325 213.188 62.8169 213.242 62.8149C213.296 62.8129 213.349 62.8246 213.398 62.8489L222.534 68.1153C222.583 68.1432 222.624 68.1836 222.653 68.2326C222.681 68.2815 222.696 68.3371 222.696 68.3937V79.0007C222.696 79.0572 222.68 79.1127 222.652 79.1615C222.623 79.2103 222.583 79.2509 222.534 79.2791C222.486 79.3068 222.431 79.3212 222.376 79.3209C222.319 79.3208 222.263 79.3064 222.214 79.2791ZM213.574 63.6841V73.5487L222.056 78.4439V68.5793L213.574 63.6841Z"
        fill="#E0E0E0" />
    <path
        d="M217.384 73.7156L215.264 69.224L216.243 68.2868L217.658 71.3028L222.613 66.5236L223.323 68.0037L217.384 73.7156Z"
        fill="#07689F" />
    <path
        d="M91.9402 31.5521L82.8179 26.2949C82.7699 26.2672 82.73 26.2273 82.7023 26.1792C82.6746 26.1312 82.6601 26.0767 82.6602 26.0212V15.4141C82.6607 15.3576 82.6759 15.3022 82.7044 15.2534C82.7329 15.2046 82.7736 15.164 82.8226 15.1357C82.8715 15.1085 82.9266 15.0942 82.9826 15.0942C83.0387 15.0942 83.0938 15.1085 83.1427 15.1357L92.2603 20.4161C92.3087 20.4446 92.3488 20.4853 92.3765 20.5341C92.4042 20.583 92.4185 20.6383 92.4181 20.6945V31.2829C92.4185 31.3391 92.4042 31.3944 92.3765 31.4433C92.3488 31.4921 92.3087 31.5329 92.2603 31.5613C92.2109 31.5901 92.1551 31.606 92.0979 31.6077C92.0414 31.6033 91.987 31.5841 91.9402 31.5521ZM83.3005 15.9663V25.8356L91.7778 30.7308V20.8801L83.3005 15.9663Z"
        fill="#E0E0E0" />
    <path
        d="M87.3939 26.6012L85.2734 22.1097L86.2525 21.1724L87.6677 24.1884L92.6232 19.4092L93.3331 20.8893L87.3939 26.6012Z"
        fill="#07689F" />
    <path
        d="M106.083 39.7231L96.9749 34.4567C96.9257 34.4299 96.8846 34.3904 96.856 34.3422C96.8274 34.294 96.8124 34.239 96.8125 34.1829V23.5759C96.8121 23.5197 96.8264 23.4644 96.8541 23.4156C96.8818 23.3667 96.9219 23.326 96.9703 23.2975C97.0192 23.2703 97.0743 23.256 97.1304 23.256C97.1864 23.256 97.2415 23.2703 97.2904 23.2975L106.413 28.5639C106.462 28.5914 106.504 28.6318 106.532 28.6808C106.561 28.7298 106.576 28.7856 106.575 28.8423V39.44C106.573 39.5247 106.538 39.6053 106.479 39.6656C106.42 39.7259 106.339 39.7614 106.255 39.7648C106.195 39.7661 106.136 39.7517 106.083 39.7231ZM97.4389 24.128V33.9973L105.921 38.8925V29.0232L97.4389 24.128Z"
        fill="#E0E0E0" />
    <path
        d="M120.212 47.8848L111.094 42.6231C111.045 42.5952 111.004 42.5547 110.975 42.5058C110.947 42.4569 110.932 42.4013 110.932 42.3447V31.7376C110.931 31.6815 110.946 31.6262 110.973 31.5773C111.001 31.5284 111.041 31.4877 111.089 31.4592C111.138 31.432 111.193 31.4177 111.249 31.4177C111.306 31.4177 111.361 31.432 111.41 31.4592L120.532 36.7256C120.581 36.7532 120.623 36.7935 120.651 36.8425C120.68 36.8915 120.695 36.9473 120.694 37.004V47.6111C120.694 47.6671 120.679 47.7221 120.651 47.7703C120.622 47.8185 120.581 47.8581 120.532 47.8848C120.485 47.9156 120.43 47.9317 120.374 47.9312C120.317 47.9318 120.26 47.9157 120.212 47.8848ZM111.572 32.2898V42.1591L120.054 47.0543V37.1896L111.572 32.2898Z"
        fill="#E0E0E0" />
    <path d="M84.0904 74.885L58.4637 150.777L56.6309 151.835L82.2622 75.9429L84.0904 74.885Z"
        fill="#0988D0" />
    <path d="M56.6314 151.835L55.7266 151.315L81.3533 75.4186L82.2627 75.9429L56.6314 151.835Z"
        fill="black" />
    <path d="M82.2627 137.038L81.3533 136.518L55.7266 90.2202L56.6314 90.7399L82.2627 137.038Z"
        fill="black" />
    <path d="M58.4637 89.6819L84.0904 135.98L82.2622 137.038L56.6309 90.7398L58.4637 89.6819Z"
        fill="#0988D0" />
    <path d="M90.5098 108.186V110.302L117.969 94.4474V92.3362L90.5098 108.186Z" fill="#0988D0" />
    <path d="M90.508 108.186V110.302L55.7266 90.2201V88.1042L90.508 108.186Z" fill="#053855" />
    <path d="M117.969 94.4471L92.3426 170.344L90.5098 171.397L116.141 95.5051L117.969 94.4471Z"
        fill="#0988D0" />
    <path d="M90.5083 171.397L89.6035 170.877L115.23 94.981L116.14 95.5053L90.5083 171.397Z"
        fill="black" />
    <path d="M116.14 156.6L115.23 156.08L89.6035 109.782L90.5083 110.302L116.14 156.6Z" fill="black" />
    <path d="M92.3426 109.244L117.969 155.542L116.141 156.6L90.5098 110.302L92.3426 109.244Z"
        fill="#0988D0" />
    <path
        d="M83.1861 34.2015L75.8549 38.4332C69.7331 41.9682 64.65 47.0526 61.1167 53.1753C57.5833 59.298 55.7243 66.243 55.7266 73.3121V88.1183L57.5547 89.1763L85.0142 73.3121V35.2641L83.1861 34.2015Z"
        fill="#07689F" />
    <path opacity="0.6"
        d="M83.1861 34.2015L75.8549 38.4332C69.7331 41.9682 64.65 47.0526 61.1167 53.1753C57.5833 59.298 55.7243 66.243 55.7266 73.3121V88.1183L57.5547 89.1763L85.0142 73.3121V35.2641L83.1861 34.2015Z"
        fill="white" />
    <path opacity="0.6"
        d="M58.7012 58.1161L85.0146 73.3121V35.2641L83.1864 34.2062L75.8552 38.4379C68.1094 42.9089 62.0737 49.8327 58.7012 58.1161Z"
        fill="white" />
    <path
        d="M57.5352 89.1624V74.3562C57.5353 67.2889 59.396 60.3462 62.9301 54.2261C66.4642 48.1059 71.5472 43.024 77.6681 39.4912L85.0132 35.2642V73.3122L57.5352 89.1624Z"
        fill="#07689F" />
    <path opacity="0.7"
        d="M57.5352 89.1624V74.3562C57.5353 67.2889 59.396 60.3462 62.9301 54.2261C66.4642 48.1059 71.5472 43.024 77.6681 39.4912L85.0132 35.2642V73.3122L57.5352 89.1624Z"
        fill="white" />
    <path d="M88.6798 105.017L57.5547 87.0464L85.0142 71.1962L116.139 89.1622L88.6798 105.017Z"
        fill="#07689F" />
    <path opacity="0.8"
        d="M88.6798 105.017L57.5547 87.0464L85.0142 71.1962L116.139 89.1622L88.6798 105.017Z"
        fill="white" />
    <path d="M88.6798 107.133V105.017L57.5547 87.0464V89.1622L88.6798 107.133Z" fill="#07689F" />
    <path opacity="0.6" d="M88.6798 107.133V105.017L57.5547 87.0464V89.1622L88.6798 107.133Z"
        fill="white" />
    <path opacity="0.3"
        d="M67.8828 87.9141L80.6985 95.3149L97.1751 85.8029L84.3594 78.4021L67.8828 87.9141Z"
        fill="#07689F" />
    <path d="M67.8828 87.1625L80.6985 94.5587L97.1751 85.0467L84.3594 77.6505L67.8828 87.1625Z"
        fill="#FAFAFA" />
    <path
        d="M89.8495 87.2738C89.8312 87.278 89.8121 87.278 89.7938 87.2738L87.9657 86.2159C87.9482 86.2063 87.9337 86.1921 87.9236 86.175C87.9135 86.1579 87.9082 86.1383 87.9082 86.1185C87.9082 86.0986 87.9135 86.079 87.9236 86.0619C87.9337 86.0448 87.9482 86.0306 87.9657 86.021L89.7938 84.9631C89.8109 84.9537 89.83 84.9489 89.8495 84.9489C89.869 84.9489 89.8881 84.9537 89.9052 84.9631L91.7612 86.021C91.7786 86.0306 91.7931 86.0448 91.8032 86.0619C91.8133 86.079 91.8186 86.0986 91.8186 86.1185C91.8186 86.1383 91.8133 86.1579 91.8032 86.175C91.7931 86.1921 91.7786 86.2063 91.7612 86.2159L89.9052 87.2738C89.8869 87.2785 89.8678 87.2785 89.8495 87.2738ZM88.244 86.1045L89.8495 87.0325L91.4549 86.1045L89.8495 85.1765L88.244 86.1045Z"
        fill="#07689F" />
    <path
        d="M86.1883 89.3898H86.1326L84.3045 88.3319C84.2871 88.322 84.2725 88.3078 84.262 88.2908C84.2515 88.2738 84.2453 88.2545 84.2441 88.2345C84.2439 88.2142 84.2494 88.1942 84.2601 88.177C84.2708 88.1597 84.2862 88.1459 84.3045 88.137L86.1326 87.0791C86.149 87.0677 86.1684 87.0616 86.1883 87.0616C86.2082 87.0616 86.2276 87.0677 86.244 87.0791L88.0768 88.137C88.0939 88.1469 88.108 88.1611 88.1178 88.1782C88.1276 88.1954 88.1326 88.2148 88.1325 88.2345C88.1314 88.2539 88.1258 88.2729 88.1162 88.2898C88.1065 88.3067 88.093 88.3211 88.0768 88.3319L86.244 89.3898C86.2257 89.3946 86.2066 89.3946 86.1883 89.3898ZM84.5829 88.2206L86.1883 89.1486L87.7938 88.2206L86.1883 87.2926L84.5829 88.2206Z"
        fill="#07689F" />
    <path
        d="M82.5279 91.501C82.5096 91.5052 82.4906 91.5052 82.4722 91.501L80.6162 90.4431C80.5992 90.4332 80.585 90.419 80.5752 90.4019C80.5654 90.3848 80.5604 90.3653 80.5606 90.3456C80.5616 90.3262 80.5672 90.3072 80.5769 90.2903C80.5865 90.2734 80.6 90.259 80.6162 90.2482L82.4722 89.1903C82.4893 89.1809 82.5085 89.176 82.5279 89.176C82.5474 89.176 82.5665 89.1809 82.5836 89.1903L84.4396 90.2482C84.4558 90.259 84.4693 90.2734 84.479 90.2903C84.4886 90.3072 84.4942 90.3262 84.4953 90.3456C84.4955 90.3653 84.4904 90.3848 84.4806 90.4019C84.4708 90.419 84.4567 90.4332 84.4396 90.4431L82.5836 91.501C82.5653 91.5057 82.5462 91.5057 82.5279 91.501ZM80.9225 90.3317L82.5279 91.2597L84.1334 90.3317L82.5279 89.4037L80.9225 90.3317Z"
        fill="#07689F" />
    <path
        d="M87.0886 84.7636C87.0498 84.7632 87.0117 84.7537 86.9772 84.7357L81.4835 81.5666C81.4321 81.5357 81.3946 81.486 81.379 81.428C81.3635 81.37 81.371 81.3083 81.4 81.2557C81.4308 81.2042 81.4809 81.1669 81.5391 81.1521C81.5974 81.1373 81.6591 81.1462 81.7109 81.1768L87.2 84.346C87.2435 84.37 87.2776 84.4079 87.2971 84.4536C87.3166 84.4993 87.3202 84.5503 87.3074 84.5983C87.2946 84.6463 87.2661 84.6886 87.2265 84.7186C87.1868 84.7485 87.1383 84.7644 87.0886 84.7636Z"
        fill="#E0E0E0" />
    <path
        d="M83.4412 86.8609C83.4021 86.8588 83.3639 86.8477 83.3298 86.8284L77.8407 83.6593C77.7939 83.6271 77.7608 83.5785 77.748 83.5232C77.7352 83.4678 77.7436 83.4097 77.7716 83.3602C77.7995 83.3107 77.845 83.2735 77.899 83.2559C77.953 83.2382 78.0117 83.2414 78.0634 83.2649L83.5572 86.4387C83.5825 86.4535 83.6047 86.4732 83.6225 86.4967C83.6402 86.5202 83.6531 86.5469 83.6604 86.5754C83.6677 86.6038 83.6694 86.6335 83.6652 86.6626C83.661 86.6917 83.6511 86.7197 83.6361 86.7449C83.6173 86.7803 83.5893 86.8098 83.5549 86.8302C83.5205 86.8507 83.4812 86.8613 83.4412 86.8609Z"
        fill="#E0E0E0" />
    <path
        d="M79.8074 88.9488C79.767 88.949 79.7272 88.9394 79.6914 88.921L74.2022 85.7518C74.1508 85.7209 74.1134 85.6712 74.0978 85.6132C74.0822 85.5553 74.0897 85.4935 74.1187 85.441C74.1336 85.4156 74.1533 85.3934 74.1767 85.3757C74.2002 85.358 74.2269 85.3451 74.2554 85.3377C74.2839 85.3304 74.3135 85.3288 74.3426 85.3329C74.3717 85.3371 74.3997 85.347 74.425 85.3621L79.9187 88.5312C79.9698 88.5613 80.0072 88.6101 80.0228 88.6673C80.0384 88.7245 80.031 88.7856 80.0022 88.8374C79.9825 88.8716 79.9541 88.8999 79.9199 88.9195C79.8856 88.939 79.8468 88.9491 79.8074 88.9488Z"
        fill="#E0E0E0" />
    <path d="M85.0137 35.2595L116.139 53.2256L114.306 54.2835L83.1855 36.3128L85.0137 35.2595Z"
        fill="#07689F" />
    <path opacity="0.8"
        d="M85.0137 35.2595L116.139 53.2256L114.306 54.2835L83.1855 36.3128L85.0137 35.2595Z"
        fill="white" />
    <path d="M83.1855 36.3127V72.2542L114.306 90.2203V54.2835L83.1855 36.3127Z" fill="#07689F" />
    <path opacity="0.6" d="M83.1855 36.3127V72.2542L114.306 90.2203V54.2835L83.1855 36.3127Z"
        fill="white" />
    <path
        d="M116.139 53.2256L108.808 57.4573C102.687 60.9929 97.6043 66.0775 94.071 72.2001C90.5378 78.3226 88.6784 85.2673 88.6797 92.3361V107.142L90.5078 108.196L117.967 92.3361V54.2881L116.139 53.2256Z"
        fill="#07689F" />
    <path opacity="0.6"
        d="M116.139 53.2256L108.808 57.4573C102.687 60.9929 97.6043 66.0775 94.071 72.2001C90.5378 78.3226 88.6784 85.2673 88.6797 92.3361V107.142L90.5078 108.196L117.967 92.3361V54.2881L116.139 53.2256Z"
        fill="white" />
    <path opacity="0.6"
        d="M91.6543 77.14L117.968 92.336V54.288L116.14 53.2301L108.808 57.4618C101.063 61.9339 95.028 68.8574 91.6543 77.14Z"
        fill="white" />
    <path
        d="M90.5098 108.186V93.3801C90.5099 86.3128 92.3706 79.3702 95.9047 73.25C99.4388 67.1299 104.522 62.0479 110.643 58.5151L117.969 54.2881V92.3361L90.5098 108.186Z"
        fill="#07689F" />
    <path opacity="0.8"
        d="M90.5098 108.186V93.3801C90.5099 86.3128 92.3706 79.3702 95.9047 73.25C99.4388 67.1299 104.522 62.0479 110.643 58.5151L117.969 54.2881V92.3361L90.5098 108.186Z"
        fill="white" />
    <path
        d="M102.506 77.3951L101.675 79.5295V80.7359L101.55 80.8102V79.5899L100.715 78.4206L100.873 78.3324L101.476 79.2001L101.615 79.4182L101.745 79.047L102.353 77.4787L102.506 77.3951Z"
        fill="#0988D0" />
    <path
        d="M103.583 79.6827C102.966 80.0353 102.655 79.6827 102.655 78.7547C102.621 78.3647 102.689 77.9727 102.852 77.6167C103.014 77.2606 103.266 76.9526 103.583 76.7224C104.2 76.3697 104.511 76.7734 104.511 77.6504C104.549 78.0408 104.483 78.4344 104.32 78.7913C104.157 79.1482 103.903 79.4557 103.583 79.6827ZM103.583 76.8987C103.304 77.1046 103.082 77.3786 102.939 77.6946C102.796 78.0107 102.736 78.3581 102.766 78.7036C102.766 79.4089 102.998 79.8729 103.583 79.5296C103.86 79.3308 104.081 79.0634 104.224 78.7535C104.368 78.4436 104.428 78.1019 104.399 77.7617C104.399 77.0611 104.177 76.56 103.583 76.8941V76.8987Z"
        fill="#0988D0" />
    <path
        d="M106.59 75.0426V76.6016C106.59 77.4925 106.321 78.1004 105.746 78.4344C105.17 78.7685 104.896 78.4716 104.896 77.5807V76.017L105.017 75.9474V77.525C105.017 78.2349 105.221 78.5829 105.746 78.2813C106 78.1066 106.202 77.8655 106.33 77.5842C106.458 77.3028 106.506 76.9919 106.469 76.6852V75.1122L106.59 75.0426Z"
        fill="#0988D0" />
    <path
        d="M108.734 76.6714L108.595 76.7549L108.335 76.1517C108.219 75.8733 108.043 75.813 107.736 75.9893L107.166 76.3187V77.5576L107.045 77.6272V74.7597L107.922 74.2539C108.293 74.0405 108.576 74.1333 108.576 74.6808C108.577 74.8777 108.536 75.0726 108.456 75.2526C108.376 75.4326 108.259 75.5935 108.112 75.7248C108.279 75.7248 108.386 75.8408 108.455 75.9986L108.734 76.6714ZM107.931 74.4163L107.161 74.8803V76.147V76.1749L107.903 75.748C108.072 75.6473 108.212 75.5047 108.31 75.334C108.407 75.1632 108.459 74.9702 108.46 74.7736C108.46 74.3003 108.228 74.24 107.931 74.4163Z"
        fill="#0988D0" />
    <path
        d="M97.0178 91.6585L95.2871 86.2019L96.6095 85.4409L97.3566 88.0718C97.6535 89.1065 97.7741 89.538 97.7788 89.5612H97.802C97.802 89.5287 97.9226 88.9627 98.2149 87.6171L98.9713 84.0907L100.229 83.3622L98.498 90.8187L97.0178 91.6585Z"
        fill="#07689F" />
    <path
        d="M102.841 81.7103C104.326 80.8566 105.398 81.6221 105.398 83.5941C105.398 85.5661 104.326 87.5706 102.841 88.4244C101.356 89.2782 100.289 88.5172 100.289 86.5684C100.289 84.6196 101.361 82.5919 102.841 81.7103ZM102.841 86.9581C103.28 86.6634 103.638 86.2628 103.881 85.7932C104.125 85.3236 104.246 84.8003 104.233 84.2716C104.233 83.1069 103.648 82.7079 102.841 83.1673C102.401 83.4639 102.042 83.8669 101.799 84.3389C101.555 84.811 101.435 85.3368 101.449 85.8677C101.458 87.0185 102.038 87.4221 102.841 86.9581Z"
        fill="#07689F" />
    <path
        d="M108.28 80.142V85.1579L107.12 85.8307V80.8102L105.635 81.6686V80.2302L109.76 77.8452V79.2883L108.28 80.142Z"
        fill="#07689F" />
    <path
        d="M110.363 77.4879L113.89 75.4509V76.8893L111.523 78.2535V79.3624L113.268 78.3556V79.6455L111.523 80.6524V81.8309L113.927 80.4389V81.882L110.363 83.9375V77.4879Z"
        fill="#07689F" />
    <path
        d="M100.192 94.7255L100.076 94.7905V92.2849L99.928 92.8603L99.2181 95.3241L98.5035 93.6723L98.355 93.2779V95.7927L98.2344 95.8577V92.9902L98.3457 92.9299L99.1113 94.6977L99.2227 94.9807L99.3294 94.5724L100.1 91.9184L100.206 91.8534L100.192 94.7255Z"
        fill="#0988D0" />
    <path
        d="M102.424 93.4357L102.289 93.5146L102.043 92.8975L100.837 93.5935L100.596 94.489L100.461 94.5679L101.389 91.1668L101.496 91.1018L102.424 93.4357ZM102.001 92.7583L101.537 91.5472L101.482 91.3292L101.417 91.6122L100.953 93.3754V93.4032L102.001 92.7583Z"
        fill="#0988D0" />
    <path
        d="M103.936 89.8443L103.156 90.3083V93.0041L103.035 93.0737V90.3732L102.256 90.8372V90.6888L103.936 89.6912V89.8443Z"
        fill="#0988D0" />
    <path
        d="M105.708 88.8236L104.929 89.2876V91.9835L104.808 92.0531V89.334L104.033 89.798V89.6449L105.694 88.6844L105.708 88.8236Z"
        fill="#0988D0" />
    <path
        d="M107.448 90.5356L106 91.3708V88.5033L107.448 87.6681V87.8212L106.107 88.5914V89.7607V89.7839L107.318 89.0833V89.2364L106.107 89.9371V91.111V91.1342L107.448 90.3593V90.5356Z"
        fill="#0988D0" />
    <path
        d="M109.55 89.32L109.411 89.4036L109.151 88.8004C109.035 88.522 108.859 88.4616 108.553 88.638L107.982 88.9674V90.2063L107.861 90.2759V87.4084L108.738 86.9026C109.109 86.6892 109.393 86.782 109.393 87.3295C109.393 87.5264 109.353 87.7213 109.273 87.9013C109.193 88.0812 109.075 88.2422 108.929 88.3735C109.096 88.3735 109.207 88.4895 109.272 88.6472L109.55 89.32ZM108.748 87.0696L107.977 87.5104V88.7772V88.805L108.72 88.3781C108.889 88.2774 109.029 88.1348 109.126 87.9641C109.224 87.7934 109.275 87.6003 109.277 87.4037C109.277 86.949 109.04 86.898 108.748 87.0696Z"
        fill="#0988D0" />
    <path
        d="M110.521 88.7957C110.404 88.8837 110.265 88.9366 110.119 88.9481C109.974 88.9596 109.828 88.9293 109.699 88.8607L109.797 88.6751C109.906 88.7413 110.033 88.7739 110.16 88.769C110.288 88.764 110.412 88.7217 110.516 88.6472C110.704 88.5556 110.864 88.4167 110.982 88.2443C111.1 88.0719 111.171 87.8717 111.189 87.6636C111.189 87.4037 111.04 87.2692 110.725 87.3341L110.33 87.413C109.94 87.4826 109.732 87.413 109.732 87.0418C109.75 86.7952 109.832 86.5577 109.97 86.352C110.107 86.1464 110.295 85.9796 110.516 85.8679C110.618 85.7894 110.74 85.7431 110.868 85.7349C110.996 85.7266 111.124 85.7568 111.235 85.8215L111.142 86.0025C111.051 85.9388 110.943 85.9046 110.831 85.9046C110.72 85.9046 110.612 85.9388 110.521 86.0025C110.341 86.0887 110.186 86.219 110.07 86.3812C109.954 86.5434 109.88 86.7324 109.857 86.9305C109.857 87.2367 110.07 87.2506 110.409 87.1856L110.771 87.116C111.179 87.0418 111.328 87.2274 111.328 87.5476C111.32 87.8094 111.24 88.0641 111.098 88.284C110.956 88.504 110.756 88.6809 110.521 88.7957Z"
        fill="#0988D0" />
    <path
        d="M111.383 72.1705L111.731 72.9083L112.51 72.6113L111.944 73.6646L112.079 74.6205L111.383 74.5369L110.687 75.4232L110.821 74.3142L110.26 73.9105L111.035 73.312L111.383 72.1705Z"
        fill="#07689F" />
    <path
        d="M97.9967 79.9006L97.6487 81.0421L96.8691 81.6406L97.4306 82.0443L97.3007 83.1533L97.9967 82.267L98.688 82.3506L98.5581 81.3947L99.1195 80.3414L98.3447 80.6384L97.9967 79.9006Z"
        fill="#07689F" />
    <path d="M155.635 158.359L137.822 212.582L136.068 213.598L153.881 159.37L155.635 158.359Z"
        fill="#0988D0" />
    <path d="M136.067 213.598L135.199 213.097L153.008 158.874L153.88 159.37L136.067 213.598Z"
        fill="black" />
    <path d="M160.645 199.404L159.778 198.907L142.225 165.462L143.097 165.963L160.645 199.404Z"
        fill="black" />
    <path d="M144.854 164.947L162.407 198.393L160.653 199.404L143.1 165.959L144.854 164.947Z"
        fill="#0988D0" />
    <path d="M131.063 144.169L113.25 198.392L111.496 199.404L129.309 145.181L131.063 144.169Z"
        fill="#0988D0" />
    <path d="M111.495 199.404L110.627 198.908L128.44 144.68L129.308 145.181L111.495 199.404Z"
        fill="black" />
    <path d="M136.073 185.215L135.205 184.714L117.652 151.269L118.525 151.77L136.073 185.215Z"
        fill="black" />
    <path d="M120.277 150.753L137.83 184.199L136.072 185.215L118.523 151.77L120.277 150.753Z"
        fill="#0988D0" />
    <path d="M134.319 172.042L106.229 155.825L136.073 138.592L164.168 154.809L134.319 172.042Z"
        fill="#0988D0" />
    <path d="M134.318 174.069V172.042L164.167 154.809V156.837L134.318 174.069Z" fill="#053855" />
    <path d="M134.319 174.07V172.042L106.229 155.825L106.238 157.843L134.319 174.07Z" fill="black" />
    <path d="M134.334 170.014V145.691L110.41 131.925V156.247L134.334 170.014Z" fill="#07689F" />
    <path d="M134.334 145.692L159.993 130.867V155.194L134.334 170.014V145.692Z" fill="#07689F" />
    <path opacity="0.15" d="M134.334 145.692L159.993 130.867V155.194L134.334 170.014V145.692Z"
        fill="white" />
    <path d="M134.335 145.692L109.738 131.535L136.07 116.32L160.662 130.477L134.335 145.692Z"
        fill="#07689F" />
    <path opacity="0.3"
        d="M134.335 145.692L109.738 131.535L136.07 116.32L160.662 130.477L134.335 145.692Z"
        fill="white" />
    <path d="M134.335 145.691V150.034L109.738 135.882V131.535L134.335 145.691Z" fill="#07689F" />
    <path d="M160.661 130.477L134.334 145.691V150.035L160.661 134.825V130.477Z" fill="#07689F" />
    <path opacity="0.15" d="M160.661 130.477L134.334 145.691V150.035L160.661 134.825V130.477Z"
        fill="white" />
    <path opacity="0.1"
        d="M110.434 136.268V137.223L134.357 150.99V150.035L110.434 136.268ZM160.017 135.21L134.357 150.058V151.014L160.017 136.166V135.21Z"
        fill="black" />
    <path d="M127.295 133.525L130.807 135.553L143.099 128.454L139.586 126.431L127.295 133.525Z"
        fill="#07689F" />
    <path opacity="0.2"
        d="M142.221 128.964L143.098 128.454L139.586 126.431L139.591 127.452L142.221 128.964Z"
        fill="black" />
    <path opacity="0.1"
        d="M128.177 134.031L139.586 127.442V126.431L127.295 133.525L128.177 134.031Z" fill="black" />
    <path
        d="M139.805 159.769L138.148 154.535L139.415 153.807L140.13 156.326C140.417 157.319 140.529 157.718 140.533 157.755H140.557C140.557 157.723 140.673 157.18 140.951 155.899L141.675 152.517L142.881 151.821L141.225 158.971L139.805 159.769Z"
        fill="#FAFAFA" />
    <path
        d="M145.389 150.229C146.809 149.413 147.835 150.146 147.835 152.039C147.835 153.932 146.809 155.848 145.389 156.679C143.97 157.509 142.939 156.762 142.939 154.874C142.939 152.985 143.97 151.051 145.389 150.229ZM145.389 155.264C145.809 154.98 146.151 154.594 146.383 154.144C146.615 153.693 146.73 153.191 146.716 152.684C146.716 151.57 146.16 151.185 145.389 151.626C144.968 151.911 144.626 152.298 144.394 152.75C144.162 153.203 144.048 153.707 144.062 154.215C144.062 155.319 144.619 155.709 145.389 155.264Z"
        fill="#FAFAFA" />
    <path
        d="M150.606 148.721V153.533L149.487 154.178V149.366L148.072 150.188V148.796L152.021 146.513V147.905L150.606 148.721Z"
        fill="#FAFAFA" />
    <path
        d="M152.602 146.193L155.984 144.239V145.631L153.715 146.94V148.002L155.386 147.037V148.276L153.715 149.241V150.373L156.035 149.042V150.434L152.62 152.406L152.602 146.193Z"
        fill="#FAFAFA" />
    <path
        d="M142.695 127.006L141.59 129.308L130.807 135.553L128.557 134.254L134.598 121.498L142.695 127.006Z"
        fill="#FAFAFA" />
    <path
        d="M198.124 163.982C198.337 165.031 198.731 166.242 199.052 168.381C199.372 170.52 198.875 170.608 200.416 175.972C201.344 179.187 201.172 180.468 199.024 183.182C196.704 186.092 194.296 185.502 192.718 182.282C191.372 179.531 191.451 178.25 191.447 175.397C191.442 172.543 191.414 171.712 191.27 169.448C191.145 167.453 191.326 166.089 191.191 164.562L198.124 163.982Z"
        fill="#053855" />
    <path
        d="M198.84 171.8C198.409 169.016 198.307 166.172 198.149 164.302C197.796 160.126 198.729 151.844 198.075 145.547L186.424 144.485C186.814 146.939 190.034 158.038 191.203 164.738C191.203 164.738 191.667 173.833 192.303 177.837C192.33 177.961 192.385 178.077 192.463 178.177C192.541 178.277 192.64 178.358 192.753 178.415C192.866 178.472 192.991 178.503 193.118 178.506C193.244 178.508 193.37 178.483 193.486 178.431C195.164 177.759 197.014 177.646 198.762 178.111C198.884 178.157 199.015 178.174 199.145 178.16C199.275 178.145 199.4 178.101 199.509 178.029C199.619 177.958 199.71 177.862 199.775 177.748C199.84 177.635 199.878 177.508 199.884 177.378C199.861 175.898 199.165 173.874 198.84 171.8Z"
        fill="#B16668" />
    <path
        d="M165.413 142.234C165.845 150.818 165.933 157.366 165.84 161.064C165.844 162.892 165.499 164.705 164.824 166.404C164.207 167.973 163.135 170.237 162.244 171.235C162.244 171.235 159.372 174.311 159.924 174.598C160.476 174.886 166.397 175.253 168.74 174.598C171.083 173.944 171.988 171.972 172.879 168.376C173.77 164.78 174.568 159.514 174.568 159.514C174.464 159.32 174.388 159.112 174.34 158.897C174.057 157.843 175.18 152.572 175.487 149.951L165.413 142.234Z"
        fill="#B16668" />
    <path
        d="M176.674 164.813C176.581 165.704 175.909 166.757 175.681 168.149C175.414 169.735 175.306 171.344 175.356 172.951C175.408 174.919 175.412 175.197 175.412 175.197H174.804C174.804 175.197 174.73 172.357 174.702 171.109C174.674 169.861 174.071 168.766 173.473 168.645C173.473 168.659 173.723 164.887 176.674 164.813Z"
        fill="black" />
    <path
        d="M174.489 159.027C174.841 160.033 175.751 161.347 176.275 162.321C176.585 162.881 176.777 163.498 176.837 164.135C176.832 164.474 176.757 164.809 176.617 165.117C176.477 165.426 176.276 165.703 176.025 165.931C175.537 166.395 175.185 166.78 174.6 167.323C173.38 168.446 172.869 169.434 172.057 172.037C171.593 173.587 170.8 174.993 169.426 175.749C168.355 176.334 165.413 177.327 161.798 177.174C158.796 177.048 157.622 175.74 158.787 174.612C159.952 173.485 161.896 171.485 162.244 171.248C163.335 171.253 164.415 171.465 165.427 171.875C167.088 172.636 167.598 173.624 169.38 172.803C170.995 172.042 171.849 169.262 171.988 164.841C172.141 159.992 174.489 159.027 174.489 159.027Z"
        fill="#053855" />
    <path
        d="M189.995 83.9097C190.204 85.0047 190.436 86.0255 190.835 86.5684C193.266 89.8906 195.748 93.9089 196.231 100.126C197.4 115.128 197.451 129.614 197.451 129.614C197.572 130.936 199.159 133.79 198.959 141.784C198.806 147.816 198.365 157.036 198.365 157.036C198.365 157.036 193.066 159.189 189.299 157.792C187.744 152.057 185.257 138.411 183.731 131.841C182.111 124.923 180.998 116.571 180.998 116.571L177.671 129.563C178.183 132.58 178.314 135.649 178.061 138.699C177.634 142.731 175.045 154.814 175.045 154.814C175.045 154.814 168.753 156.164 165.5 153.946C165.5 153.946 164.711 133.869 164.651 129.437C164.591 125.006 163.899 100.586 166.539 88.9812C166.66 88.443 167.027 84.7727 167.027 84.7727C170.205 87.3572 185.791 86.7911 189.995 83.9097Z"
        fill="#053855" />
    <path
        d="M198.469 154.814C196.84 156.331 190.706 156.818 188.725 155.788L189.518 159.036C191.036 159.639 192.68 159.856 194.302 159.667C197.183 159.384 198.371 158.099 198.371 158.099L198.469 154.814Z"
        fill="#0988D0" />
    <path
        d="M175.49 152.809C173.792 153.394 167.212 152.995 165.338 151.881L165.454 154.572C167.182 155.313 169.009 155.795 170.878 156.001C173.746 156.271 174.971 155.454 174.971 155.454L175.49 152.809Z"
        fill="#0988D0" />
    <path
        d="M180.985 116.571L178.929 101.746C177.486 101.78 176.054 101.48 174.746 100.87C173.437 100.26 172.287 99.356 171.385 98.2288C171.385 98.2288 171.311 101.941 177.417 103.569L179.83 117.23L177.644 129.553L180.985 116.571Z"
        fill="black" />
    <path
        d="M153.185 74.1472C151.464 72.8526 150.155 71.8875 148.165 68.7091C147.61 67.9568 146.961 67.2785 146.235 66.6907C145.543 66.0332 144.976 65.2568 144.56 64.3985C144.379 63.967 143.279 64.431 143.492 65.9251C143.655 67.0341 144.328 68.0456 144.597 68.6766C144.012 68.6766 143.075 68.5977 141.813 68.6766C140.551 68.7555 138.022 68.6209 138.486 70.0686C138.588 70.3934 138.852 70.6672 138.862 70.9966C138.851 71.1535 138.824 71.3089 138.783 71.4606C138.727 71.7638 138.754 72.0764 138.861 72.3655C138.968 72.6546 139.151 72.9095 139.391 73.1032C139.51 73.175 139.613 73.2715 139.692 73.3862C139.822 73.6368 139.725 73.943 139.78 74.2075C139.852 74.51 140.004 74.7875 140.221 75.0102C140.532 75.3443 140.634 75.2283 140.945 75.5624C141.149 75.7805 141.191 76.263 141.669 76.5832C142.026 76.8198 142.885 76.8476 143.799 76.8337C144.713 76.8198 145.232 77.1214 146.448 77.0843C147.404 77.0565 148.304 77.5947 149.896 79.228C153.459 82.6245 153.914 83.7334 157.111 86.3272C157.393 86.5606 157.687 86.779 157.992 86.9814C161.018 89.0648 162.215 87.4454 164.604 83.2369C167.541 78.0633 169.063 75.1309 169.063 75.1309L173.778 61.0763C170.873 61.4057 167.458 64.6909 164.878 68.4168C163.667 70.166 158.651 77.8685 158.651 77.8685C156.944 76.8059 154.911 75.4417 153.185 74.1472Z"
        fill="#B16668" />
    <path
        d="M143.038 69.535C143.166 69.5704 143.29 69.617 143.409 69.6742C143.533 69.7343 143.646 69.8142 143.743 69.9109H143.706C144.287 69.7985 144.889 69.892 145.409 70.1754C145.539 70.2549 145.655 70.3552 145.752 70.4723C145.862 70.6014 145.918 70.7673 145.91 70.9363C145.905 71.0258 145.876 71.1123 145.827 71.1869C145.764 71.2561 145.681 71.3046 145.59 71.3261C145.441 71.3586 145.307 71.3771 145.168 71.405C144.894 71.4606 144.625 71.5534 144.342 71.6184C144.056 71.6837 143.762 71.7056 143.469 71.6834C142.896 71.6414 142.33 71.5276 141.785 71.3446C142.063 71.409 142.345 71.4524 142.63 71.4746C142.913 71.507 143.191 71.5395 143.474 71.5442C143.752 71.5477 144.029 71.5181 144.3 71.456C144.574 71.391 144.843 71.2936 145.126 71.2286C145.27 71.1962 145.418 71.173 145.544 71.1405C145.669 71.108 145.706 71.0616 145.725 70.9224C145.748 70.6904 145.539 70.4584 145.316 70.3285C144.831 70.0515 144.27 69.9361 143.715 69.999H143.692C143.61 69.9019 143.511 69.8202 143.4 69.7578C143.286 69.6733 143.165 69.5988 143.038 69.535Z"
        fill="#9A4A4D" />
    <path
        d="M145.023 71.3262C145.145 71.2858 145.276 71.2861 145.397 71.3272C145.519 71.3682 145.624 71.4477 145.696 71.5536C145.766 71.6683 145.801 71.8014 145.796 71.936C145.791 72.0705 145.747 72.2007 145.668 72.3099C145.426 72.7626 145.048 73.1278 144.587 73.3539C144.341 73.4298 144.083 73.4612 143.826 73.4467C143.578 73.4467 143.332 73.4374 143.088 73.4189C142.596 73.3864 142.109 73.3539 141.617 73.2982C142.109 73.275 142.601 73.2704 143.093 73.2657C143.571 73.3061 144.053 73.2748 144.522 73.1729C144.735 73.0781 144.93 72.9461 145.097 72.7832C145.269 72.6159 145.424 72.4326 145.561 72.2357C145.634 72.1482 145.679 72.0413 145.692 71.9283C145.704 71.8153 145.683 71.7011 145.631 71.6C145.573 71.4943 145.483 71.4104 145.373 71.361C145.263 71.3116 145.14 71.2994 145.023 71.3262Z"
        fill="#9A4A4D" />
    <path
        d="M144.812 73.1265C144.917 73.0793 145.032 73.0549 145.148 73.0549C145.264 73.0549 145.378 73.0793 145.484 73.1265C145.54 73.1554 145.589 73.1961 145.628 73.2458C145.666 73.2955 145.693 73.3529 145.707 73.4142C145.728 73.5339 145.728 73.6564 145.707 73.7761C145.627 73.9983 145.491 74.1963 145.313 74.3515C145.159 74.5342 144.965 74.6787 144.747 74.7737C144.519 74.8175 144.286 74.83 144.055 74.8109C143.838 74.8244 143.621 74.8492 143.406 74.8851C142.969 74.9547 142.529 75.0289 142.088 75.0893C142.515 74.9501 142.942 74.8387 143.378 74.7413C143.599 74.6866 143.824 74.6509 144.051 74.6345C144.264 74.6463 144.477 74.6307 144.686 74.5881C144.878 74.5079 145.049 74.3859 145.187 74.2309C145.346 74.0955 145.474 73.9278 145.563 73.739C145.582 73.6394 145.582 73.5371 145.563 73.4374C145.557 73.3896 145.54 73.3439 145.514 73.3037C145.487 73.2634 145.452 73.2298 145.41 73.2054C145.228 73.1032 145.014 73.0749 144.812 73.1265Z"
        fill="#9A4A4D" />
    <path
        d="M144.903 74.5833C144.949 74.6007 144.991 74.6274 145.026 74.6617C145.061 74.6961 145.089 74.7373 145.107 74.7828C145.144 74.8773 145.155 74.9796 145.14 75.0797C145.099 75.2633 145.035 75.4411 144.95 75.6087C144.903 75.6918 144.852 75.7724 144.797 75.85C144.739 75.9314 144.665 75.9995 144.579 76.0495C144.423 76.1487 144.257 76.2282 144.082 76.2861L144.49 75.9288C144.553 75.8767 144.608 75.8157 144.653 75.7479C144.699 75.6747 144.741 75.5987 144.778 75.5205C144.862 75.3721 144.933 75.2169 144.991 75.0565C145.027 74.9781 145.037 74.8907 145.021 74.8061C145.006 74.7215 144.964 74.6438 144.903 74.5833Z"
        fill="#9A4A4D" />
    <path
        d="M145.818 70.9131C145.744 71.7254 145.991 72.5344 146.506 73.1668C147.021 73.7991 147.764 74.2044 148.575 74.2956C147.98 74.3143 147.39 74.1851 146.858 73.9198C146.417 73.7142 146.03 73.4074 145.73 73.0243L145.642 73.3955C145.526 73.2006 145.47 73.0336 144.941 73.0846C145.179 72.8642 145.388 72.6148 145.563 72.3422C145.721 72.036 145.948 71.5534 145.299 71.2657C145.434 71.2491 145.567 71.2148 145.693 71.1636C145.742 71.1457 145.782 71.1098 145.805 71.0632C145.829 71.0167 145.833 70.9629 145.818 70.9131Z"
        fill="#9A4A4D" />
    <path
        d="M174.172 60.6726C170.061 61.4243 168.604 61.4568 164.363 68.324C161.75 72.5417 158.577 77.6875 158.577 77.6875L155.533 75.8315C156.099 76.4022 157.208 79.3393 156.461 81.1489C155.981 82.2583 155.129 83.1656 154.053 83.7148C155.095 84.802 156.21 85.8174 157.389 86.7541C159.041 88.0115 159.918 88.2017 160.92 87.9048C161.922 87.6078 162.901 86.5128 165.333 83.6313C167.834 80.6664 170.761 76.3001 170.761 76.3001L174.172 60.6726Z"
        fill="#07689F" />
    <path opacity="0.55"
        d="M174.172 60.6726C170.061 61.4243 168.604 61.4568 164.363 68.324C161.75 72.5417 158.577 77.6875 158.577 77.6875L155.533 75.8315C156.099 76.4022 157.208 79.3393 156.461 81.1489C155.981 82.2583 155.129 83.1656 154.053 83.7148C155.095 84.802 156.21 85.8174 157.389 86.7541C159.041 88.0115 159.918 88.2017 160.92 87.9048C161.922 87.6078 162.901 86.5128 165.333 83.6313C167.834 80.6664 170.761 76.3001 170.761 76.3001L174.172 60.6726Z"
        fill="white" />
    <path opacity="0.35"
        d="M158.578 77.6875C160.197 78.6758 161.752 80.7731 162.026 82.012C162.02 80.9703 161.751 79.9471 161.242 79.0381C160.733 78.1292 160.002 77.3643 159.116 76.8152L158.578 77.6875Z"
        fill="#07689F" />
    <path opacity="0.35"
        d="M155.564 85.1348C155.836 84.9913 156.093 84.8203 156.33 84.6244C156.815 84.2395 157.224 83.7674 157.536 83.2324C158.122 82.1895 158.347 80.9826 158.177 79.7988C158.177 79.7385 158.232 79.7385 158.246 79.7988C158.555 81.0602 158.358 82.3922 157.699 83.5108C157.363 84.0692 156.927 84.5614 156.414 84.9631C156.205 85.1239 155.984 85.2697 155.755 85.3993L155.527 85.1951L155.564 85.1348Z"
        fill="#07689F" />
    <path
        d="M183.188 58.9977L189.758 61.0393C190.885 61.4244 195.15 64.0274 193.66 70.4399C193.168 72.565 192.496 75.5439 191.888 78.5182C191.424 80.7918 193.127 85.1673 194.5 92.1366C194.5 92.1366 188.867 96.6188 177.671 95.3567C169.129 94.3916 165.918 90.7167 165.918 90.7167C165.834 84.0676 167.245 79.8591 167.876 77.3257C167.876 77.3257 166.92 76.1332 166.864 73.4281C166.813 70.593 168.516 68.1106 171.04 64.8998C172.398 63.1422 173.955 61.5478 175.68 60.1484L183.188 58.9977Z"
        fill="#FAFAFA" />
    <path
        d="M168.545 50.9891C168.262 50.0611 167.195 49.959 166.967 48.6691C166.74 47.3792 167.431 46.544 168.461 45.9779C169.491 45.4118 169.71 44.3864 169.501 42.2659C169.292 40.1454 170.805 38.8694 172.554 38.6096C173.417 38.4843 174.41 38.5724 175.027 37.9414C175.264 37.6394 175.459 37.307 175.607 36.9531C176.442 35.4126 177.992 34.7398 180.066 34.7537C180.997 34.7422 181.921 34.9157 182.785 35.2641C183.778 35.6428 184.674 36.2389 185.407 37.0088C186.543 36.8278 188.683 37.0737 189.843 38.0945C190.348 38.4537 190.776 38.9106 191.102 39.4382C191.428 39.9658 191.645 40.5534 191.74 41.1662C191.935 42.4236 191.819 43.1382 192.362 43.8203C193.466 45.2123 194.844 45.2123 195.471 46.3816C196.362 48.052 194.167 49.4857 195.285 51.4856C195.518 51.8772 195.659 52.3161 195.699 52.7698C195.738 53.2235 195.675 53.6803 195.515 54.1063C195.354 54.5324 195.099 54.9168 194.769 55.231C194.44 55.5452 194.043 55.7811 193.61 55.9214C192.636 56.2926 191.801 55.7915 190.409 56.3112C189.017 56.8308 188.961 57.8934 187.188 58.6312C185.741 59.2112 184.502 58.1672 183.328 58.014C181.723 57.8284 182.238 58.3574 180.655 57.3412C180.112 56.9932 179.788 56.3715 179.24 56.0281C177.505 54.9888 176.92 55.5641 174.832 56.3065C174.285 56.506 172.466 57.0118 171.227 55.6384C170.486 54.7382 170.103 53.5968 170.15 52.4321C169.798 53.5921 167.134 53.5689 166.865 51.7268C166.984 51.914 167.166 52.0524 167.378 52.117C167.59 52.1815 167.819 52.168 168.022 52.0788C168.225 51.9897 168.389 51.8307 168.485 51.6308C168.581 51.4309 168.602 51.2033 168.545 50.9891Z"
        fill="black" />
    <path
        d="M185.7 57.5825C185.7 56.5246 185.913 53.8334 185.913 53.8334C186.303 54.8264 188.103 54.8635 188.985 53.6385C190.098 52.0888 190.094 50.2467 189.337 49.1238C188.497 47.8803 186.502 47.8478 185.625 49.7734C184.308 50.0193 183.811 48.0009 184.892 46.1496C184.915 41.7276 178.907 43.2171 177.696 39.2452C176.657 39.4364 175.676 39.8633 174.828 40.4932C173.98 41.1231 173.288 41.939 172.805 42.8784C172.341 43.862 172.262 44.4652 172.373 46.4558C172.415 47.2307 171.882 48.1308 171.729 49.1563C171.019 53.8566 172.401 55.7312 173.942 56.6452C174.763 57.1092 175.83 57.448 177.793 57.5732C177.793 57.5732 177.756 58.4548 177.719 59.0395C177.682 59.6241 177.617 59.8793 176.911 59.9675C176.67 60 176.401 60.0185 176.401 60.0185C176.401 60.0185 173.153 63.016 177.431 63.8001C183.816 64.9694 186.368 61.0764 186.651 60.0881C185.667 59.884 185.653 59.355 185.7 57.5825Z"
        fill="#B16668" />
    <path
        d="M179.695 52.4321L177.338 53.0632C177.369 53.2229 177.433 53.3745 177.525 53.5087C177.617 53.6429 177.736 53.7569 177.874 53.8438C178.011 53.9306 178.165 53.9885 178.326 54.0139C178.487 54.0392 178.651 54.0315 178.809 53.9912C179.132 53.9001 179.406 53.6854 179.572 53.3936C179.738 53.1018 179.782 52.7563 179.695 52.4321Z"
        fill="#9A4A4D" />
    <path
        d="M179.523 52.9517C179.213 52.9286 178.905 53.0136 178.652 53.1921C178.398 53.3707 178.214 53.6317 178.131 53.9308C178.351 54.0008 178.588 54.0008 178.808 53.9308C179.033 53.8669 179.235 53.742 179.392 53.5699C179.549 53.3978 179.656 53.1854 179.699 52.9564C179.639 52.9703 179.565 52.9564 179.523 52.9517Z"
        fill="#F28F8F" />
    <path
        d="M173.556 45.3098L175.286 44.5906C175.244 44.4769 175.179 44.373 175.095 44.2852C175.012 44.1974 174.911 44.1275 174.8 44.0798C174.688 44.0321 174.568 44.0075 174.447 44.0076C174.325 44.0076 174.205 44.0323 174.094 44.0802C173.865 44.1789 173.682 44.3607 173.583 44.5889C173.483 44.8171 173.473 45.0748 173.556 45.3098Z"
        fill="black" />
    <path
        d="M181.977 45.885L180.297 45.0081C180.352 44.8977 180.428 44.7992 180.521 44.7185C180.614 44.6378 180.722 44.5765 180.839 44.538C180.956 44.4996 181.08 44.4848 181.202 44.4946C181.325 44.5044 181.445 44.5386 181.554 44.5951C181.774 44.718 181.939 44.9188 182.017 45.1577C182.095 45.3967 182.081 45.6563 181.977 45.885Z"
        fill="black" />
    <path
        d="M177.784 57.5639C180.767 57.4062 184.127 56.3529 185.208 54.7335C185.208 54.7335 184.772 56.3807 183.56 57.0767C181.782 58.0504 179.783 58.552 177.756 58.5337L177.784 57.5639Z"
        fill="#9A4A4D" />
    <path
        d="M180.985 47.8988C180.986 48.0559 180.94 48.2098 180.854 48.3409C180.767 48.4719 180.644 48.5744 180.499 48.6351C180.354 48.6959 180.194 48.7123 180.04 48.6822C179.886 48.6521 179.744 48.5769 179.632 48.4661C179.521 48.3553 179.445 48.214 179.414 48.0599C179.383 47.9059 179.398 47.7461 179.458 47.6009C179.518 47.4556 179.62 47.3314 179.751 47.244C179.881 47.1566 180.035 47.11 180.192 47.11C180.402 47.11 180.603 47.1929 180.751 47.3407C180.9 47.4885 180.984 47.6892 180.985 47.8988Z"
        fill="black" />
    <path
        d="M175.286 47.5323C175.286 47.6895 175.239 47.8431 175.152 47.9736C175.065 48.1042 174.94 48.2059 174.795 48.2658C174.65 48.3257 174.49 48.3412 174.336 48.3102C174.182 48.2792 174.041 48.2032 173.93 48.0917C173.819 47.9803 173.744 47.8385 173.714 47.6843C173.684 47.5301 173.7 47.3704 173.761 47.2255C173.822 47.0806 173.924 46.957 174.055 46.8704C174.186 46.7837 174.34 46.738 174.497 46.7389C174.601 46.7389 174.704 46.7595 174.8 46.7994C174.896 46.8393 174.983 46.8978 175.057 46.9716C175.13 47.0453 175.188 47.1328 175.227 47.2291C175.267 47.3253 175.287 47.4284 175.286 47.5323Z"
        fill="black" />
    <path d="M174.363 50.6319L176.915 51.713L177.588 46.6229L174.363 50.6319Z" fill="#9A4A4D" />
    <path
        d="M187.955 53.1697C187.949 53.2551 187.926 53.3383 187.887 53.4146C187.849 53.491 187.795 53.559 187.731 53.6148C187.666 53.6706 187.591 53.7131 187.509 53.7398C187.428 53.7666 187.342 53.777 187.257 53.7706C187.172 53.7642 187.088 53.7411 187.012 53.7025C186.936 53.664 186.868 53.6108 186.812 53.5459C186.756 53.4811 186.714 53.4059 186.687 53.3246C186.66 53.2434 186.65 53.1576 186.656 53.0723C186.669 52.9 186.75 52.7399 186.881 52.6272C187.012 52.5146 187.182 52.4585 187.354 52.4714C187.527 52.4844 187.687 52.5652 187.8 52.6961C187.912 52.8271 187.968 52.9975 187.955 53.1697Z"
        fill="#EBEBEB" />
    <path
        d="M177.659 59.4385C177.353 59.5498 175.302 60.1994 174.175 60.6727C171.489 62.8422 169.243 65.5055 167.558 68.519C166.379 70.7601 165.767 72.695 165.702 76.3513C165.651 79.5297 165.266 88.9721 164.635 94.2246C164.978 95.4542 168.412 96.9158 168.412 96.9158C168.588 92.1922 168.672 77.3906 169.692 72.3702C170.903 66.4124 176.239 60.9697 177.483 60.1159L177.659 59.4385Z"
        fill="#07689F" />
    <path
        d="M185.704 59.0719V60.0463C182.753 67.7209 183.333 71.238 183.708 76.2863C184.604 88.3503 186.028 98.7717 186.028 98.7717C186.028 98.7717 194.455 98.8599 197.457 94.7999C197.457 94.7999 194.756 88.7029 193.745 82.5457C193.146 78.894 194.849 71.4097 194.209 66.1247C193.949 63.9161 193.114 61.7121 191.457 61.1924C190.088 60.7609 188.901 60.4129 188.901 60.4129L185.704 59.0719Z"
        fill="#07689F" />
    <path
        d="M196.178 101.305C197.515 101.686 199.217 100.025 199.686 99.4492C200.155 98.8738 199.552 97.5004 199.268 96.345C198.985 95.1897 199.268 93.2362 197.839 93.7837C196.41 94.3313 193.399 98.1917 196.178 101.305Z"
        fill="#9A4A4D" />
    <path
        d="M191.724 61.4847C196.049 62.3849 196.471 62.255 198.513 66.3614C200.893 71.1406 204.261 78.9451 205.111 80.7454C205.96 82.5457 206.781 83.8959 204.493 86.7031C202.457 89.2041 196.438 96.4054 195.543 97.4355C194.754 98.3635 195.64 101.036 198.355 100.646C198.355 100.646 196.29 102.475 195.153 102.27C194.174 102.099 191.701 100.591 190.286 97.6303C189.395 95.7743 190.142 94.2849 191.497 92.1969C193.116 89.7052 197.125 83.0375 197.125 83.0375L191.163 71.1267C191.163 71.1267 188.564 64.7791 191.724 61.4847Z"
        fill="#B16668" />
    <path
        d="M191.464 61.1925C190.416 62.2365 188.75 66.1527 191.07 71.8135L196.912 83.0562L194.309 87.2322C194.309 87.2322 196.165 89.6496 197.728 90.7539C198.153 91.0745 198.641 91.3024 199.16 91.4231C199.678 91.5437 200.217 91.5545 200.74 91.4546C200.74 91.4546 204.085 87.7426 205.268 86.1139C206.451 84.4853 206.66 84.0167 205.152 80.3603C203.695 76.8339 199.065 66.097 198.072 64.4544C197.079 62.8119 195.803 61.7122 191.464 61.1925Z"
        fill="#07689F" />
    <path opacity="0.55"
        d="M191.464 61.1925C190.416 62.2365 188.75 66.1527 191.07 71.8135L196.912 83.0562L194.309 87.2322C194.309 87.2322 196.165 89.6496 197.728 90.7539C198.153 91.0745 198.641 91.3024 199.16 91.4231C199.678 91.5437 200.217 91.5545 200.74 91.4546C200.74 91.4546 204.085 87.7426 205.268 86.1139C206.451 84.4853 206.66 84.0167 205.152 80.3603C203.695 76.8339 199.065 66.097 198.072 64.4544C197.079 62.8119 195.803 61.7122 191.464 61.1925Z"
        fill="white" />
    <path opacity="0.35"
        d="M198.122 87.6173C197.684 87.2816 197.273 86.9123 196.892 86.513C196.518 86.1266 196.175 85.7107 195.867 85.2695C195.816 85.1952 195.756 85.0885 195.709 85.0096L195.51 85.3252C195.546 85.376 195.581 85.4286 195.612 85.4829C195.922 85.921 196.263 86.3366 196.633 86.7264C197.009 87.1238 197.417 87.4901 197.853 87.8215C198.307 88.1995 198.811 88.5119 199.352 88.7495C199.5 88.8052 199.509 88.601 199.417 88.5314C198.971 88.2066 198.521 87.9375 198.122 87.6173Z"
        fill="#07689F" />
    <path
        d="M74.8206 178.246C75.1825 178.213 75.1918 179.095 74.9644 179.517C74.3241 180.733 72.5331 182.041 69.9115 182.621C67.2899 183.201 62.1627 182.51 60.6315 182.45C59.1003 182.389 56.3951 183.183 54.8454 183.429C52.0243 183.893 50.094 183.104 49.1707 182.199C49.0189 182.015 48.9064 181.802 48.8402 181.573C48.7739 181.344 48.7553 181.104 48.7855 180.867C48.8134 179.796 48.9062 179.577 49.0268 179.587L74.8206 178.246Z"
        fill="#053855" />
    <path
        d="M49.3077 176.459C49.0369 177.729 48.9525 179.031 49.0572 180.324C49.3866 181.122 50.2589 181.577 50.9549 181.795C52.8109 182.375 54.6112 182.259 56.6389 181.832C57.945 181.497 59.2905 181.341 60.6386 181.368C62.244 181.457 65.7844 181.832 67.3944 181.832C68.897 181.855 70.3881 181.568 71.7746 180.988C72.8372 180.491 74.4472 179.401 74.8092 178.575C75.1572 176.65 74.9576 175.499 73.8487 174.863C72.7397 174.227 70.9904 174.033 68.6704 173.856C67.9791 173.805 67.1021 173.763 66.7309 173.722C65.3389 173.569 64.0165 173.466 62.954 173.397C62.0484 173.405 61.1527 173.21 60.3324 172.826C59.9543 172.657 59.6485 172.36 59.4693 171.986C59.2466 171.494 59.2512 170.775 58.8197 170.734C58.8197 170.734 50.8853 172.084 50.245 172.149C49.5119 172.223 49.9944 173.286 49.3077 176.459Z"
        fill="#0988D0" />
    <path
        d="M67.3578 173.652C67.5978 173.841 67.7967 174.076 67.9424 174.344C68.1026 174.636 68.2243 174.948 68.3044 175.272C68.4111 175.675 67.91 175.736 67.7151 175.272C67.57 174.884 67.38 174.515 67.149 174.172C66.9833 173.932 66.7386 173.758 66.4576 173.68L66.0586 173.638C66.1653 173.351 67.0469 173.448 67.3578 173.652Z"
        fill="#FAFAFA" />
    <path
        d="M63.7755 173.235C63.909 173.216 64.0451 173.227 64.1741 173.266C64.3031 173.305 64.422 173.372 64.5225 173.462C64.783 173.683 64.9773 173.972 65.084 174.297C65.2226 174.687 65.3296 175.087 65.4041 175.494C65.432 175.754 64.8195 175.745 64.7545 175.462C64.6896 175.179 64.5504 174.664 64.439 174.371C64.3694 174.19 64.0539 173.508 63.6316 173.443H63.4414C63.4414 173.351 63.5574 173.29 63.6409 173.272C63.6844 173.255 63.7295 173.242 63.7755 173.235Z"
        fill="#FAFAFA" />
    <path
        d="M61.6742 173.17C61.8549 173.204 62.0185 173.299 62.1382 173.439C62.2813 173.63 62.3926 173.843 62.4677 174.07C62.5943 174.485 62.6568 174.917 62.6533 175.35C62.6533 175.685 62.0501 175.596 62.0315 175.35C61.9666 174.645 61.9666 174.181 61.6278 173.666C61.5011 173.442 61.321 173.252 61.1035 173.114C61.1035 173.054 61.2102 173.044 61.2706 173.058C61.407 173.088 61.5418 173.125 61.6742 173.17Z"
        fill="#FAFAFA" />
    <path
        d="M49.3555 163.602C49.3555 163.602 50.0422 170.901 50.2139 172.585C50.2695 173.123 51.2903 173.341 51.8147 173.569C52.4696 173.813 53.0795 174.164 53.6196 174.608C54.9513 175.93 55.9396 176.241 56.7609 173.921C56.7877 173.809 56.8381 173.704 56.9087 173.613C56.9793 173.522 57.0684 173.447 57.1703 173.393C57.2721 173.339 57.3843 173.307 57.4993 173.3C57.6143 173.293 57.7296 173.31 57.8374 173.351C58.2847 173.504 58.7572 173.57 59.2294 173.546C59.299 173.499 59.2572 173.392 59.2294 173.323C59.0227 173.065 58.8741 172.766 58.794 172.446C58.7139 172.125 58.7042 171.791 58.7654 171.467C58.9927 168.479 59.118 165.486 59.2897 162.493L49.3555 163.602Z"
        fill="#FFBDA7" />
    <path
        d="M23.7988 158.247C24.7268 156.739 25.0377 153.937 25.7151 148.731L34.2945 153.153L30.6243 162.164C30.4728 162.555 30.3564 162.958 30.2763 163.37C29.2323 164.85 23.7988 158.247 23.7988 158.247Z"
        fill="#FFBDA7" />
    <path
        d="M20.9481 161.472C20.9481 161.384 20.911 160.669 20.9481 160.586C21.1477 159.82 21.6209 159.607 22.2288 159.194C22.8383 158.783 23.3974 158.302 23.8945 157.76C24.0987 157.477 24.1358 157.333 24.4513 157.203C24.9896 156.985 25.8433 156.967 26.9198 157.528C28.6691 158.456 29.2027 159.551 29.1006 160.748C29.0264 161.676 28.9475 162.873 29.7549 163.416C30.0889 163.644 30.6179 162.182 30.6179 162.182C31.1144 163.017 30.4184 164.168 30.0518 165.852C29.842 166.784 29.8262 167.749 30.0054 168.687C30.1817 170.168 30.3859 170.158 31.1701 170.265C31.8475 170.353 33.7685 170.223 34.9331 171.04C36.5432 172.163 36.1117 173.657 36.1117 173.657C35.9029 174.228 34.1536 176.984 27.7597 175.954C25.9037 175.657 22.0061 172.743 22.0664 172.469C22.0988 172.19 22.0988 171.908 22.0664 171.629C22.0664 170.98 22.0153 170.325 21.9875 169.671C22.0079 169.05 21.9707 168.429 21.8761 167.815C21.7597 167.308 21.6806 166.793 21.6395 166.275C21.5189 164.961 21.3936 163.648 21.2729 162.335C21.2265 161.936 20.8785 161.839 20.9481 161.472Z"
        fill="#0988D0" />
    <path
        d="M20.1413 161.208C19.5102 161.816 19.8954 163.588 20.7398 165.713C21.1157 166.641 21.8117 168.274 21.6075 170.001C21.4034 171.727 21.3662 172.539 21.8117 173.351C22.5077 174.613 26.2243 176.232 28.4144 176.738C27.0893 174.882 26.3171 172.69 26.1872 170.413C25.9645 166.604 25.6768 164.149 23.9368 162.465C21.7328 160.326 20.1413 161.208 20.1413 161.208Z"
        fill="black" />
    <path
        d="M36.1115 173.638C36.1115 173.638 34.8309 176.042 29.8846 175.958C27.9358 175.926 26.8965 174.979 26.8454 172.019C26.7897 168.451 26.5021 164.85 25.3513 163.082C24.2006 161.314 22.3585 160.451 20.9341 160.577C20.6004 160.679 20.3173 160.902 20.1406 161.203C20.1406 161.203 21.5651 160.739 23.7877 162.595C25.4256 163.955 25.8664 166.794 25.8432 170.321C25.8432 171.838 25.7411 173.569 26.1865 174.71C26.3912 175.216 26.7113 175.667 27.1214 176.027C27.5315 176.387 28.0201 176.647 28.5483 176.784C31.2349 177.536 34.9144 176.292 35.847 175.156C36.0033 174.939 36.1084 174.69 36.1542 174.427C36.2 174.164 36.1854 173.895 36.1115 173.638Z"
        fill="#053855" />
    <path
        d="M30.1582 169.597C30.3585 169.738 30.5004 169.948 30.5572 170.186C30.5781 170.491 30.5167 170.795 30.3796 171.068C30.2425 171.34 30.0346 171.571 29.7777 171.736C29.4807 171.922 29.2209 171.857 29.6942 171.23C29.9985 170.74 30.1593 170.174 30.1582 169.597Z"
        fill="#FAFAFA" />
    <path
        d="M29.9043 167.75C29.9043 167.75 30.0621 167.852 30.1038 168.349C30.1038 168.613 29.7094 169.685 29.1758 169.94C28.6422 170.196 28.9392 169.592 29.1758 169.3C29.5333 168.845 29.7824 168.315 29.9043 167.75Z"
        fill="#FAFAFA" />
    <path
        d="M30.0803 165.713C30.0803 165.713 30.252 165.76 30.0803 166.442C29.8337 166.863 29.4531 167.19 28.9992 167.37C28.6651 167.407 28.5027 167.24 28.9157 166.943C29.2312 166.725 30.02 166.043 30.0803 165.713Z"
        fill="#FAFAFA" />
    <path
        d="M33.2824 156.6C33.2824 156.6 34.8553 152.911 40.4558 140.388C42.1494 136.597 42.5902 133.785 43.0171 131.925C43.4811 129.99 45.3742 120.455 45.3742 120.455L47.8148 136.314C47.3413 138.372 47.0509 140.469 46.9472 142.578C46.9472 145.195 47.2766 149.172 48.019 154.568C49.1512 162.813 49.4574 167.096 49.4574 167.096C50.0374 167.513 51.8795 168.326 55.0254 168.149C56.4635 168.001 57.8662 167.611 59.1736 166.994C59.1736 166.994 59.8881 158.414 60.1851 152.433C60.4589 146.912 60.9136 140.671 61.1456 137.34C61.6096 131.085 61.7302 128.389 61.7952 118.529C61.8601 108.321 61.0806 93.2689 61.0806 93.2689L32.076 92.6007C32.076 92.6007 30.1689 96.8602 30.7536 105.667C30.5262 114.265 29.2502 130.63 29.2502 130.63C27.654 134.501 26.6211 138.581 26.1832 142.745C25.7563 146.81 25.1113 152.164 25.1113 152.164C28.2016 152.053 31.5795 154.048 33.2824 156.6Z"
        fill="#07689F" />
    <path opacity="0.2"
        d="M45.3969 120.538L43.7961 109.175C43.7961 109.175 40.033 108.882 35.5137 105.119C35.5137 105.119 36.1076 108.488 42.5201 110.789L44.1951 122.617L42.9794 132.24C42.9794 132.24 45.369 120.756 45.3969 120.538Z"
        fill="black" />
    <path
        d="M68.0195 82.0863L69.0264 82.258L69.625 83.0979C69.5367 83.2867 69.4909 83.4926 69.4909 83.7011C69.4909 83.9095 69.5367 84.1154 69.625 84.3043C69.9358 84.9214 70.3859 84.7265 70.3859 84.7265L70.8499 83.6083L71.0355 82.0539L69.7688 80.9356L68.5253 80.6897L68.0195 82.0863Z"
        fill="#B16668" />
    <path
        d="M71.6775 81.5759C71.8098 82.0144 71.8258 82.4797 71.7239 82.9262C71.6132 83.3298 71.4705 83.7239 71.297 84.1047C71.1671 84.3785 70.6567 84.3785 70.3411 83.6918C70.0813 83.1257 70.4479 81.8636 70.4479 81.8636L71.6775 81.5759Z"
        fill="#F0997A" />
    <path
        d="M73.5759 80.0167C73.7151 80.7313 74.1419 82.0722 74.2208 82.5919C74.2997 83.1116 73.6547 83.0559 73.6547 83.0559L72.1328 80.8658L73.5759 80.0167Z"
        fill="#F0997A" />
    <path
        d="M67.8672 74.704C68.5493 74.4256 68.5353 74.4163 69.4726 74.9128C70.7451 75.624 71.9598 76.4339 73.1057 77.3349C73.7368 77.901 73.5697 79.0006 73.5697 79.9472C73.5697 80.8938 73.7414 81.9146 73.5697 82.179C73.5466 82.2169 73.516 82.2497 73.4799 82.2754C73.4438 82.3012 73.4028 82.3194 73.3595 82.3289C73.3162 82.3384 73.2713 82.3391 73.2277 82.3309C73.1841 82.3227 73.1426 82.3058 73.1057 82.2811L67.8672 74.704Z"
        fill="#FFBDA7" />
    <path
        d="M73.8086 83.2646L74.6252 86.1136C74.6296 86.132 74.6284 86.1512 74.6215 86.1688C74.6147 86.1864 74.6027 86.2015 74.587 86.2121C74.5714 86.2227 74.5529 86.2283 74.5341 86.2281C74.5152 86.2279 74.4968 86.222 74.4814 86.2111L72.0918 84.4478L73.8086 83.2646Z"
        fill="#FFA8A7" />
    <path
        d="M74.4953 86.2158L72.0918 84.4479L73.0198 83.8262L73.2286 84.1278L74.5603 86.1276L74.4953 86.2158Z"
        fill="#F28F8F" />
    <path
        d="M74.4828 86.211C74.4982 86.2219 74.5166 86.2279 74.5355 86.2281C74.5544 86.2282 74.5728 86.2227 74.5885 86.2121C74.6041 86.2015 74.6161 86.1864 74.623 86.1688C74.6298 86.1512 74.6311 86.1319 74.6267 86.1136L74.4643 85.5568C74.4215 85.6422 74.3549 85.7135 74.2726 85.762C74.1903 85.8106 74.0957 85.8344 74.0003 85.8305H73.9492L74.4828 86.211Z"
        fill="black" />
    <path
        d="M63.832 72.5416L63.9898 72.7643L64.1754 73.0381L72.0912 84.4478C72.4175 84.5132 72.7563 84.4553 73.0424 84.2854C73.2405 84.19 73.4131 84.049 73.5462 83.874C73.6793 83.699 73.769 83.4949 73.808 83.2786L65.8829 71.8734L65.521 71.3538C65.7484 71.7064 64.0501 72.8896 63.832 72.5416Z"
        fill="#0988D0" />
    <path
        d="M63.832 72.5416L63.9898 72.7644L64.1754 73.0381L72.0912 84.4479C72.2899 84.4861 72.4945 84.4806 72.6909 84.4318C72.8872 84.3829 73.0705 84.2918 73.228 84.1648L64.9874 72.1519C65.0199 72.1287 65.0199 72.1101 64.9874 72.1008C64.542 72.4488 63.9527 72.7365 63.832 72.5416Z"
        fill="#053855" />
    <path
        d="M64.4219 73.3999L64.7745 73.901C64.872 74.0495 65.2385 73.9288 65.6283 73.7108C66.134 73.4277 66.6027 72.908 66.4728 72.7085L66.2176 72.3373L66.1248 72.2074C66.25 72.4069 65.7814 72.9266 65.2756 73.2096C64.9091 73.4184 64.5472 73.5391 64.4358 73.4138L64.4219 73.3999Z"
        fill="#EBEBEB" />
    <path
        d="M64.4925 73.5251C64.7199 73.8731 66.4181 72.676 66.1954 72.3327L65.8845 71.8269C66.1072 72.1749 64.409 73.3674 64.1816 73.0194L64.4925 73.5251Z"
        fill="#053855" />
    <path
        d="M63.832 72.5415L64.1754 73.038C64.3935 73.3813 66.0314 72.2445 65.8968 71.8733L65.5442 71.3722C65.7484 71.7063 64.0501 72.8895 63.832 72.5415Z"
        fill="#EBEBEB" />
    <path
        d="M74.5855 86.2156C74.5726 86.2225 74.5583 86.2261 74.5437 86.2261C74.5291 86.2261 74.5148 86.2225 74.502 86.2156C74.5148 86.2225 74.5291 86.2261 74.5437 86.2261C74.5583 86.2261 74.5726 86.2225 74.5855 86.2156Z"
        fill="#FFA8A7" />
    <path
        d="M63.1004 71.5115L63.8289 72.5415C63.9217 72.69 64.2929 72.5694 64.6734 72.3559C65.1791 72.0729 65.6571 71.5532 65.5318 71.3537L64.7987 70.319C64.5063 69.8967 63.583 70.3886 63.1932 70.9175C63.1199 70.9957 63.0718 71.0942 63.0552 71.2002C63.0387 71.3061 63.0544 71.4146 63.1004 71.5115Z"
        fill="#F28F8F" />
    <path opacity="0.1"
        d="M63.8063 71.5858C64.0413 71.5095 64.2555 71.3797 64.4318 71.2066C64.6081 71.0335 64.7419 70.8218 64.8225 70.5882C64.8384 70.5317 64.8404 70.4723 64.8283 70.4149C64.8162 70.3575 64.7903 70.3039 64.7529 70.2587C64.4141 69.9525 63.565 70.4165 63.1985 70.9176C63.1268 70.9948 63.0793 71.0914 63.062 71.1953C63.0447 71.2992 63.0583 71.406 63.101 71.5023C63.2124 71.66 63.4769 71.7018 63.8063 71.5858Z"
        fill="black" />
    <path
        d="M68.05 78.6155C68.7599 79.344 69.5533 79.5435 70.9221 79.9194C71.5691 80.1747 72.1817 80.5098 72.7456 80.917C73.2885 81.2835 73.5437 81.961 72.5044 82.4435C71.8084 82.7683 70.9268 82.3647 70.1844 82.2208C69.8128 82.1501 69.4349 82.119 69.0568 82.128C67.9804 82.193 67.7948 82.5363 66.5791 82.8101C65.3634 83.0839 64.3936 82.7823 63.7162 82.8983C63.0388 83.0143 47.2256 87.7517 47.2256 87.7517L47.0586 78.9357C47.0586 78.9357 60.278 77.9427 62.4077 77.5762C64.1338 77.2746 66.1754 75.864 66.1754 75.864L68.05 78.6155Z"
        fill="#FFBDA7" />
    <path
        d="M63.7392 77.1772C63.3037 77.3633 62.8495 77.5018 62.3843 77.5902C60.2545 77.9568 47.0352 78.9497 47.0352 78.9497L47.2022 87.7657C47.2022 87.7657 63.0153 83.0329 63.6928 82.9123C63.847 82.8966 64.0025 82.8966 64.1568 82.9123L63.7392 77.1772Z"
        fill="#F0997A" />
    <path
        d="M71.5973 77.5856C71.4902 77.7339 71.3344 77.8397 71.1571 77.8847C70.9798 77.9296 70.7924 77.9108 70.6275 77.8315C70.3491 77.6831 69.4258 76.9546 69.4258 76.9546L71.7458 80.2815C71.6703 79.9892 71.6816 79.6812 71.7783 79.3952C71.8469 79.2931 71.9352 79.2056 72.0379 79.1379C72.1407 79.0702 72.2559 79.0236 72.3768 79.0008C72.1169 78.9604 71.8512 79.0165 71.6298 79.1586C71.4621 79.0681 71.3186 78.9386 71.2112 78.7812C71.1038 78.6238 71.0357 78.4429 71.0127 78.2538C71.6066 77.8408 71.5973 77.5856 71.5973 77.5856Z"
        fill="#F0997A" />
    <path
        d="M31.8707 56.3992C29.9497 60.0694 30.0936 64.2269 30.6504 69.3912C31.1608 74.1333 31.5181 77.075 31.9542 82.9446C32.4786 89.6309 31.5505 93.8625 31.5505 93.8625C31.5505 93.8625 35.4435 99.2681 43.8048 101.398C58.495 105.138 61.5946 100.298 61.5946 100.298C61.5946 100.298 61.4646 95.1942 61.4832 91.227C61.4832 87.6496 61.4182 83.4133 61.2976 79.8915C61.0146 71.804 60.9218 65.0853 59.9845 62.2038C59.2931 60.6077 58.5693 59.9766 56.8014 59.1739C55.3445 58.5104 52.5651 57.1648 50.491 56.3621C46.6781 54.9829 42.797 53.7997 38.8632 52.8171C37.4733 52.6489 36.0649 52.9001 34.8189 53.5384C33.5729 54.1767 32.5462 55.1729 31.8707 56.3992Z"
        fill="#053855" />
    <path
        d="M51.5584 52.8172L50.5005 56.3621C48.0042 56.441 42.3387 55.4341 41.1602 54.2973L42.2506 50.1121L51.5584 52.8172Z"
        fill="#FFBDA7" />
    <path
        d="M59.8818 42.7296C59.8818 42.7296 60.8423 43.7736 61.1485 46.8453L59.2925 47.7733C59.1116 45.6064 58.926 43.4117 59.8818 42.7296Z"
        fill="#F0997A" />
    <path
        d="M57.1301 33.7885C60.1739 34.5634 61.3061 37.6258 59.5707 43.9594C59.7842 50.8591 57.3157 53.1188 56.3227 53.8287C54.1976 54.5061 52.2024 54.2927 49.6643 53.128C47.7295 52.2 42.8575 49.7455 41.3123 46.168C39.4563 41.941 39.86 36.0992 42.9549 34.4706C47.2701 32.1552 55.52 33.3802 57.1301 33.7885Z"
        fill="#FFBDA7" />
    <path
        d="M56.8979 49.3231C56.9334 49.3394 56.9651 49.3632 56.9907 49.3927C56.9907 49.3927 56.9907 49.4438 57.0278 49.467C57.056 49.5211 57.0869 49.5738 57.1206 49.6247C57.1946 49.7341 57.2818 49.8339 57.3804 49.9217C57.5648 50.0779 57.7712 50.2061 57.9929 50.3022C58.0011 50.3057 58.008 50.3116 58.013 50.319C58.0179 50.3264 58.0206 50.335 58.0208 50.3439C58.0265 50.3538 58.0295 50.365 58.0295 50.3764C58.0295 50.3878 58.0265 50.399 58.0208 50.4089C57.9744 50.446 57.8908 50.4089 57.8352 50.4089C57.7712 50.3919 57.709 50.3685 57.6496 50.3393C57.5204 50.2779 57.399 50.2016 57.2876 50.1119C57.1792 50.0259 57.0825 49.9261 57 49.815C56.9586 49.7606 56.9213 49.7032 56.8886 49.6433L56.8422 49.5598C56.8234 49.5073 56.8234 49.4499 56.8422 49.3974C56.8422 49.3974 56.8608 49.3046 56.8979 49.3231Z"
        fill="#F0997A" />
    <path
        d="M56.2993 53.8239C55.7379 54.2183 52.8332 54.5802 51.1953 54.0837L51.5758 52.8124C53.0967 53.3636 54.686 53.704 56.2993 53.8239Z"
        fill="#F0997A" />
    <path
        d="M56.481 38.3589C56.411 38.8818 56.1771 39.3692 55.8128 39.7509C55.2999 40.2794 54.6157 40.6083 53.8826 40.6789C54.1655 41.5787 54.2307 42.5329 54.0728 43.4629C54.0436 43.7585 53.9255 44.0384 53.7341 44.2656C53.6701 44.35 53.5838 44.4147 53.4849 44.4524C53.386 44.4901 53.2785 44.4994 53.1746 44.4791C53.0707 44.4588 52.9746 44.4098 52.8971 44.3376C52.8197 44.2654 52.764 44.1729 52.7365 44.0707C52.6036 43.5365 52.4089 43.0195 52.1565 42.5303C51.82 41.946 51.2797 41.5066 50.6392 41.296C48.2125 40.6 47.4933 44.4466 48.245 45.936C49.4746 48.3674 51.0568 47.2445 51.0568 47.2445C51.0568 47.2445 51.2842 50.6874 48.6394 51.6757C48.6394 51.6757 44.5191 52.2882 42.1434 50.4786C40.2874 47.5925 38.5613 44.3491 38.204 41.7461C37.4245 36.0807 39.132 32.8651 41.633 32.4011C42.3243 30.4013 44.4773 29.4733 46.4586 29.1531C49.1498 28.6891 51.4559 29.9605 54.045 30.4152C55.3719 30.6496 56.7347 30.5798 58.0307 30.2111C58.6061 30.0487 59.3067 29.8538 59.729 30.2621C59.8898 30.4325 59.9949 30.6477 60.0306 30.8792C60.1153 31.288 60.1027 31.7109 59.9939 32.1139C59.8851 32.5169 59.6831 32.8886 59.4042 33.1992C60.1698 32.8419 61.3298 33.2735 61.9191 33.9323C62.7589 34.8603 62.745 35.8208 62.165 37.0319C61.8031 37.7511 59.7383 39.969 56.481 38.3589Z"
        fill="black" />
    <path
        d="M41.6737 32.944L39.5625 31.1715C39.803 30.893 40.144 30.721 40.5109 30.6932C40.8778 30.6654 41.2409 30.784 41.5206 31.0231C41.6587 31.1378 41.7725 31.2791 41.8552 31.4385C41.9379 31.5979 41.9879 31.7722 42.0022 31.9513C42.0164 32.1303 41.9947 32.3104 41.9383 32.4809C41.8819 32.6514 41.7919 32.8088 41.6737 32.944Z"
        fill="black" />
    <path
        d="M83.7137 96.6141C83.1662 96.0666 82.6187 95.5793 82.164 95.1478C81.7881 94.7906 81.3009 94.2987 80.4657 93.38C80.1131 92.9856 79.7233 93.1805 78.9902 92.9392C78.2571 92.6979 78.4752 92.1179 78.0158 91.8998C77.4776 91.64 77.292 91.8024 76.7723 91.5611C76.132 91.2688 75.8025 90.5821 75.0183 90.8744C73.6031 91.3987 73.1623 92.053 71.1996 90.248C66.3648 85.7797 63.3859 82.9261 63.3859 82.9261C63.3859 82.9261 62.4579 70.6904 62.0774 67.8693C61.5438 64.0413 61.6644 61.3733 56.6579 59.74C56.6579 59.74 52.6443 61.596 52.9459 68.8576C53.2196 75.1355 53.9528 81.3206 54.3379 84.3459C54.6488 86.8979 55.1035 87.2181 58.3004 89.4267C66.1513 94.8555 67.3624 95.7232 68.3507 96.3589C69.6777 97.2126 71.0465 98.2149 72.5267 98.3123C73.8862 98.3819 75.835 97.491 76.7862 96.9714C78.3128 96.1408 79.5702 95.7093 80.0574 95.8299C80.5446 95.9506 81.4494 96.9157 82.3774 97.1662C83.3054 97.4168 83.9828 96.8786 83.7137 96.6141Z"
        fill="#FFBDA7" />
    <path
        d="M56.8096 59.1738C59.1296 60.2271 60.0576 60.7793 61.2733 62.7605C62.076 64.069 62.2013 65.4889 62.5493 68.9596C62.8416 71.9941 63.2453 77.7756 63.2453 77.7756C63.2453 77.7756 62.7256 79.1676 59.3523 80.2673C57.4041 80.9354 55.285 80.9108 53.3528 80.1977C53.3528 80.1977 52.6893 74.1425 52.4619 71.6369C52.1511 68.2404 51.8959 61.7119 56.8096 59.1738Z"
        fill="#07689F" />
    <path
        d="M143.705 29.7748L157.263 37.6164C157.527 37.7742 157.727 38.15 157.727 38.8739V55.4433C157.727 55.332 157.509 55.7078 157.24 55.8563L155.314 56.9513C155.164 57.0268 154.998 57.0662 154.829 57.0662C154.661 57.0662 154.495 57.0268 154.344 56.9513L140.786 49.1097C140.649 49.0154 140.536 48.8904 140.455 48.7446C140.374 48.5988 140.329 48.4363 140.322 48.2699V31.7004C140.331 31.5325 140.38 31.3692 140.465 31.2239C140.55 31.0787 140.668 30.9557 140.809 30.8652L142.735 29.7702C142.886 29.6965 143.052 29.6585 143.22 29.6593C143.389 29.6601 143.554 29.6996 143.705 29.7748Z"
        fill="#07689F" />
    <path opacity="0.2"
        d="M154.361 56.9467C154.512 57.0212 154.678 57.0599 154.846 57.0599C155.014 57.0599 155.18 57.0212 155.331 56.9467L157.257 55.8517C157.526 55.7032 157.744 55.3274 157.744 55.4387V38.8739C157.788 38.5562 157.734 38.2328 157.591 37.9459L154.7 39.607C154.793 39.7555 154.844 39.9272 154.844 39.6674V56.2322C154.844 56.9514 154.644 57.1138 154.361 56.9467Z"
        fill="black" />
    <path opacity="0.3"
        d="M140.328 31.6123C140.37 31.3664 140.569 31.2829 140.792 31.4174L154.346 39.2637C154.489 39.3514 154.606 39.4765 154.684 39.6256L157.575 37.9645C157.495 37.8221 157.38 37.7023 157.241 37.6165L143.687 29.7749C143.537 29.6994 143.371 29.66 143.203 29.66C143.034 29.66 142.868 29.6994 142.718 29.7749L140.792 30.8699C140.668 30.9551 140.563 31.065 140.483 31.1927C140.403 31.3205 140.35 31.4633 140.328 31.6123Z"
        fill="white" />
    <path
        d="M159.073 50.7431C159.374 50.5621 161.694 49.2583 161.769 49.2119C161.823 49.1753 161.869 49.1276 161.903 49.072C161.938 49.0164 161.96 48.9542 161.969 48.8893C161.978 48.8245 161.973 48.7585 161.954 48.6957C161.936 48.633 161.904 48.5748 161.861 48.5252L157.76 43.8016L154.846 45.472L159.152 50.0656C159.193 50.1142 159.225 50.171 159.243 50.2322C159.262 50.2935 159.268 50.358 159.261 50.4216C159.253 50.4853 159.233 50.5467 159.2 50.602C159.168 50.6573 159.125 50.7054 159.073 50.7431Z"
        fill="#07689F" />
    <path opacity="0.3"
        d="M159.073 50.7431C159.374 50.5621 161.694 49.2583 161.769 49.2119C161.823 49.1753 161.869 49.1276 161.903 49.072C161.938 49.0164 161.96 48.9542 161.969 48.8893C161.978 48.8245 161.973 48.7585 161.954 48.6957C161.936 48.633 161.904 48.5748 161.861 48.5252L157.76 43.8016L154.846 45.472L159.152 50.0656C159.193 50.1142 159.225 50.171 159.243 50.2322C159.262 50.2935 159.268 50.358 159.261 50.4216C159.253 50.4853 159.233 50.5467 159.2 50.602C159.168 50.6573 159.125 50.7054 159.073 50.7431Z"
        fill="white" />
    <path
        d="M140.805 31.422L154.363 39.2636C154.5 39.3566 154.614 39.4807 154.695 39.6258C154.775 39.7709 154.821 39.9329 154.827 40.0988V45.4719L159.151 50.0655C159.21 50.1247 159.251 50.1996 159.268 50.2813C159.286 50.3629 159.28 50.4478 159.25 50.526C159.221 50.6042 159.17 50.6723 159.103 50.7223C159.036 50.7722 158.956 50.802 158.873 50.8079L154.841 50.5109V56.6682C154.841 56.9745 154.627 57.0997 154.377 56.9466L140.819 49.105C140.682 49.0107 140.568 48.8857 140.488 48.7399C140.407 48.5941 140.362 48.4316 140.355 48.2652V31.7004C140.322 31.3895 140.54 31.2642 140.805 31.422Z"
        fill="#07689F" />
    <path
        d="M146.024 48.8823H145.885C145.712 48.8583 145.549 48.7919 145.409 48.6891C145.269 48.5862 145.156 48.4501 145.082 48.2931L143.412 44.7759C143.294 44.5261 143.281 44.2399 143.374 43.9801C143.468 43.7204 143.661 43.5084 143.91 43.3909C144.16 43.2734 144.446 43.2599 144.706 43.3535C144.966 43.447 145.178 43.6399 145.295 43.8897L146.284 45.9359L151.058 40.3679C151.243 40.1563 151.504 40.0266 151.784 40.0075C152.064 39.9883 152.341 40.0813 152.552 40.2659C152.764 40.4505 152.894 40.7116 152.913 40.9918C152.932 41.272 152.839 41.5483 152.654 41.7599L146.831 48.539C146.73 48.6516 146.605 48.7407 146.466 48.8C146.326 48.8593 146.175 48.8874 146.024 48.8823Z"
        fill="#FAFAFA" />
</svg>