<svg width="553" height="466" viewBox="0 0 553 466" fill="none" xmlns="http://www.w3.org/2000/svg">
<g clip-path="url(#clip0_2285_4781)">
<path d="M294.65 138.714C294.197 139.169 293.78 139.659 293.404 140.18L235.825 138.149L229.239 125.82L209.301 133.309L218.834 156.273C219.604 158.127 220.956 159.683 222.687 160.705C224.418 161.728 226.435 162.162 228.434 161.943L293.591 154.801C295.106 156.759 297.181 158.21 299.541 158.961C301.902 159.712 304.435 159.729 306.805 159.007C309.175 158.286 311.268 156.862 312.807 154.923C314.346 152.985 315.258 150.625 315.42 148.157C315.582 145.689 314.988 143.231 313.717 141.108C312.445 138.985 310.556 137.3 308.301 136.275C306.046 135.251 303.532 134.936 301.094 135.372C298.655 135.809 296.407 136.977 294.65 138.72V138.714Z" fill="#A0616A"/>
<path d="M184.383 78.8001C202.952 78.8001 218.005 63.7732 218.005 45.2365C218.005 26.6999 202.952 11.673 184.383 11.673C165.815 11.673 150.762 26.6999 150.762 45.2365C150.762 63.7732 165.815 78.8001 184.383 78.8001Z" fill="#004064"/>
<path d="M158.141 27.1398C163.574 21.716 164.675 14.0216 160.6 9.95377C156.525 5.88596 148.817 6.98517 143.384 12.4089C137.951 17.8327 136.85 25.5271 140.925 29.5949C145 33.6627 152.707 32.5635 158.141 27.1398Z" fill="#004064"/>
<path d="M219.425 16.4814C221.689 11.1911 217.796 4.45987 210.73 1.44677C203.664 -1.56634 196.101 0.279652 193.837 5.56996C191.573 10.8603 195.466 17.5915 202.532 20.6046C209.598 23.6177 217.161 21.7717 219.425 16.4814Z" fill="#004064"/>
<path d="M233.301 135.862L207.5 147.38C206.766 147.707 205.969 147.873 205.165 147.866C204.361 147.859 203.568 147.679 202.84 147.338C202.112 146.997 201.466 146.504 200.946 145.891C200.426 145.279 200.045 144.562 199.827 143.789L192.219 116.704C190.565 112.946 190.47 108.687 191.956 104.859C193.442 101.031 196.386 97.9473 200.145 96.2826C203.904 94.6179 208.17 94.5081 212.01 95.9773C215.85 97.4465 218.949 100.375 220.631 104.121L235.735 127.76C236.167 128.437 236.449 129.198 236.559 129.994C236.67 130.789 236.608 131.598 236.377 132.367C236.146 133.136 235.751 133.846 235.22 134.45C234.69 135.053 234.035 135.534 233.301 135.862H233.301Z" fill="#CCCCCC"/>
<path d="M114.142 249.184C115.919 248.772 117.584 247.976 119.02 246.852C120.455 245.728 121.627 244.303 122.451 242.679C123.276 241.054 123.734 239.268 123.792 237.448C123.851 235.627 123.509 233.816 122.79 232.142L168.799 128.375L142.48 121.758L105.531 225.838C102.793 227.229 100.662 229.575 99.5411 232.43C98.4201 235.285 98.3872 238.451 99.4486 241.329C100.51 244.207 102.592 246.596 105.3 248.043C108.008 249.491 111.154 249.897 114.142 249.184Z" fill="#A0616A"/>
<path d="M101.602 437.27L114.985 442.134L140.15 392.916L120.397 385.737L101.602 437.27Z" fill="#A0616A"/>
<path d="M136.27 463.922L94.2072 448.634L100.124 432.41L125.935 441.792C130.245 443.358 133.756 446.57 135.694 450.72C137.632 454.871 137.839 459.619 136.27 463.922L136.27 463.922Z" fill="#004064"/>
<path d="M133.254 408.946C132.433 408.946 131.622 408.765 130.88 408.414L115.499 401.141C114.238 400.55 113.244 399.51 112.714 398.224C112.183 396.938 112.153 395.501 112.631 394.195L156.039 274.196C156.399 273.202 157.033 272.33 157.869 271.682C158.705 271.034 159.707 270.635 160.761 270.533C161.814 270.431 162.875 270.629 163.821 271.105C164.766 271.58 165.556 272.314 166.101 273.22L189.06 311.419C189.571 312.27 189.846 313.242 189.856 314.234C189.867 315.226 189.613 316.203 189.12 317.065L138.134 406.137C137.64 406.992 136.929 407.702 136.072 408.196C135.215 408.689 134.243 408.948 133.254 408.946Z" fill="#004064"/>
<path d="M185.448 81.7338C201.207 81.7338 213.982 68.9806 213.982 53.2487C213.982 37.5169 201.207 24.7637 185.448 24.7637C169.689 24.7637 156.914 37.5169 156.914 53.2487C156.914 68.9806 169.689 81.7338 185.448 81.7338Z" fill="#A0616A"/>
<path d="M225.818 182.759L175.296 168.889L148.424 115.24C147.134 112.662 146.524 109.798 146.654 106.92C146.784 104.041 147.648 101.243 149.166 98.7921C150.683 96.3409 152.803 94.3177 155.325 92.9145C157.846 91.5113 160.685 90.7748 163.571 90.7749H203.767C207.94 90.7723 211.966 92.3094 215.072 95.0908C225.854 104.734 248.508 132.534 226.037 182.274L225.818 182.759Z" fill="#CCCCCC"/>
<path d="M162.571 146.933L136.974 134.972C136.245 134.631 135.599 134.138 135.079 133.526C134.559 132.914 134.177 132.197 133.959 131.424C133.741 130.652 133.693 129.841 133.817 129.048C133.942 128.255 134.236 127.498 134.68 126.828L150.236 103.375C152.003 99.6671 155.17 96.8098 159.044 95.4289C162.917 94.0481 167.181 94.2562 170.901 96.0077C174.62 97.7592 177.493 100.911 178.889 104.773C180.285 108.635 180.091 112.892 178.349 116.612L170.305 143.475C170.074 144.244 169.68 144.955 169.15 145.558C168.62 146.162 167.965 146.644 167.231 146.972C166.497 147.3 165.701 147.466 164.897 147.46C164.093 147.453 163.3 147.273 162.571 146.933H162.571Z" fill="#CCCCCC"/>
<path d="M193.541 450.719H207.785L214.561 395.876L193.539 395.877L193.541 450.719Z" fill="#A0616A"/>
<path d="M235.254 463.92L190.49 463.922L190.489 446.657L217.958 446.656C222.545 446.655 226.944 448.474 230.188 451.712C233.431 454.95 235.254 459.341 235.254 463.92Z" fill="#004064"/>
<path d="M198.918 429.82C197.638 429.822 196.396 429.383 195.402 428.577C194.407 427.771 193.722 426.648 193.461 425.397C189.367 406.14 168.104 307.505 151.508 256.698C134.623 205.007 163.379 181.462 169.315 177.268C169.948 176.822 170.45 176.216 170.771 175.513L175.084 166.043C175.531 165.065 176.25 164.236 177.156 163.655C178.062 163.074 179.115 162.765 180.192 162.765H180.227C212.557 162.957 223.426 173.131 226.598 177.497C227.066 178.147 227.387 178.891 227.538 179.677C227.689 180.464 227.667 181.273 227.474 182.05L207.018 266.301C206.891 266.824 206.862 267.365 206.933 267.898L227.285 420.871C227.383 421.606 227.333 422.354 227.139 423.069C226.944 423.785 226.609 424.455 226.152 425.04C225.695 425.625 225.127 426.114 224.479 426.477C223.831 426.841 223.117 427.072 222.379 427.157L199.575 429.783C199.357 429.808 199.138 429.82 198.918 429.82Z" fill="#004064"/>
<path d="M155.469 35.3318C161.989 39.8182 169.729 42.2058 177.648 42.1742C174.823 44.1295 171.607 45.4503 168.222 46.0455C178.751 48.3001 189.633 48.3612 200.186 46.2248C202.532 45.8493 204.796 45.0732 206.878 43.9305C207.915 43.3521 208.819 42.5622 209.531 41.6121C210.242 40.6621 210.746 39.5731 211.008 38.4161C211.709 34.4167 208.588 30.7831 205.343 28.3342C200.376 24.6421 194.649 22.0983 188.576 20.8868C182.503 19.6754 176.237 19.8266 170.23 21.3296C166.307 22.3417 162.378 24.0519 159.83 27.1965C157.282 30.3411 156.528 35.189 158.955 38.4271L155.469 35.3318Z" fill="#004064"/>
<path d="M490.398 356.183V464.89L462.151 464.075H317.637V375.391L359.804 356.183H490.398Z" fill="#CCCCCC"/>
<path opacity="0.1" d="M490.398 356.183V356.521L480.257 363.297L462.151 375.391H317.637L359.804 356.183H490.398Z" fill="black"/>
<path opacity="0.1" d="M490.399 356.183V464.89L462.152 464.075L462.357 375.186L480.258 363.297L490.236 356.183H490.399Z" fill="black"/>
<path d="M452.326 367.829H364.309L370.859 364.152H455.192L452.326 367.829Z" fill="white"/>
<path d="M551.838 466H1.16176C0.853646 466 0.558163 465.878 0.34029 465.66C0.122417 465.443 0 465.148 0 464.84C0 464.533 0.122417 464.238 0.34029 464.02C0.558163 463.803 0.853646 463.681 1.16176 463.681H551.838C552.146 463.681 552.442 463.803 552.66 464.02C552.878 464.238 553 464.533 553 464.84C553 465.148 552.878 465.443 552.66 465.66C552.442 465.878 552.146 466 551.838 466Z" fill="#E6E6E6"/>
<path d="M405.525 158.46H310.261C307.488 158.457 304.831 157.357 302.871 155.4C300.91 153.443 299.808 150.79 299.805 148.023V44.8034C299.808 42.036 300.91 39.3829 302.871 37.4261C304.831 35.4693 307.488 34.3686 310.261 34.3655H405.525C408.297 34.3686 410.955 35.4693 412.915 37.4261C414.875 39.3829 415.978 42.036 415.981 44.8034V148.023C415.978 150.79 414.875 153.443 412.915 155.4C410.955 157.357 408.297 158.457 405.525 158.46ZM310.261 36.685C308.104 36.6874 306.037 37.5435 304.513 39.0655C302.988 40.5875 302.131 42.651 302.128 44.8034V148.023C302.131 150.175 302.988 152.238 304.513 153.76C306.037 155.282 308.104 156.139 310.261 156.141H405.525C407.681 156.139 409.748 155.282 411.273 153.76C412.798 152.238 413.655 150.175 413.658 148.023V44.8034C413.655 42.651 412.798 40.5875 411.273 39.0655C409.748 37.5435 407.681 36.6874 405.525 36.685H310.261Z" fill="#3F3D56"/>
<path d="M329.448 77.2768H320.154C318.768 77.2753 317.439 76.7249 316.459 75.7465C315.479 74.7681 314.927 73.4415 314.926 72.0579V62.7797C314.927 61.3961 315.479 60.0695 316.459 59.0911C317.439 58.1126 318.768 57.5623 320.154 57.5608H329.448C330.834 57.5623 332.163 58.1126 333.143 59.0911C334.123 60.0695 334.674 61.3961 334.676 62.7797V72.0579C334.674 73.4415 334.123 74.7681 333.143 75.7465C332.163 76.7249 330.834 77.2753 329.448 77.2768Z" fill="#0988D0"/>
<path d="M329.448 106.271H320.154C318.768 106.269 317.439 105.719 316.459 104.741C315.479 103.762 314.927 102.436 314.926 101.052V91.7739C314.927 90.3902 315.479 89.0636 316.459 88.0852C317.439 87.1068 318.768 86.5565 320.154 86.5549H329.448C330.834 86.5565 332.163 87.1068 333.143 88.0852C334.123 89.0636 334.674 90.3902 334.676 91.7739V101.052C334.674 102.436 334.123 103.762 333.143 104.741C332.163 105.719 330.834 106.269 329.448 106.271Z" fill="#CCCCCC"/>
<path d="M397.376 71.6369H353.985C353.061 71.6359 352.175 71.269 351.522 70.6167C350.869 69.9644 350.501 69.08 350.5 68.1576V66.6801C350.501 65.7576 350.869 64.8733 351.522 64.221C352.175 63.5687 353.061 63.2018 353.985 63.2008H397.376C398.301 63.2018 399.186 63.5687 399.84 64.221C400.493 64.8733 400.861 65.7576 400.862 66.6801V68.1576C400.861 69.08 400.493 69.9644 399.84 70.6167C399.186 71.269 398.301 71.6359 397.376 71.6369Z" fill="#0988D0"/>
<path d="M397.376 100.631H353.985C353.061 100.63 352.175 100.263 351.522 99.6108C350.869 98.9585 350.501 98.0742 350.5 97.1517V95.6742C350.501 94.7518 350.869 93.8674 351.522 93.2151C352.175 92.5628 353.061 92.196 353.985 92.1949H397.376C398.301 92.196 399.186 92.5628 399.84 93.2151C400.493 93.8674 400.861 94.7518 400.862 95.6742V97.1517C400.861 98.0742 400.493 98.9585 399.84 99.6108C399.186 100.263 398.301 100.63 397.376 100.631Z" fill="#CCCCCC"/>
<path d="M329.448 135.265H320.154C318.768 135.264 317.439 134.713 316.459 133.735C315.479 132.756 314.927 131.43 314.926 130.046V120.768C314.927 119.384 315.479 118.058 316.459 117.079C317.439 116.101 318.768 115.551 320.154 115.549H329.448C330.834 115.551 332.163 116.101 333.143 117.079C334.123 118.058 334.674 119.384 334.676 120.768V130.046C334.674 131.43 334.123 132.756 333.143 133.735C332.163 134.713 330.834 135.264 329.448 135.265Z" fill="#CCCCCC"/>
<path d="M397.376 129.625H353.985C353.061 129.624 352.175 129.257 351.522 128.605C350.869 127.953 350.501 127.068 350.5 126.146V124.668C350.501 123.746 350.869 122.862 351.522 122.209C352.175 121.557 353.061 121.19 353.985 121.189H397.376C398.301 121.19 399.186 121.557 399.84 122.209C400.493 122.862 400.861 123.746 400.862 124.668V126.146C400.861 127.068 400.493 127.953 399.84 128.605C399.186 129.257 398.301 129.624 397.376 129.625Z" fill="#CCCCCC"/>
</g>
<defs>
<clipPath id="clip0_2285_4781">
<rect width="553" height="466" fill="white"/>
</clipPath>
</defs>
</svg>
