<svg  viewBox="0 0 170 170" fill="none" xmlns="http://www.w3.org/2000/svg">
<circle cx="85" cy="85" r="83.5" stroke="#D9D9D9" stroke-width="3"/>
<path d="M98.9425 103.587C98.9425 99.8896 97.4738 96.3439 94.8596 93.7297C92.2453 91.1154 88.6996 89.6467 85.0025 89.6467C81.3054 89.6467 77.7597 91.1154 75.1454 93.7297C72.5312 96.3439 71.0625 99.8896 71.0625 103.587" stroke="#9EA2AC" stroke-width="2" stroke-linecap="round" stroke-linejoin="round"/>
<path d="M85.0043 89.6467C90.1368 89.6467 94.2976 85.486 94.2976 80.3534C94.2976 75.2208 90.1368 71.0601 85.0043 71.0601C79.8717 71.0601 75.7109 75.2208 75.7109 80.3534C75.7109 85.486 79.8717 89.6467 85.0043 89.6467Z" stroke="#9EA2AC" stroke-width="2" stroke-linecap="round" stroke-linejoin="round"/>
<path d="M85.0068 108.234C97.8382 108.234 108.24 97.8316 108.24 85.0002C108.24 72.1688 97.8382 61.7668 85.0068 61.7668C72.1754 61.7668 61.7734 72.1688 61.7734 85.0002C61.7734 97.8316 72.1754 108.234 85.0068 108.234Z" stroke="#9EA2AC" stroke-width="2" stroke-linecap="round" stroke-linejoin="round"/>
</svg>
