<svg width="346" height="260" viewBox="0 0 346 260" fill="none" xmlns="http://www.w3.org/2000/svg">
    <g clip-path="url(#clip0_2262_8457)">
        <path opacity="0.4"
            d="M292.013 99.9601C296.592 99.9601 300.304 96.2491 300.304 91.6712C300.304 87.0934 296.592 83.3823 292.013 83.3823C287.434 83.3823 283.723 87.0934 283.723 91.6712C283.723 96.2491 287.434 99.9601 292.013 99.9601Z"
            fill="#C64756" />
        <path opacity="0.4"
            d="M117.221 54.3579C123.748 54.3579 129.039 49.0677 129.039 42.5418C129.039 36.016 123.748 30.7257 117.221 30.7257C110.694 30.7257 105.402 36.016 105.402 42.5418C105.402 49.0677 110.694 54.3579 117.221 54.3579Z"
            fill="#C64756" />
        <path opacity="0.4"
            d="M95.3492 56.4731C99.928 56.4731 103.64 52.762 103.64 48.1842C103.64 43.6063 99.928 39.8953 95.3492 39.8953C90.7704 39.8953 87.0586 43.6063 87.0586 48.1842C87.0586 52.762 90.7704 56.4731 95.3492 56.4731Z"
            fill="#C64756" />
        <path
            d="M298.968 184.362C292.418 191.533 292.18 201.978 292.18 201.978C292.18 201.978 302.563 200.797 309.113 193.627C315.664 186.457 315.902 176.011 315.902 176.011C315.902 176.011 305.519 177.192 298.968 184.362Z"
            fill="#3F3D56" />
        <path
            d="M302.665 186.425C300.683 195.932 292.35 202.237 292.35 202.237C292.35 202.237 287.232 193.128 289.214 183.621C291.196 174.115 299.529 167.809 299.529 167.809C299.529 167.809 304.647 176.918 302.665 186.425Z"
            fill="#C64756" />
        <path d="M294.154 88.327V201.659L256.368 232.866H63.0625V114.06L119.466 88.327H294.154Z"
            fill="#07689F" />
        <path opacity="0.1"
            d="M294.154 88.327V88.7812L280.589 97.8588L256.368 114.06H63.0625L119.466 88.327H294.154Z"
            fill="black" />
        <path opacity="0.1"
            d="M294.152 88.327V201.659L256.367 232.866L256.641 113.786L280.588 97.8588L293.933 88.327H294.152Z"
            fill="black" />
        <path d="M243.228 103.93H125.492L134.254 99.0023H247.062L243.228 103.93Z" fill="#011825" />
        <path
            d="M344.843 239.03C344.843 239.03 347.125 248.573 345.05 248.988C342.975 249.403 332.808 249.269 330.318 249.684C327.828 250.099 322.641 249.403 322.641 247.536C322.641 245.669 328.036 244.424 328.036 244.424C328.036 244.424 335.713 240.275 335.92 240.067C336.128 239.86 344.843 239.03 344.843 239.03Z"
            fill="#011825" />
        <path
            d="M342.979 182.81C342.979 182.81 342.357 189.863 342.357 190.486C342.357 191.108 342.979 200.858 342.357 201.273C341.734 201.688 342.772 204.593 342.772 205.63C342.772 206.667 346.092 223.886 345.262 230.524C344.432 237.163 346.507 236.54 345.884 237.163C345.262 237.785 345.262 237.785 345.262 239.03C345.262 240.275 338.622 241.312 338.622 241.312L331.359 195.465L335.094 181.773L342.979 182.81Z"
            fill="#575A89" />
        <path opacity="0.1"
            d="M342.979 182.81C342.979 182.81 342.357 189.863 342.357 190.486C342.357 191.108 342.979 200.858 342.357 201.273C341.734 201.688 342.772 204.593 342.772 205.63C342.772 206.667 346.092 223.886 345.262 230.524C344.432 237.163 346.507 236.54 345.884 237.163C345.262 237.785 345.262 237.785 345.262 239.03C345.262 240.275 338.622 241.312 338.622 241.312L331.359 195.465L335.094 181.773L342.979 182.81Z"
            fill="black" />
        <path
            d="M341.933 241.934C341.933 241.934 344.008 249.402 341.933 249.817C339.858 250.232 329.691 249.342 327.201 249.757C324.711 250.172 319.523 250.232 319.523 248.365C319.523 246.498 324.918 245.253 324.918 245.253C324.918 245.253 332.596 241.104 332.803 240.897C333.011 240.689 341.933 241.934 341.933 241.934Z"
            fill="#011825" />
        <path
            d="M344.839 174.512C344.839 174.512 347.329 180.528 344.424 183.64C341.519 186.752 338.199 192.976 338.199 193.391C338.199 193.805 344.009 235.089 343.179 237.786C342.349 240.483 342.557 242.142 342.764 242.557C342.972 242.972 340.689 245.254 338.199 245.254C335.709 245.254 331.974 243.387 331.559 241.727C331.144 240.068 332.182 225.753 331.974 223.056C331.767 220.36 330.729 216.418 330.314 215.588C329.899 214.758 327.617 213.928 327.202 211.439C326.787 208.95 323.467 177.209 324.505 176.172C325.542 175.135 344.839 174.512 344.839 174.512Z"
            fill="#575A89" />
        <path
            d="M329.07 126.798C332.967 126.798 336.125 123.64 336.125 119.744C336.125 115.849 332.967 112.691 329.07 112.691C325.174 112.691 322.016 115.849 322.016 119.744C322.016 123.64 325.174 126.798 329.07 126.798Z"
            fill="#FFB9B9" />
        <path
            d="M333.431 123.271C333.431 123.271 331.978 130.946 333.016 131.776C334.053 132.606 325.131 133.851 325.131 133.851C325.131 133.851 324.094 123.685 323.886 122.648C323.679 121.611 333.431 123.271 333.431 123.271Z"
            fill="#FFB9B9" />
        <path
            d="M323.884 133.229C323.884 133.229 326.374 125.968 336.542 128.042C336.542 128.042 338.409 128.665 337.787 129.287C337.164 129.91 336.542 129.91 337.372 130.532C338.202 131.154 339.239 130.532 338.617 131.154C337.994 131.777 344.219 135.511 343.804 142.564C343.389 149.618 345.257 159.575 343.804 161.235C342.352 162.895 344.842 170.156 344.427 171.608C344.012 173.06 346.916 174.927 345.672 175.549C344.427 176.172 322.017 179.906 321.394 175.549C320.772 171.193 321.187 174.305 320.564 173.267C319.942 172.23 319.735 170.363 320.149 168.081C320.564 165.799 321.602 160.198 321.187 158.123C320.772 156.049 321.187 138.623 322.432 136.548C323.677 134.474 323.884 133.229 323.884 133.229Z"
            fill="#C64756" />
        <path
            d="M328.243 183.848C328.243 183.848 331.355 195.672 327.413 195.672C323.47 195.672 323.678 183.433 323.678 183.433L328.243 183.848Z"
            fill="#FFB9B9" />
        <path
            d="M325.957 119.744C325.957 120.345 326.829 120.727 328.179 120.814H328.181C328.754 120.847 329.328 120.836 329.899 120.781C330.763 120.702 331.12 121.513 331.267 122.584C331.508 124.349 331.171 126.824 331.559 127.212C332.095 127.747 335.998 127.21 337.218 125.996C337.408 125.826 337.534 125.597 337.577 125.345C337.705 124.604 338.07 123.925 338.618 123.41C339.338 122.623 340.363 121.752 341.519 120.366C343.594 117.877 341.519 117.669 340.897 115.802C340.274 113.935 339.237 113.313 339.237 112.068C339.237 110.823 334.464 109.786 330.522 109.993C326.58 110.201 327.41 115.18 327.41 115.18C327.41 115.18 327.175 115.781 326.895 116.557C326.516 117.531 326.208 118.531 325.974 119.549C325.964 119.613 325.958 119.679 325.957 119.744Z"
            fill="#011825" />
        <path opacity="0.1"
            d="M326.79 136.34C326.79 136.34 333.845 135.925 334.467 146.298C335.09 156.671 334.882 166.421 334.882 166.628C334.882 166.836 331.977 186.544 329.28 186.544C326.582 186.544 324.507 186.129 323.885 185.092C323.262 184.055 325.545 169.118 325.545 169.118C325.545 169.118 326.582 153.351 324.922 148.373C323.262 143.394 323.055 136.963 326.79 136.34Z"
            fill="black" />
        <path
            d="M325.751 135.304C325.751 135.304 332.806 134.889 333.428 145.261C334.051 155.634 333.843 165.384 333.843 165.592C333.843 165.799 330.938 185.507 328.241 185.507C325.543 185.507 323.468 185.092 322.846 184.055C322.223 183.018 324.506 168.081 324.506 168.081C324.506 168.081 325.543 152.315 323.883 147.336C322.223 142.357 322.016 135.926 325.751 135.304Z"
            fill="#C64756" />
        <path
            d="M208.766 33.8972C208.766 33.8972 205.692 25.1878 203.471 27.9201C201.251 30.6525 206.887 35.2634 206.887 35.2634L208.766 33.8972Z"
            fill="#A0616A" />
        <path
            d="M223.292 25.3583L221.443 26.0436C221.443 26.0436 220.56 29.9692 220.901 30.6523C221.243 31.3354 221.414 30.823 220.901 32.1892C220.389 33.5554 218.851 37.1416 218.681 37.654C218.51 38.1663 208.774 34.4093 208.774 32.5308C208.774 32.5308 206.724 34.9216 205.699 35.4339C205.699 35.4339 216.973 43.631 218.51 44.6557C220.047 45.6803 220.901 45.168 222.268 43.9726C223.634 42.7772 229.442 32.8723 229.442 32.8723L223.292 25.3583Z"
            fill="#575A89" />
        <path
            d="M218.339 85.9827C218.339 85.9827 218.51 87.8612 218.851 88.032C219.193 88.2028 221.755 92.4721 218.851 93.326C215.948 94.1798 214.24 93.8383 213.556 94.1799C212.873 94.5214 200.917 95.2045 200.746 93.326C200.575 91.4475 206.553 91.1059 206.553 91.1059C206.553 91.1059 212.019 87.5197 212.873 85.6412C213.727 83.7627 218.339 85.9827 218.339 85.9827Z"
            fill="#011825" />
        <path
            d="M253.005 89.3989C253.005 89.3989 257.104 96.4006 256.08 97.2545C255.055 98.1084 245.074 101.22 243.611 101.353C241.732 101.524 240.365 99.9869 241.902 99.133C243.44 98.2791 246.685 94.6929 246.685 93.4975V90.4236L253.005 89.3989Z"
            fill="#011825" />
        <path
            d="M256.933 43.6315C256.933 43.6315 260.52 48.0716 254.884 55.2441L245.489 67.1982C245.489 67.1982 251.297 76.42 251.467 81.2016C251.638 85.9833 252.834 84.9587 253.175 87.0079C253.517 89.0572 255.054 88.0326 253.859 89.5696C252.663 91.1065 248.222 92.4727 246.856 91.2773C246.385 90.8474 246.019 90.317 245.782 89.7257C245.545 89.1343 245.445 88.4972 245.489 87.8618C245.489 87.1787 243.098 83.2509 242.927 82.0555C242.756 80.8601 236.436 71.126 236.436 71.126C236.436 71.126 234.387 65.3197 236.778 62.075C239.169 58.8303 240.749 54.2284 240.749 54.2284C240.749 54.2284 233.703 62.7581 228.75 64.8074C228.75 64.8074 226.871 65.1489 227.213 66.0028C227.554 66.8567 227.213 67.369 226.7 68.2229C226.188 69.0767 222.601 78.9816 221.405 81.5432C220.209 84.1048 220.722 85.6418 219.355 86.4956C217.989 87.3495 211.84 86.6664 211.84 85.8125C211.84 84.9587 212.694 82.7386 213.206 81.5432C213.719 80.3478 217.818 66.5151 217.477 64.1243C217.135 61.7335 217.647 58.4888 220.209 57.1226C222.772 55.7564 235.753 44.6561 236.436 44.6561C237.119 44.6561 256.933 43.6315 256.933 43.6315Z"
            fill="#011825" />
        <path
            d="M222.6 16.8196C226.562 16.8196 229.774 13.6084 229.774 9.6471C229.774 5.68584 226.562 2.47461 222.6 2.47461C218.638 2.47461 215.426 5.68584 215.426 9.6471C215.426 13.6084 218.638 16.8196 222.6 16.8196Z"
            fill="#A0616A" />
        <path
            d="M228.411 10.3296C228.411 10.3296 230.632 14.2574 233.365 14.7697C236.098 15.2821 226.191 23.1376 226.191 23.1376C226.191 23.1376 223.8 15.6236 221.75 15.282C219.7 14.9405 228.411 10.3296 228.411 10.3296Z"
            fill="#A0616A" />
        <path
            d="M221.406 26.3827C221.406 28.6027 228.068 34.9214 228.068 34.9214L234.388 40.2153C234.388 40.2153 234.558 42.0938 235.242 42.2646C235.925 42.4354 236.779 42.4354 236.096 43.46C235.413 44.4847 233.704 46.7047 235.242 47.0463C235.705 47.1167 236.172 47.1612 236.641 47.1795C237.051 47.2034 237.532 47.2256 238.074 47.2461C239.338 47.2905 240.919 47.3195 242.633 47.3076C243.119 47.3058 243.615 47.3002 244.119 47.2905C250.577 47.1624 258.058 46.4195 257.447 43.9723C256.422 39.8738 257.105 38.5076 254.885 36.2875C252.664 34.0675 249.077 26.3827 249.077 26.3827C249.077 26.3827 241.903 14.2578 235.925 14.2578L234.683 13.9316C234.106 13.7796 233.496 13.8129 232.939 14.0269C232.382 14.2408 231.906 14.6245 231.58 15.1236C230.381 16.9491 228.49 19.6918 227.385 20.5764C225.676 21.9426 225.41 20.9623 225.41 20.9623C225.41 20.9623 221.406 24.1626 221.406 26.3827Z"
            fill="#575A89" />
        <path
            d="M236.608 52.3398C236.608 52.3398 231.654 60.0246 234.729 61.3908C237.803 62.757 239.511 53.3645 239.511 53.3645L236.608 52.3398Z"
            fill="#A0616A" />
        <path
            d="M227.298 8.83691C227.022 8.80217 226.935 8.45484 226.889 8.18128C226.641 6.71634 225.549 5.32718 224.082 5.0907C223.521 5.01611 222.951 5.06205 222.409 5.22546C221.633 5.43832 220.905 5.79673 220.263 6.28161C219.949 6.56867 219.586 6.79676 219.191 6.95493C218.921 7.03396 217.778 7.54201 217.511 7.62798C216.924 7.81697 216.438 8.43142 215.834 8.30976C215.255 8.19337 215.035 7.49489 214.942 6.91225C214.73 5.58486 215.49 3.60427 216.246 2.49243C216.819 1.64869 217.79 1.16311 218.76 0.847212C219.896 0.502304 221.064 0.270319 222.246 0.154623C223.842 -0.0337933 225.494 -0.133758 227.024 0.359379C228.553 0.852516 229.945 2.05884 230.231 3.63975C230.29 3.96906 230.301 4.30637 230.374 4.63298C230.552 5.42975 231.079 6.09948 231.387 6.85569C231.609 7.41107 231.712 8.00678 231.689 8.60441C231.667 9.20204 231.519 9.78832 231.256 10.3255C230.83 11.1818 230.09 12.0047 230.249 12.9477L228.931 11.9086C228.741 11.8004 228.593 11.6301 228.513 11.4262C228.433 11.2224 228.425 10.9972 228.491 10.7883L228.683 9.13822C228.749 8.83926 228.719 8.52699 228.597 8.24606C228.012 7.22288 227.757 8.89482 227.298 8.83691Z"
            fill="#011825" />
        <path opacity="0.1"
            d="M239.683 40.5571L238.074 47.2463C239.697 47.3044 241.844 47.3351 244.119 47.2907C244.693 45.5693 245.241 43.7745 245.661 42.0941C247.199 35.9462 244.637 26.5537 243.27 22.1136C241.904 17.6734 238.487 16.478 238.487 16.478C237.087 16.9705 235.764 17.6605 234.559 18.5273C232.338 20.0643 239.683 40.5571 239.683 40.5571Z"
            fill="black" />
        <path opacity="0.1"
            d="M238.315 40.2162L236.639 47.1803C237.049 47.2043 237.531 47.2264 238.072 47.2469C239.336 47.2913 240.918 47.3204 242.631 47.3084C243.248 45.4794 243.844 43.5497 244.293 41.7532C245.83 35.6053 243.268 26.2128 241.902 21.7726C240.535 17.3325 237.546 22.1996 237.546 22.1996C237.546 22.1996 238.742 19.2964 236.521 20.8334C234.301 22.3703 238.315 40.2162 238.315 40.2162Z"
            fill="black" />
        <path
            d="M237.808 16.1357C237.808 16.1357 241.224 17.3312 242.59 21.7713C243.957 26.2114 246.519 35.6039 244.982 41.7518C243.444 47.8996 240.199 55.5844 240.199 55.5844C240.199 55.5844 236.954 53.1936 235.758 53.7059L239.003 40.2148C239.003 40.2148 231.659 19.722 233.879 18.185C235.084 17.3182 236.407 16.6282 237.808 16.1357Z"
            fill="#575A89" />
        <path d="M240.349 101.794L193.092 3.33752L114.074 41.2488L143.135 101.794H240.349Z"
            fill="#F2F2F2" />
        <path d="M177.098 41.9841L135.129 62.1201L136.379 64.7246L178.348 44.5886L177.098 41.9841Z"
            fill="#3F3D56" />
        <path d="M188.215 65.1345L146.246 85.2705L147.496 87.875L189.465 67.7389L188.215 65.1345Z"
            fill="#3F3D56" />
        <path d="M195.846 28.3635L185.426 33.3628L190.426 43.7806L200.846 38.7813L195.846 28.3635Z"
            fill="#3F3D56" />
        <path d="M206.955 51.5139L196.535 56.5132L201.535 66.931L211.955 61.9317L206.955 51.5139Z"
            fill="#3F3D56" />
        <path
            d="M196.563 21.1464L192.272 33.3535L186.487 31.3206L185.695 33.5724L193.725 36.3937L198.815 21.9378L196.563 21.1464Z"
            fill="#57B894" />
        <path
            d="M207.672 44.2969L203.381 56.504L197.596 54.4715L196.805 56.723L204.834 59.5443L209.924 45.0883L207.672 44.2969Z"
            fill="#57B894" />
        <path
            d="M4.55584 215.112L25.9062 210.552L21.3456 189.206L-0.00477848 193.766L4.55584 215.112Z"
            fill="#F2F2F2" />
        <path
            d="M25.3162 183.503C25.3162 183.503 17.4741 189.104 20.0882 191.344C22.7022 193.584 27.9302 184.623 27.9302 184.623L25.3162 183.503Z"
            fill="#FFB9B9" />
        <path
            d="M61.5408 192.09C61.5408 192.09 60.0471 210.758 59.6737 213.372C59.3002 215.985 58.9268 239.507 58.1799 242.12C57.4331 244.734 56.6862 251.081 56.6862 251.081H52.205C52.205 251.081 52.5785 239.507 51.4582 235.026C50.3379 230.546 50.7113 218.225 50.7113 218.225C50.7113 218.225 48.4707 196.197 49.591 193.211C50.7113 190.224 61.5408 192.09 61.5408 192.09Z"
            fill="#FFB9B9" />
        <path
            d="M55.5655 249.961C55.5655 249.961 57.4327 251.081 57.4327 251.828C57.4327 252.574 57.0593 254.441 57.4327 255.188C57.8061 255.935 60.4201 258.921 58.9264 259.668C57.4327 260.415 50.7109 259.668 50.7109 259.668C50.7109 259.668 51.0844 254.441 51.4578 254.068C51.8312 253.694 51.0844 249.961 51.0844 249.961H55.5655Z"
            fill="#011825" />
        <path
            d="M32.9902 191.632C32.9902 191.632 32.5158 210.354 32.6127 212.992C32.7097 215.63 30.6116 239.061 31.08 241.738C31.5483 244.415 31.6247 250.806 31.6247 250.806L36.0811 251.276C36.0811 251.276 36.9249 239.727 38.5094 235.389C40.0939 231.051 41.016 218.759 41.016 218.759C41.016 218.759 45.5569 197.088 44.7564 194C43.9558 190.912 32.9902 191.632 32.9902 191.632Z"
            fill="#FFB9B9" />
        <path
            d="M32.8554 249.81C32.8554 249.81 30.881 250.728 30.8026 251.47C30.7242 252.213 30.8996 254.109 30.4498 254.812C30.0001 255.515 27.0869 258.211 28.494 259.111C29.9011 260.01 36.6641 259.973 36.6641 259.973C36.6641 259.973 36.8415 254.736 36.5093 254.325C36.1772 253.915 37.3119 250.28 37.3119 250.28L32.8554 249.81Z"
            fill="#011825" />
        <path
            d="M56.3082 164.089C56.3082 164.089 59.2956 164.463 60.4159 170.81C61.5362 177.157 65.644 193.211 62.2831 194.331C58.9222 195.451 48.8396 197.691 48.4661 196.944C48.0927 196.198 47.3458 194.331 47.3458 194.331C47.3458 194.331 48.4661 197.691 46.9724 197.691C45.4787 197.691 30.9149 195.451 31.2883 194.331C31.6617 193.211 32.4086 184.997 32.4086 184.997C32.4086 184.997 34.6492 171.183 36.8898 168.943C37.5382 168.32 38.0416 167.563 38.3643 166.724C38.687 165.885 38.8211 164.986 38.7569 164.089H56.3082Z"
            fill="#011825" />
        <path
            d="M61.9093 161.102C61.9093 161.102 57.0547 159.982 56.3079 161.475C55.561 162.968 58.175 165.209 59.2953 165.209C60.4156 165.209 62.2828 164.088 62.2828 164.088L61.9093 161.102Z"
            fill="#FFB9B9" />
        <path
            d="M51.8272 129.367C55.5396 129.367 58.549 126.358 58.549 122.646C58.549 118.935 55.5396 115.926 51.8272 115.926C48.1149 115.926 45.1055 118.935 45.1055 122.646C45.1055 126.358 48.1149 129.367 51.8272 129.367Z"
            fill="#FFB9B9" />
        <path
            d="M50.71 127.499C50.71 127.499 49.5897 132.726 50.3365 132.726C51.0834 132.726 44.735 136.087 44.735 136.087L39.8804 135.34L38.3867 133.1C38.3867 133.1 46.2288 127.873 46.2288 124.886C46.2288 121.899 50.71 127.499 50.71 127.499Z"
            fill="#FFB9B9" />
        <path
            d="M47.3474 132.726C47.3474 132.726 48.4676 131.98 48.8411 131.98H51.8285C52.202 131.98 57.0566 133.1 57.0566 133.1L60.044 149.901C60.044 149.901 54.816 158.488 58.5503 165.208C58.5503 165.208 57.43 164.462 52.202 164.835C46.9739 165.208 37.6381 166.328 37.2647 166.328C36.8913 166.328 36.8913 163.342 37.2647 162.595C37.6381 161.848 36.8913 162.221 36.8913 160.355C36.8913 158.488 35.771 155.128 35.771 155.128L30.543 136.087C30.543 136.087 37.2647 132.353 38.385 132.726C39.5053 133.1 42.8662 134.22 43.6131 133.846C44.3599 133.473 47.3474 132.726 47.3474 132.726Z"
            fill="#C64756" />
        <path
            d="M55.9336 133.474L57.0539 133.101C57.0539 133.101 59.2945 132.727 61.9085 134.967C64.5225 137.208 74.2317 143.928 74.2317 143.928C74.2317 143.928 77.966 146.915 76.8457 150.275C75.7255 153.635 73.8583 161.849 68.2568 161.476C68.2568 161.476 64.8959 165.956 63.0288 165.209C61.1616 164.462 59.6679 161.476 60.7882 161.102C61.9085 160.729 64.8959 156.995 64.8959 156.995L61.1616 149.902H60.0414L55.9336 147.661L55.9336 133.474Z"
            fill="#C64756" />
        <path
            d="M33.5283 135.713L30.5408 136.086C30.5408 136.086 27.9268 137.206 28.3002 142.06C28.6737 146.913 26.0597 168.941 27.18 171.555C27.18 171.555 23.4456 184.249 24.1925 184.622C24.9394 184.996 29.4205 187.236 29.0471 185.742C28.6737 184.249 33.1549 173.795 33.1549 173.795C33.1549 173.795 38.3829 168.195 36.1423 160.354V154.007L33.5283 135.713Z"
            fill="#C64756" />
        <path
            d="M57.4204 129.144L52.6731 130.178L52.063 127.841L52.2976 130.259L44.6392 131.927L44.3024 130.637L44.4319 131.973L39.5267 133.041L38.4774 122.97C37.3986 118.838 41.3358 114.433 45.4691 113.355L47.3027 112.876C50.3385 112.084 55.8567 112.805 56.649 115.84C55.2622 121.131 52.8982 126.933 57.4204 129.144Z"
            fill="#011825" />
    </g>
    <defs>
        <clipPath id="clip0_2262_8457">
            <rect width="346" height="260" fill="white" />
        </clipPath>
    </defs>
</svg>