<svg  viewBox="0 0 25 16" fill="none"
    xmlns="http://www.w3.org/2000/svg">
    <path d="M1 7C0.447715 7 0 7.44772 0 8C0 8.55228 0.447715 9 1 9V7ZM24.2127 8.70711C24.6032 8.31658 24.6032 7.68342 24.2127 7.29289L17.8487 0.928932C17.4582 0.538408 16.825 0.538408 16.4345 0.928932C16.044 1.31946 16.044 1.95262 16.4345 2.34315L22.0913 8L16.4345 13.6569C16.044 14.0474 16.044 14.6805 16.4345 15.0711C16.825 15.4616 17.4582 15.4616 17.8487 15.0711L24.2127 8.70711ZM1 9H23.5056V7H1V9Z" fill="currentColor"/>
</svg>
