<svg viewBox="0 0 42 33" fill="none"
    xmlns="http://www.w3.org/2000/svg">
    <path d="M33.6875 10.5V1.4C33.6875 0.6125 33.075 0 32.2875 0H32.025C31.2375 0 30.625 0.65625 30.625 1.4V1.8375C26.5125 3.85 21.875 6.08125 18.55 7.74375C18.375 7.48125 18.025 7.30625 17.675 7.39375C10.8063 8.96875 14.5688 8.09375 8.61875 9.49375C7.7875 9.66875 7.175 10.4125 7.0875 11.2875H4.8125C4.06875 11.2875 3.5 11.8563 3.5 12.6V15.05C3.5 15.7938 4.06875 16.3625 4.8125 16.3625H7.0875C7.13125 17.2375 7.74375 17.9375 8.61875 18.1563L10.325 18.55V19.2063C6.78125 19.2938 6.65 21.9188 3.54375 21.9188H0.4375C0.175 21.9188 0 22.0938 0 22.3563V31.5438C0 31.8063 0.175 31.9813 0.4375 31.9813C4.41875 31.9813 4.8125 31.8938 7.04375 32.4625C9.05625 32.9438 10.15 32.8563 14.9625 32.8563C15.8375 32.8563 16.5375 32.1562 16.5375 31.325C16.5375 30.975 16.5812 30.7125 16.4062 30.3625C17.2375 30.3625 17.9375 29.6625 17.9375 28.8313V28.525C17.9375 28.175 17.8062 27.825 17.5875 27.5625C17.9813 27.2563 18.2 26.8188 18.2 26.3375C18.2 25.9 18.2437 25.4188 17.7188 24.9375C18.2 24.4563 18.2 23.975 18.2 23.5375C18.2 22.7063 17.5 22.0063 16.6687 22.0063H15.8375V19.9063L17.675 20.3438C18.025 20.3875 18.375 20.2563 18.55 19.9938C28.175 24.7188 22.4875 21.9188 30.625 25.9V26.3375C30.625 27.125 31.2375 27.7375 32.025 27.7375C32.2 27.7375 32.1125 27.7375 32.2875 27.7375C33.075 27.7375 33.6875 27.0813 33.6875 26.2938V17.15C35.525 16.8438 36.75 15.0938 36.4438 13.2563C36.1813 11.8125 35.0875 10.7188 33.6875 10.5ZM14.5687 9.0125V14.4813L11.2 13.6938V9.75625C12.25 9.5375 11.55 9.7125 14.5687 9.0125ZM4.375 15.05V12.6C4.375 12.3375 4.55 12.1625 4.8125 12.1625H7.0875V15.4875H4.8125C4.59375 15.4875 4.375 15.2688 4.375 15.05ZM6.78125 31.4563C4.85625 30.975 3.675 31.0625 0.875 31.0625V22.75H3.54375C4.725 22.75 5.8625 22.3563 6.825 21.6125C7.74375 20.8688 8.61875 20.0813 10.325 20.0375H11.3313C12.2937 20.0375 13.125 20.825 13.1687 21.7875V25.1563C13.2125 25.375 12.9062 25.8563 12.3812 25.8563C11.9437 25.8563 11.55 25.5063 11.55 25.025V22.1813C11.55 21.9188 11.375 21.7438 11.1125 21.7438C10.85 21.7438 10.675 21.9188 10.675 22.1813C10.675 24.1063 9.1 25.6375 7.21875 25.6375C6.95625 25.6375 6.78125 25.8125 6.78125 26.075C6.78125 26.3375 6.95625 26.5125 7.21875 26.5125C8.61875 26.5125 9.8875 25.8563 10.7188 24.7625C10.7188 25.1125 10.7188 25.4625 10.9812 25.9V26.1625C10.9812 26.6438 11.2 27.0813 11.5938 27.3875C11.375 27.65 11.2438 28 11.2438 28.35C11.2438 28.7875 11.2 29.05 11.4187 29.4438C10.8063 29.6625 10.3688 30.2313 10.3688 30.8875C10.3688 31.2375 10.3687 31.5 10.5 31.85C9.14375 31.9375 8.575 31.8938 6.78125 31.4563ZM16.4937 25.2875C16.975 25.2875 17.3687 25.725 17.325 26.2063C17.2375 26.6438 16.8875 26.95 16.45 26.95H12.425C12.25 26.95 12.1187 26.9062 11.9875 26.775C12.95 26.9937 13.9125 26.2938 14 25.3313H16.4937V25.2875ZM11.8125 31.9375C11.4625 31.9375 11.1562 31.6313 11.1562 31.2813V30.975C11.1562 30.625 11.4625 30.3188 11.8125 30.3188H14.875C15.3125 30.3188 15.7063 30.6688 15.7063 31.15C15.75 31.5 15.3563 31.9813 14.8313 31.9813L11.8125 31.9375ZM17.0625 28.7438C17.0625 29.0938 16.8 29.4 16.45 29.4H12.6875C12.3375 29.4 12.0312 29.0938 12.0312 28.7438V28.4375C12.0312 28.0875 12.3375 27.7813 12.6875 27.7813C13.0375 27.7813 11.3312 27.7813 16.45 27.7813C16.8 27.825 17.0625 28.0875 17.0625 28.4813V28.7438ZM17.325 23.4937C17.3687 24.0188 16.975 24.4125 16.4937 24.4125H14V22.75H16.4062C16.8875 22.75 17.2375 23.0562 17.325 23.4937ZM14.9625 21.8313H14C13.9563 20.475 12.9062 19.2063 11.1562 19.2063V18.725L14.9625 19.6V21.8313ZM8.79375 17.2813C8.3125 17.15 7.9625 16.7125 7.9625 16.2313V11.4187C7.9625 10.8938 8.3125 10.4563 8.8375 10.3688L10.3688 10.0188V14.0875C10.3688 14.3063 10.5 14.4813 10.7188 14.525C15.225 15.575 14.9625 15.5313 15.05 15.4875C15.3125 15.4875 15.4875 15.2688 15.4875 15.05V8.79375C17.6313 8.26875 17.1063 8.4 17.8938 8.225C17.8938 10.2812 17.9375 17.325 17.9375 19.3813C14.1313 18.55 21.6125 20.2563 8.79375 17.2813ZM18.725 8.61875L24.8938 5.6V22.0063L18.725 18.9875V8.61875ZM25.7688 22.4438V5.1625L30.625 2.8V24.8062L25.7688 22.4438ZM32.8125 26.2063C32.8125 26.5125 32.5938 26.7313 32.2875 26.7313C32.3313 26.7313 32.0687 26.7313 32.025 26.7313C31.7187 26.7313 31.5 26.4688 31.5 26.2063V1.4C31.5 1.09375 31.7625 0.875 32.025 0.875H32.2875C32.55 0.875 32.8125 1.1375 32.8125 1.4V26.2063ZM33.6875 16.2313V11.375C35.0438 11.6813 35.875 13.0375 35.525 14.3938C35.3062 15.3125 34.6063 16.0125 33.6875 16.2313ZM39.6375 7.7875C39.4625 7.6125 39.2 7.6125 39.025 7.74375C38.85 7.875 38.85 8.18125 38.9813 8.35625C41.825 11.4188 41.825 16.1875 38.9813 19.25C38.8062 19.425 38.8062 19.6875 39.025 19.8625C39.2437 20.0375 39.4625 20.0375 39.6375 19.8188C42.7875 16.45 42.7875 11.2 39.6375 7.7875Z" fill="CurrentColor"/>
</svg>
