<svg class="h-5 text-[#3F3D56]"  viewBox="0 0 18 18" fill="none"
    xmlns="http://www.w3.org/2000/svg">
    <path d="M8.25 12.75L9.75 14.25C9.89774 14.3977 10.0731 14.5149 10.2662 14.5949C10.4592 14.6748 10.6661 14.716 10.875 14.716C11.0839 14.716 11.2908 14.6748 11.4838 14.5949C11.6769 14.5149 11.8523 14.3977 12 14.25C12.1477 14.1023 12.2649 13.9269 12.3449 13.7338C12.4248 13.5408 12.466 13.3339 12.466 13.125C12.466 12.9161 12.4248 12.7092 12.3449 12.5162C12.2649 12.3231 12.1477 12.1477 12 12" stroke="currentColor" stroke-width="2" stroke-linecap="round" stroke-linejoin="round"/>
    <path d="M10.4992 10.5L12.3742 12.375C12.6726 12.6734 13.0772 12.841 13.4992 12.841C13.9211 12.841 14.3258 12.6734 14.6242 12.375C14.9226 12.0766 15.0902 11.672 15.0902 11.25C15.0902 10.828 14.9226 10.4234 14.6242 10.125L11.7142 7.215C11.2923 6.79364 10.7204 6.55698 10.1242 6.55698C9.52794 6.55698 8.95607 6.79364 8.53419 7.215L7.87419 7.875C7.57582 8.17336 7.17115 8.34099 6.74919 8.34099C6.32724 8.34099 5.92256 8.17336 5.62419 7.875C5.32582 7.57663 5.1582 7.17195 5.1582 6.75C5.1582 6.32804 5.32582 5.92336 5.62419 5.625L7.73169 3.5175C8.41587 2.8351 9.30812 2.40041 10.2672 2.28223C11.2262 2.16404 12.1973 2.36912 13.0267 2.865L13.3792 3.075C13.6985 3.26774 14.0782 3.33458 14.4442 3.2625L15.7492 3" stroke="currentColor" stroke-width="2" stroke-linecap="round" stroke-linejoin="round"/>
    <path d="M15.75 2.25L16.5 10.5H15" stroke="currentColor" stroke-width="2" stroke-linecap="round" stroke-linejoin="round"/>
    <path d="M2.25 2.25L1.5 10.5L6.375 15.375C6.67337 15.6734 7.07804 15.841 7.5 15.841C7.92196 15.841 8.32663 15.6734 8.625 15.375C8.92337 15.0766 9.09099 14.672 9.09099 14.25C9.09099 13.828 8.92337 13.4234 8.625 13.125" stroke="currentColor" stroke-width="2" stroke-linecap="round" stroke-linejoin="round"/>
    <path d="M2.25 3H8.25" stroke="currentColor" stroke-width="2" stroke-linecap="round" stroke-linejoin="round"/>
</svg>
