<svg viewBox="0 0 18 18" fill="none"
    xmlns="http://www.w3.org/2000/svg">
    <g clip-path="url(#clip0_476_2939)">
        <path d="M7.5 9.75C7.82209 10.1806 8.23302 10.5369 8.70491 10.7947C9.17681 11.0525 9.69863 11.2058 10.235 11.2443C10.7713 11.2827 11.3097 11.2053 11.8135 11.0173C12.3173 10.8294 12.7748 10.5353 13.155 10.155L15.405 7.905C16.0881 7.19774 16.4661 6.25048 16.4575 5.26725C16.449 4.28401 16.0546 3.34346 15.3593 2.64818C14.664 1.9529 13.7235 1.55852 12.7403 1.54997C11.757 1.54143 10.8098 1.91941 10.1025 2.6025L8.8125 3.885" stroke="currentColor" stroke-width="2" stroke-linecap="round" stroke-linejoin="round"/>
        <path d="M10.5006 8.24992C10.1785 7.81933 9.76762 7.46304 9.29573 7.20522C8.82383 6.9474 8.30201 6.79409 7.76565 6.75567C7.22929 6.71726 6.69095 6.79465 6.18713 6.98259C5.68331 7.17053 5.2258 7.46462 4.84564 7.84492L2.59564 10.0949C1.91255 10.8022 1.53457 11.7494 1.54311 12.7327C1.55165 13.7159 1.94604 14.6565 2.64132 15.3517C3.3366 16.047 4.27715 16.4414 5.26038 16.45C6.24362 16.4585 7.19088 16.0805 7.89814 15.3974L9.18064 14.1149" stroke="currentColor" stroke-width="2" stroke-linecap="round" stroke-linejoin="round"/>
    </g>
    <defs>
        <clipPath id="clip0_476_2939">
            <rect width="18" height="18" fill="white"/>
        </clipPath>
    </defs>
</svg>
