<svg viewBox="0 0 170 32" fill="none"
    xmlns="http://www.w3.org/2000/svg">
    <g clip-path="url(#clip0_47_830)">
        <path d="M44.859 26.1473H1.08759C0.486778 26.1473 0 26.6317 0 27.2308C0 27.8293 0.486165 28.3142 1.08759 28.3142H44.8584C45.4592 28.3142 45.9459 27.8299 45.9459 27.2308C45.9459 26.6323 45.4598 26.1473 44.859 26.1473Z" fill="currentColor"/>
        <path d="M6.56786 7.81309L12.1664 23.2506C12.3277 23.691 12.7439 23.9658 13.1902 23.9658C13.3135 23.9658 13.4385 23.9444 13.5599 23.9023C14.1252 23.6971 14.4182 23.0772 14.2141 22.5141L8.86442 7.76423L23.7136 2.45084L31.9661 22.5483C32.1384 22.9672 32.5436 23.2213 32.9728 23.2213C33.1107 23.2213 33.2487 23.1957 33.3848 23.1407C33.9414 22.9141 34.2069 22.2814 33.9795 21.7274L25.3327 0.669941C25.3217 0.642458 25.3051 0.61925 25.2916 0.593599C25.2751 0.56123 25.2598 0.528251 25.2408 0.498325C25.2199 0.466567 25.196 0.437862 25.1727 0.408547C25.1525 0.383507 25.1335 0.357244 25.1114 0.334037C25.0814 0.302278 25.0476 0.275407 25.0139 0.247924C24.9949 0.232655 24.9771 0.215555 24.9575 0.201508C24.9146 0.170971 24.8692 0.14593 24.8233 0.122112C24.8098 0.115394 24.7969 0.106843 24.7834 0.100736C24.7282 0.0750852 24.6712 0.0555427 24.613 0.0396636C24.6056 0.0378314 24.5989 0.0347767 24.5921 0.0329445C24.5296 0.0170654 24.4664 0.00790455 24.4015 0.00301868C24.3959 0.00240795 24.391 0.00179705 24.3855 0.00118632C24.3254 -0.00186735 24.2647 0.00118729 24.2034 0.00790536C24.1906 0.00912683 24.1783 0.00912632 24.1654 0.0109585C24.1188 0.0176766 24.0722 0.0305025 24.0263 0.0439387C24.0042 0.050046 23.9821 0.0518777 23.9601 0.0598172L7.22507 6.04807C6.71806 6.23007 6.4336 6.74797 6.52495 7.25854C6.49184 7.43932 6.50104 7.62865 6.56786 7.81309Z" fill="currentColor"/>
        <path d="M22.0855 9.38512L19.3089 16.6449L16.6457 14.4909C16.1785 14.1098 15.4944 14.1843 15.1167 14.6472C14.7366 15.1126 14.8089 15.7942 15.2736 16.1704L19.1035 19.268C19.1115 19.2747 19.1219 19.2766 19.1305 19.2833C19.2126 19.3456 19.3015 19.4012 19.4033 19.4396C19.4076 19.4415 19.4125 19.4421 19.4168 19.4433C19.4339 19.4494 19.4505 19.4525 19.4677 19.458C19.5743 19.4915 19.6816 19.5117 19.7895 19.5117C19.887 19.5117 19.9826 19.494 20.0764 19.4683C20.1034 19.461 20.1286 19.4512 20.1549 19.4421C20.2224 19.4183 20.2867 19.3871 20.3493 19.3492C20.3738 19.3346 20.3983 19.3218 20.4216 19.3053C20.4982 19.2503 20.5706 19.188 20.6331 19.1117L20.6343 19.1098C20.6405 19.1025 20.6441 19.094 20.6497 19.086C20.7091 19.0085 20.7545 18.9254 20.7901 18.8393C20.7937 18.8295 20.8011 18.8228 20.8048 18.813L24.116 10.1546C24.3305 9.59582 24.0504 8.96982 23.487 8.75789C22.9309 8.54719 22.2982 8.82263 22.0855 9.38512Z" fill="currentColor"/>
        <path d="M44.5275 29.8331H25.6774C25.0766 29.8331 24.5898 30.3174 24.5898 30.9166C24.5898 31.5151 25.076 32 25.6774 32H44.5275C45.1283 32 45.6151 31.5157 45.6151 30.9166C45.6151 30.318 45.1289 29.8331 44.5275 29.8331Z" fill="currentColor"/>
        <path d="M59.868 9.71944C60.273 9.16727 60.9712 8.6735 61.9625 8.23813C62.9539 7.80276 64.0358 7.58508 65.2083 7.58508C67.0204 7.58508 68.5926 7.98859 69.9251 8.79561C71.2575 9.60264 72.2754 10.7017 72.979 12.0927C73.6825 13.4838 74.0342 15.0288 74.0342 16.7278C74.0342 18.4268 73.6825 19.9718 72.979 21.3629C72.2754 22.7539 71.2575 23.8529 69.9251 24.66C68.5926 25.467 67.0204 25.8705 65.2083 25.8705C63.9931 25.8705 62.9219 25.6634 61.9945 25.2493C61.0672 24.8352 60.3583 24.3095 59.868 23.6724V31.1268H55.1353V7.96735H59.868V9.71944ZM60.9872 20.3116C61.8613 21.2354 63.0338 21.6973 64.5048 21.6973C65.9971 21.6973 67.175 21.2354 68.0384 20.3116C68.9018 19.3878 69.3335 18.1932 69.3335 16.7278C69.3335 15.3049 68.8911 14.1262 68.0064 13.1918C67.1217 12.2573 65.9545 11.7901 64.5048 11.7901C63.0125 11.7901 61.8346 12.2308 60.9712 13.1121C60.1078 13.9935 59.6761 15.1987 59.6761 16.7278C59.6761 18.1932 60.1132 19.3878 60.9872 20.3116ZM92.7253 9.59202C93.8233 10.8875 94.3722 12.7352 94.3722 15.135V25.4882H89.5116V15.135C89.5116 13.882 89.1971 12.9794 88.5682 12.4272C87.9393 11.875 87.1132 11.599 86.0899 11.599C85.2159 11.599 84.4271 11.9441 83.7236 12.6343C83.02 13.3245 82.6896 14.5191 82.7322 16.2181V25.4882H77.9675V1.37314H82.7322V9.5283C83.3078 8.95489 84.0327 8.49829 84.9067 8.15849C85.7808 7.81869 86.6229 7.64879 87.433 7.64879C89.8633 7.64879 91.6274 8.29653 92.7253 9.59202ZM112.376 23.7361C111.971 24.2883 111.273 24.7821 110.281 25.2174C109.29 25.6528 108.208 25.8705 107.035 25.8705C105.223 25.8705 103.651 25.467 102.319 24.66C100.986 23.8529 99.9684 22.7539 99.2648 21.3629C98.5613 19.9718 98.2096 18.4268 98.2096 16.7278C98.2096 15.0288 98.5613 13.4838 99.2648 12.0927C99.9684 10.7017 100.986 9.60264 102.319 8.79561C103.651 7.98859 105.223 7.58508 107.035 7.58508C108.251 7.58508 109.322 7.79214 110.249 8.20627C111.177 8.6204 111.885 9.14603 112.376 9.78315V7.96735H117.109V25.4882H112.376V23.7361ZM111.257 13.144C110.383 12.2201 109.21 11.7582 107.739 11.7582C106.247 11.7582 105.069 12.2201 104.205 13.144C103.342 14.0678 102.91 15.2624 102.91 16.7278C102.91 18.1507 103.353 19.3294 104.237 20.2638C105.122 21.1983 106.289 21.6655 107.739 21.6655C109.231 21.6655 110.409 21.2248 111.273 20.3435C112.136 19.4621 112.568 18.2569 112.568 16.7278C112.568 15.2624 112.131 14.0678 111.257 13.144ZM121.873 1.40499H126.67V25.4882H121.873V1.40499ZM135.208 24.7077C133.737 23.8901 132.57 22.7804 131.706 21.3788C130.843 19.9771 130.411 18.448 130.411 16.7915C130.411 15.135 130.843 13.6112 131.706 12.2201C132.57 10.8291 133.732 9.72475 135.192 8.90711C136.652 8.08947 138.246 7.68065 139.973 7.68065C141.828 7.68065 143.506 8.12132 145.009 9.00268C146.512 9.88403 147.711 11.1423 148.607 12.7776L144.29 14.466C143.778 13.5953 143.149 12.9422 142.403 12.5069C141.657 12.0715 140.847 11.8538 139.973 11.8538C138.587 11.8538 137.441 12.321 136.535 13.2555C135.629 14.1899 135.176 15.3686 135.176 16.7915C135.176 18.2144 135.634 19.3931 136.551 20.3275C137.468 21.262 138.619 21.7292 140.005 21.7292C141.923 21.7292 143.405 20.8797 144.45 19.1807L148.511 20.7735C146.827 24.214 143.991 25.9342 140.005 25.9342C138.278 25.9342 136.679 25.5254 135.208 24.7077ZM155.626 24.6759C154.166 23.8582 153.009 22.7486 152.156 21.3469C151.304 19.9453 150.877 18.4162 150.877 16.7596C150.877 15.1244 151.304 13.6059 152.156 12.2042C153.009 10.8025 154.166 9.69289 155.626 8.87525C157.086 8.05761 158.68 7.64879 160.407 7.64879C162.134 7.64879 163.732 8.05761 165.203 8.87525C166.674 9.69289 167.842 10.8025 168.705 12.2042C169.568 13.6059 170 15.1244 170 16.7596C170 18.4162 169.568 19.9453 168.705 21.3469C167.842 22.7486 166.674 23.8582 165.203 24.6759C163.732 25.4935 162.134 25.9023 160.407 25.9023C158.68 25.9023 157.086 25.4935 155.626 24.6759ZM157.976 12.475C157.23 12.9104 156.644 13.505 156.218 14.2589C155.791 15.0129 155.578 15.8464 155.578 16.7596C155.578 17.7153 155.786 18.5701 156.202 19.3241C156.617 20.078 157.193 20.6726 157.928 21.108C158.664 21.5434 159.49 21.7611 160.407 21.7611C161.302 21.7611 162.118 21.5434 162.853 21.108C163.589 20.6726 164.169 20.0727 164.596 19.3081C165.022 18.5436 165.235 17.6941 165.235 16.7596C165.235 15.8464 165.022 15.0129 164.596 14.2589C164.169 13.505 163.589 12.9104 162.853 12.475C162.118 12.0396 161.302 11.8219 160.407 11.8219C159.533 11.8219 158.723 12.0396 157.976 12.475Z" fill="currentColor"/>
    </g>
    <defs>
        <clipPath id="clip0_47_830">
            <rect width="170" height="32" fill="white"/>
        </clipPath>
    </defs>
</svg>
