<svg width="235" height="45" opacity="0.5" viewBox="0 0 100 24" fill="none"
    xmlns="http://www.w3.org/2000/svg">
    <g clip-path="url(#clip0_69_267)">
        <path d="M24.8044 14.7079H0.601372C0.26916 14.7079 0 14.9803 0 15.3173C0 15.654 0.268821 15.9268 0.601372 15.9268H24.804C25.1362 15.9268 25.4054 15.6543 25.4054 15.3173C25.4054 14.9807 25.1366 14.7079 24.8044 14.7079Z" fill="#07689F"/>
        <path d="M3.63167 4.39486L6.72734 13.0785C6.8165 13.3262 7.04667 13.4808 7.29346 13.4808C7.3616 13.4808 7.43075 13.4687 7.49787 13.445C7.81042 13.3296 7.97246 12.9809 7.85958 12.6642L4.90153 4.36738L13.1123 1.3786L17.6754 12.6834C17.7707 12.9191 17.9948 13.062 18.232 13.062C18.3083 13.062 18.3846 13.0476 18.4598 13.0166C18.7677 12.8892 18.9144 12.5333 18.7887 12.2217L14.0075 0.376842C14.0014 0.361383 13.9923 0.348328 13.9848 0.3339C13.9757 0.315692 13.9672 0.297141 13.9567 0.280308C13.9452 0.262444 13.9319 0.246298 13.9191 0.229808C13.9079 0.215723 13.8974 0.20095 13.8852 0.187896C13.8685 0.170032 13.8499 0.154916 13.8313 0.139457C13.8207 0.130869 13.8109 0.12125 13.8001 0.113348C13.7763 0.0961712 13.7513 0.0820858 13.7258 0.0686878C13.7184 0.0649089 13.7113 0.0600994 13.7038 0.056664C13.6733 0.0422354 13.6418 0.0312428 13.6096 0.0223108C13.6055 0.0212801 13.6018 0.0195619 13.598 0.0185313C13.5635 0.00959931 13.5285 0.00444631 13.4926 0.00169801C13.4896 0.00135447 13.4868 0.00101084 13.4838 0.000667304C13.4506 -0.00105039 13.417 0.000667849 13.3831 0.00444677C13.376 0.00513384 13.3692 0.00513356 13.3621 0.00616417C13.3363 0.00994309 13.3106 0.0171577 13.2851 0.0247155C13.2729 0.0281509 13.2607 0.0291812 13.2485 0.0336472L3.99507 3.40204C3.71472 3.50441 3.55743 3.79573 3.60794 4.08293C3.58963 4.18462 3.59472 4.29111 3.63167 4.39486Z" fill="#07689F"/>
        <path d="M12.2118 5.27916L10.6765 9.3628L9.20396 8.15114C8.94564 7.93677 8.56733 7.97868 8.35851 8.23908C8.14833 8.50086 8.18833 8.88425 8.44529 9.09587L10.563 10.8383C10.5674 10.8421 10.5731 10.8431 10.5779 10.8469C10.6233 10.8819 10.6725 10.9132 10.7287 10.9348C10.7311 10.9359 10.7338 10.9362 10.7362 10.9369C10.7457 10.9403 10.7548 10.942 10.7643 10.9451C10.8233 10.964 10.8826 10.9754 10.9423 10.9754C10.9962 10.9754 11.0491 10.9654 11.101 10.951C11.1159 10.9469 11.1298 10.9414 11.1443 10.9362C11.1816 10.9228 11.2172 10.9053 11.2518 10.884C11.2654 10.8757 11.2789 10.8685 11.2918 10.8592C11.3342 10.8283 11.3742 10.7933 11.4088 10.7503L11.4094 10.7493C11.4128 10.7452 11.4149 10.7404 11.4179 10.7359C11.4508 10.6923 11.4759 10.6456 11.4955 10.5971C11.4976 10.5916 11.5016 10.5879 11.5037 10.5824L13.3346 5.71202C13.4532 5.39768 13.2983 5.04555 12.9868 4.92635C12.6793 4.80783 12.3295 4.96276 12.2118 5.27916Z" fill="#07689F"/>
        <path d="M24.621 16.7811H14.1981C13.8658 16.7811 13.5967 17.0536 13.5967 17.3906C13.5967 17.7272 13.8655 18 14.1981 18H24.621C24.9532 18 25.2224 17.7276 25.2224 17.3906C25.2224 17.0539 24.9536 16.7811 24.621 16.7811Z" fill="#07689F"/>
        <path d="M33.1034 5.4672C33.3273 5.1566 33.7134 4.87885 34.2615 4.63396C34.8097 4.38906 35.4079 4.26662 36.0563 4.26662C37.0582 4.26662 37.9276 4.49359 38.6643 4.94754C39.4011 5.40149 39.964 6.0197 40.353 6.80217C40.742 7.58463 40.9365 8.4537 40.9365 9.40939C40.9365 10.3651 40.742 11.2341 40.353 12.0166C39.964 12.7991 39.4011 13.4173 38.6643 13.8712C37.9276 14.3252 37.0582 14.5522 36.0563 14.5522C35.3843 14.5522 34.792 14.4357 34.2792 14.2027C33.7664 13.9698 33.3745 13.6741 33.1034 13.3157V17.5088H30.4865V4.48165H33.1034V5.4672ZM33.7222 11.4253C34.2056 11.9449 34.8539 12.2048 35.6673 12.2048C36.4924 12.2048 37.1437 11.9449 37.6211 11.4253C38.0985 10.9056 38.3372 10.2337 38.3372 9.40939C38.3372 8.609 38.0926 7.946 37.6034 7.42037C37.1142 6.89475 36.4688 6.63193 35.6673 6.63193C34.8421 6.63193 34.1908 6.87981 33.7134 7.37557C33.236 7.87134 32.9973 8.54927 32.9973 9.40939C32.9973 10.2337 33.2389 10.9056 33.7222 11.4253ZM51.2716 5.39552C51.8786 6.12423 52.1822 7.16353 52.1822 8.51344V14.3371H49.4945V8.51344C49.4945 7.80862 49.3207 7.30091 48.9729 6.99032C48.6252 6.67972 48.1684 6.52442 47.6026 6.52442C47.1193 6.52442 46.6831 6.71854 46.2941 7.10679C45.9051 7.49504 45.7224 8.167 45.746 9.12268V14.3371H43.1114V0.7724H45.746V5.35968C46.0642 5.03714 46.465 4.7803 46.9483 4.58916C47.4316 4.39802 47.8973 4.30246 48.3452 4.30246C49.689 4.30246 50.6645 4.66681 51.2716 5.39552ZM62.1371 13.3516C61.9131 13.6622 61.5271 13.9399 60.9789 14.1848C60.4308 14.4297 59.8326 14.5522 59.1842 14.5522C58.1823 14.5522 57.3129 14.3252 56.5761 13.8712C55.8394 13.4173 55.2765 12.7991 54.8875 12.0166C54.4985 11.2341 54.304 10.3651 54.304 9.40939C54.304 8.4537 54.4985 7.58463 54.8875 6.80217C55.2765 6.0197 55.8394 5.40149 56.5761 4.94754C57.3129 4.49359 58.1823 4.26662 59.1842 4.26662C59.8561 4.26662 60.4485 4.38309 60.9613 4.61604C61.474 4.84899 61.866 5.14465 62.1371 5.50303V4.48165H64.754V14.3371H62.1371V13.3516ZM61.5182 7.39349C61.0349 6.87384 60.3866 6.61402 59.5732 6.61402C58.7481 6.61402 58.0968 6.87384 57.6194 7.39349C57.142 7.91315 56.9033 8.58511 56.9033 9.40939C56.9033 10.2098 57.1479 10.8728 57.6371 11.3984C58.1263 11.924 58.7716 12.1868 59.5732 12.1868C60.3984 12.1868 61.0497 11.939 61.5271 11.4432C62.0045 10.9474 62.2432 10.2695 62.2432 9.40939C62.2432 8.58511 62.0015 7.91315 61.5182 7.39349ZM67.3886 0.790319H70.0409V14.3371H67.3886V0.790319ZM74.762 13.8981C73.9486 13.4382 73.3033 12.814 72.8258 12.0256C72.3484 11.2371 72.1097 10.377 72.1097 9.44523C72.1097 8.51344 72.3484 7.65631 72.8258 6.87384C73.3033 6.09138 73.9457 5.47018 74.7532 5.01026C75.5606 4.55034 76.4418 4.32037 77.3966 4.32037C78.4222 4.32037 79.3505 4.56825 80.1815 5.06402C81.0126 5.55978 81.6756 6.26758 82.1707 7.18743L79.7837 8.13714C79.5008 7.64735 79.153 7.28001 78.7404 7.03511C78.3279 6.79022 77.8799 6.66777 77.3966 6.66777C76.6304 6.66777 75.9968 6.93058 75.4958 7.45621C74.9948 7.98184 74.7443 8.64484 74.7443 9.44523C74.7443 10.2456 74.9978 10.9086 75.5047 11.4342C76.0115 11.9599 76.6481 12.2227 77.4143 12.2227C78.4752 12.2227 79.2945 11.7448 79.8721 10.7892L82.1177 11.6851C81.1864 13.6204 79.6186 14.588 77.4143 14.588C76.4595 14.588 75.5754 14.358 74.762 13.8981ZM86.0519 13.8802C85.2445 13.4203 84.605 12.7961 84.1334 12.0077C83.6619 11.2192 83.4262 10.3591 83.4262 9.42731C83.4262 8.50746 83.6619 7.65332 84.1334 6.86488C84.605 6.07644 85.2445 5.45226 86.0519 4.99234C86.8594 4.53242 87.7406 4.30246 88.6954 4.30246C89.6502 4.30246 90.5343 4.53242 91.3477 4.99234C92.161 5.45226 92.8064 6.07644 93.2838 6.86488C93.7613 7.65332 94 8.50746 94 9.42731C94 10.3591 93.7613 11.2192 93.2838 12.0077C92.8064 12.7961 92.161 13.4203 91.3477 13.8802C90.5343 14.3401 89.6502 14.5701 88.6954 14.5701C87.7406 14.5701 86.8594 14.3401 86.0519 13.8802ZM87.3515 7.01719C86.939 7.26209 86.6148 7.59658 86.379 8.02066C86.1433 8.44475 86.0254 8.91363 86.0254 9.42731C86.0254 9.96488 86.1403 10.4457 86.3702 10.8698C86.6001 11.2939 86.9183 11.6284 87.325 11.8733C87.7317 12.1182 88.1885 12.2406 88.6954 12.2406C89.1905 12.2406 89.6414 12.1182 90.048 11.8733C90.4547 11.6284 90.7759 11.2909 91.0117 10.8608C91.2475 10.4308 91.3653 9.95293 91.3653 9.42731C91.3653 8.91363 91.2475 8.44475 91.0117 8.02066C90.7759 7.59658 90.4547 7.26209 90.048 7.01719C89.6414 6.7723 89.1905 6.64985 88.6954 6.64985C88.2121 6.64985 87.7641 6.7723 87.3515 7.01719Z" fill="#07689F"/>
    </g>
    <defs>
        <clipPath id="clip0_69_267">
            <rect width="94" height="18" fill="white"/>
        </clipPath>
    </defs>
</svg>
