<svg viewBox="0 0 59 41" fill="none"
    xmlns="http://www.w3.org/2000/svg">
    <path d="M8.33688 9.91799L15.4437 29.5145C15.6484 30.0735 16.1768 30.4223 16.7434 30.4223C16.8998 30.4223 17.0586 30.3952 17.2127 30.3417C17.9302 30.0812 18.3022 29.2943 18.043 28.5795L11.2521 9.85597L30.1018 3.11112L40.5776 28.6229C40.7963 29.1548 41.3107 29.4773 41.8555 29.4773C42.0306 29.4773 42.2057 29.4447 42.3784 29.3749C43.0851 29.0873 43.4221 28.2841 43.1333 27.581L32.1571 0.850428C32.1431 0.81554 32.1221 0.78608 32.105 0.753519C32.084 0.71243 32.0645 0.670565 32.0404 0.632577C32.0139 0.592263 31.9836 0.555825 31.954 0.518612C31.9283 0.486826 31.9042 0.453488 31.8762 0.424028C31.838 0.383714 31.7952 0.349603 31.7524 0.314716C31.7283 0.295334 31.7057 0.273627 31.6808 0.255795C31.6263 0.217032 31.5688 0.185245 31.5104 0.155009C31.4933 0.146481 31.4769 0.135628 31.4598 0.127875C31.3898 0.0953137 31.3174 0.0705062 31.2435 0.0503492C31.2341 0.0480234 31.2256 0.0441458 31.217 0.04182C31.1376 0.021663 31.0575 0.0100341 30.975 0.00383193C30.968 0.00305666 30.9617 0.00228119 30.9547 0.00150592C30.8785 -0.00237043 30.8014 0.00150715 30.7236 0.0100351C30.7073 0.0115857 30.6917 0.011585 30.6753 0.0139108C30.6162 0.0224388 30.5571 0.0387201 30.4987 0.0557761C30.4707 0.0635288 30.4427 0.0658539 30.4146 0.0759324L9.17114 7.67746C8.52754 7.90849 8.16644 8.56591 8.2824 9.21404C8.24037 9.44352 8.25205 9.68385 8.33688 9.91799Z" fill="none" stroke="currentColor" stroke-width="2" stroke-linecap="round" stroke-dasharray="100" stroke-dashoffset="100">
        <!-- Stroke animation -->
        <animate attributeName="stroke-dashoffset" from="100" to="0" dur="2s" repeatCount="indefinite" />
        <!-- Opacity animation -->
        <animate attributeName="opacity" values="1;0.4;1" dur="2s" repeatCount="indefinite" />
    </path>


    <path d="M56.9443 33.1917H1.38059C0.617919 33.1917 0 33.8064 0 34.567C0 35.3267 0.617141 35.9423 1.38059 35.9423H56.9435C57.7062 35.9423 58.3241 35.3275 58.3241 34.567C58.3241 33.8072 57.7069 33.1917 56.9443 33.1917Z" fill="currentColor" stroke-width="2" stroke-linecap="round" stroke-dasharray="100" stroke-dashoffset="100">
        <animate attributeName="opacity" values="1;0.4;1" dur="2s" repeatCount="indefinite" />
    </path>
    <path d="M56.5229 37.8704H32.5945C31.8318 37.8704 31.2139 38.4851 31.2139 39.2457C31.2139 40.0055 31.831 40.621 32.5945 40.621H56.5229C57.2855 40.621 57.9034 40.0062 57.9034 39.2457C57.9034 38.4859 57.2863 37.8704 56.5229 37.8704Z" fill="currentColor" stroke-width="2" stroke-linecap="round" stroke-dasharray="100" stroke-dashoffset="100">
        <animate attributeName="opacity" values="1;0.4;1" dur="2s" repeatCount="indefinite" />
    </path>
    <path d="M28.035 11.9135L24.5104 21.1291L21.1297 18.3948C20.5367 17.911 19.6682 18.0056 19.1888 18.5932C18.7063 19.184 18.7982 20.0492 19.3881 20.5267L24.2497 24.4589C24.2598 24.4674 24.273 24.4698 24.2839 24.4783C24.3882 24.5574 24.5011 24.6279 24.6302 24.6768C24.6357 24.6791 24.6419 24.6799 24.6474 24.6814C24.6692 24.6892 24.6902 24.693 24.712 24.7C24.8474 24.7427 24.9836 24.7682 25.1205 24.7682C25.2443 24.7682 25.3657 24.7458 25.4848 24.7132C25.519 24.7039 25.5509 24.6915 25.5844 24.6799C25.67 24.6496 25.7517 24.6101 25.8311 24.562C25.8622 24.5434 25.8933 24.5271 25.9229 24.5062C26.0202 24.4364 26.112 24.3574 26.1914 24.2604L26.1929 24.2581C26.2007 24.2488 26.2054 24.238 26.2124 24.2279C26.2879 24.1294 26.3455 24.024 26.3906 23.9147C26.3953 23.9023 26.4046 23.8937 26.4093 23.8813L30.6125 12.8903C30.8849 12.181 30.5293 11.3863 29.8141 11.1173C29.1082 10.8498 28.3051 11.1995 28.035 11.9135Z" fill="currentColor" stroke-width="2" stroke-linecap="round" stroke-dasharray="100" stroke-dashoffset="100">
        <animate attributeName="opacity" values="1;0.4;1" dur="2s" repeatCount="indefinite" />
    </path>
</svg>
