<svg width="32" height="16" viewBox="0 0 32 16" fill="none" xmlns="http://www.w3.org/2000/svg">
<path d="M16 0C7.1635 0 0 3.58175 0 8C0 12.4183 7.1635 16 16 16C24.8365 16 32 12.4183 32 8C32 3.58175 24.8365 0 16 0ZM16 14.737C7.861 14.737 1.263 11.7207 1.263 8C1.263 4.27925 7.861 1.263 16 1.263C24.139 1.263 30.737 4.27925 30.737 8C30.737 11.7207 24.139 14.737 16 14.737ZM13.9822 6.5965V5.33325H18.496V6.5965H16.871V10.6667H15.6075V6.5965H13.9822ZM23.9445 5.33325V10.6667H22.6815L20.3908 7.49175V10.6667H19.1278V5.33325H20.3908L22.6815 8.50825V5.33325H23.9445ZM8.018 10.6667V5.33325H9.281L10.6842 7.49175L12.0875 5.33325H13.35V10.6667H12.0875V7.65L11.1295 9.1225H10.239L9.281 7.65V10.6667H8.018Z" fill="#FFCC00"/>
</svg>
