<svg  viewBox="0 0 22 22" fill="none" class="h-6 text-[#3F3D56]"
    xmlns="http://www.w3.org/2000/svg">
    <g clip-path="url(#clip0_633_32541)">
        <path d="M6.41602 9.16666V20.1667" stroke="currentColor" stroke-width="2" stroke-linecap="round" stroke-linejoin="round"/>
        <path d="M13.7507 5.39L12.834 9.16667H18.1782C18.4628 9.16667 18.7435 9.23294 18.998 9.36022C19.2526 9.4875 19.474 9.67231 19.6448 9.9C19.8156 10.1277 19.931 10.392 19.9819 10.672C20.0328 10.9521 20.0178 11.2401 19.9382 11.5133L17.8023 18.8467C17.6912 19.2275 17.4597 19.562 17.1423 19.8C16.825 20.038 16.439 20.1667 16.0423 20.1667H3.66732C3.18109 20.1667 2.71477 19.9735 2.37096 19.6297C2.02714 19.2859 1.83398 18.8196 1.83398 18.3333V11C1.83398 10.5138 2.02714 10.0475 2.37096 9.70364C2.71477 9.35982 3.18109 9.16667 3.66732 9.16667H6.19732C6.5384 9.16649 6.87266 9.07116 7.16253 8.89141C7.45239 8.71166 7.68637 8.45461 7.83815 8.14917L11.0007 1.83334C11.4329 1.83869 11.8584 1.94166 12.2453 2.13455C12.6322 2.32744 12.9705 2.60527 13.2349 2.94727C13.4994 3.28928 13.6831 3.68662 13.7724 4.1096C13.8617 4.53259 13.8543 4.97029 13.7507 5.39Z" stroke="currentColor" stroke-width="2" stroke-linecap="round" stroke-linejoin="round"/>
    </g>
    <defs>
        <clipPath id="clip0_633_32541">
            <rect width="22" height="22" fill="white"/>
        </clipPath>
    </defs>
</svg>
