<svg width="133" height="182" viewBox="0 0 133 182" fill="none" xmlns="http://www.w3.org/2000/svg">
<g clip-path="url(#clip0_132_336)">
<path d="M117.726 181.706H59.8212C51.3987 181.706 44.5474 174.857 44.5474 166.437V15.2693C44.5474 6.84932 51.3987 0 59.8212 0H117.726C126.149 0 133 6.84932 133 15.2693V166.437C133 174.857 126.149 181.706 117.726 181.706Z" fill="#DADBDC"/>
<path d="M117.768 177.573H59.7791C53.5455 177.573 48.4722 172.501 48.4722 166.269V15.1404C48.4722 8.90858 53.5455 3.83679 59.7791 3.83679H117.768C124.002 3.83679 129.075 8.90858 129.075 15.1404V166.269C129.075 172.501 124.002 177.573 117.768 177.573Z" fill="white"/>
<path d="M96.974 13.8964H80.5758C78.4109 13.8964 76.6509 12.1369 76.6509 9.97269C76.6509 7.80849 78.4109 6.04895 80.5758 6.04895H96.974C99.1389 6.04895 100.899 7.80849 100.899 9.97269C100.899 12.1369 99.1389 13.8964 96.974 13.8964Z" fill="#DADBDC"/>
<path d="M113.708 60.0462H65.7251C64.7746 60.0462 64.001 59.063 64.001 57.858C64.001 56.653 64.7746 55.6698 65.7251 55.6698H113.708C114.659 55.6698 115.433 56.653 115.433 57.858C115.433 59.063 114.659 60.0462 113.708 60.0462Z" fill="#DADBDC"/>
<path d="M113.708 69.7432H65.7251C64.7746 69.7432 64.001 68.76 64.001 67.555C64.001 66.35 64.7746 65.3668 65.7251 65.3668H113.708C114.659 65.3668 115.433 66.35 115.433 67.555C115.433 68.76 114.659 69.7432 113.708 69.7432Z" fill="#DADBDC"/>
<path d="M99.9488 79.4401H65.7251C64.7746 79.4401 64.001 78.4569 64.001 77.2519C64.001 76.0469 64.7746 75.0637 65.7251 75.0637H99.9488C100.899 75.0637 101.673 76.0469 101.673 77.2519C101.673 78.4569 100.899 79.4401 99.9488 79.4401Z" fill="#DADBDC"/>
<path d="M88.7736 136.453C100.086 136.453 109.256 127.285 109.256 115.977C109.256 104.668 100.086 95.5007 88.7736 95.5007C77.4616 95.5007 68.2915 104.668 68.2915 115.977C68.2915 127.285 77.4616 136.453 88.7736 136.453Z" fill="#00980F"/>
<path d="M83.3255 116.402C84.3839 118.474 85.4423 120.548 86.5008 122.619C86.8036 123.216 87.6941 123.027 87.871 122.439C89.2593 117.811 91.8379 113.594 95.3131 110.239C96.0087 109.568 94.9473 108.51 94.2516 109.178C90.5936 112.709 87.886 117.173 86.4228 122.041L87.7931 121.861C86.7346 119.79 85.6762 117.715 84.6178 115.644C84.18 114.784 82.8847 115.542 83.3225 116.399H83.3255V116.402Z" fill="white"/>
<path d="M33.558 91.2084L28.5926 92.902L28.5146 85.7349L33.0332 85.684L33.558 91.2084Z" fill="#F3A3A6"/>
<path d="M29.0967 87.7132C31.839 87.7132 34.062 85.4908 34.062 82.7493C34.062 80.0078 31.839 77.7854 29.0967 77.7854C26.3544 77.7854 24.1313 80.0078 24.1313 82.7493C24.1313 85.4908 26.3544 87.7132 29.0967 87.7132Z" fill="#F3A3A6"/>
<path d="M30.455 82.2427C29.6244 82.2277 29.0697 81.3944 28.7369 80.63C28.404 79.8687 28.0622 78.9904 27.2916 78.6817C26.659 78.4299 25.5676 80.1894 25.0638 79.7308C24.5391 79.2512 25.0189 76.7513 25.5646 76.2986C26.1103 75.846 26.8629 75.7501 27.5705 75.7081C29.3006 75.6092 31.0396 75.7291 32.7397 76.0648C33.7892 76.2717 34.8746 76.5894 35.6392 77.3388C36.6077 78.289 36.8685 79.7368 36.9525 81.0917C37.0394 82.4765 36.9735 83.9303 36.3138 85.1533C35.6512 86.3733 34.2509 87.2845 32.8926 86.9908C32.7487 86.2564 32.8777 85.501 32.9226 84.7516C32.9676 84.0052 32.9016 83.1989 32.4399 82.6084C31.9781 82.0179 31.0007 81.7931 30.4759 82.3266" fill="#2F2E43"/>
<path d="M36.5804 83.8944C37.0721 83.5257 37.6628 83.214 38.2745 83.2829C38.9371 83.3549 39.5008 83.8944 39.6777 84.5359C39.8546 85.1774 39.6717 85.8878 39.2699 86.4183C38.8681 86.9489 38.2655 87.3026 37.6238 87.4825C37.252 87.5874 36.8472 87.6323 36.4904 87.4825C35.9657 87.2636 35.6778 86.6012 35.8757 86.0676" fill="#2F2E43"/>
<path d="M18.1045 130.79C17.7927 132.424 18.4133 133.908 19.4957 134.103C20.5752 134.298 21.7056 133.129 22.0174 131.495C22.1523 130.844 22.1223 130.17 21.9304 129.531L25.7504 103.93L20.6052 103.021L18.9111 128.989C18.4973 129.52 18.2184 130.137 18.1045 130.793V130.79Z" fill="#F3A3A6"/>
<path d="M28.503 89.6136L24.9979 89.6526C22.5242 90.0543 21.8646 91.3852 21.3308 93.8312C20.5123 97.5631 19.4688 102.536 19.6877 102.605C20.0385 102.719 26.0353 105.459 29.0697 104.781L28.503 89.6136Z" fill="#07689F"/>
<path d="M32.8073 170.981L28.1421 171.033L28.216 177.649L32.8812 177.596L32.8073 170.981Z" fill="#F3A3A6"/>
<path d="M23.7055 181.706C23.2138 181.712 22.779 181.706 22.4492 181.679C21.2078 181.58 20.0175 180.678 19.4148 180.151C19.1449 179.914 19.055 179.53 19.1899 179.2C19.2859 178.964 19.4838 178.784 19.7296 178.709L22.9949 177.738L28.2571 174.102L28.317 174.206C28.341 174.245 28.8718 175.178 29.0517 175.81C29.1206 176.05 29.1056 176.251 29.0067 176.407C28.9377 176.515 28.8418 176.578 28.7638 176.616C28.8598 176.715 29.1626 176.916 30.0921 177.054C31.4444 177.255 31.7172 175.849 31.7262 175.789L31.7352 175.741L31.7742 175.714C32.4129 175.292 32.8057 175.1 32.9436 175.139C33.0305 175.163 33.1715 175.205 33.5972 179.017C33.6362 179.137 33.9151 180.013 33.7412 180.855C33.5523 181.772 29.5554 181.499 28.7578 181.436C28.7338 181.439 25.7474 181.685 23.6995 181.706H23.7055Z" fill="#2F2E43"/>
<path d="M46.033 165.625L42.1021 168.137L45.6664 173.711L49.5973 171.199L46.033 165.625Z" fill="#F3A3A6"/>
<path d="M40.9312 180.606C40.3825 180.612 39.8787 180.552 39.5189 180.492C39.1651 180.432 38.8863 180.157 38.8263 179.803C38.7813 179.548 38.8563 179.293 39.0242 179.101L41.279 176.551L43.8186 170.681L43.9266 170.738C43.9656 170.759 44.9101 171.269 45.3988 171.71C45.5847 171.877 45.6776 172.054 45.6776 172.24C45.6776 172.369 45.6297 172.474 45.5817 172.546C45.7166 172.579 46.0794 172.588 46.94 172.213C48.1933 171.668 47.6806 170.331 47.6566 170.277L47.6386 170.232L47.6596 170.19C47.9774 169.494 48.2113 169.123 48.3462 169.081C48.4332 169.057 48.5741 169.015 50.9548 172.024C51.0508 172.105 51.7524 172.699 52.0492 173.505C52.3731 174.383 48.841 176.266 48.1273 176.634C48.1064 176.652 44.4153 179.395 42.8981 180.181C42.2955 180.492 41.5788 180.594 40.9252 180.6L40.9312 180.606Z" fill="#2F2E43"/>
<path d="M35.6178 115.608L22.5568 115.752L21.5073 127.91L27.1923 172.735L33.8607 172.66L30.9073 146.767L41.9834 170.052L47.8633 165.837L39.1739 144.081C39.1739 144.081 41.9804 125.014 39.5577 120.299C37.135 115.584 35.6208 115.602 35.6208 115.602V115.608H35.6178Z" fill="#2F2E43"/>
<path d="M42.1213 116.277L21.3784 116.507L27.3033 89.6286L36.3434 89.5267L42.1213 116.277Z" fill="#07689F"/>
<path d="M44.1484 130.503C44.4962 132.13 43.9085 133.626 42.8321 133.845C41.7556 134.064 40.6013 132.922 40.2534 131.294C40.1035 130.647 40.1185 129.972 40.2954 129.328L35.9058 103.816L41.03 102.794L43.2998 128.719C43.7256 129.241 44.0164 129.852 44.1484 130.506V130.503Z" fill="#F3A3A6"/>
<path d="M32.8382 89.5657L36.3434 89.5267C38.826 89.8744 39.5127 91.1903 40.1034 93.6243C41.0029 97.3382 42.1573 102.284 41.9414 102.359C41.5906 102.479 35.6597 105.351 32.6104 104.742L32.8412 89.5657H32.8382Z" fill="#07689F"/>
<path d="M64.4896 181.706C64.4896 181.868 64.3577 182 64.1957 182H0.293843C0.13193 182 0 181.868 0 181.706C0 181.544 0.13193 181.412 0.293843 181.412H64.1957C64.3577 181.412 64.4896 181.544 64.4896 181.706Z" fill="#3F3D58"/>
</g>
<defs>
<clipPath id="clip0_132_336">
<rect width="133" height="182" fill="white"/>
</clipPath>
</defs>
</svg>
