<svg width="211" height="189" viewBox="0 0 211 189" fill="none" xmlns="http://www.w3.org/2000/svg">
<g clip-path="url(#clip0_134_360)">
<path d="M209.149 72.2774C209.074 72.2775 209 72.2544 208.938 72.2112L106.562 1.06826C106.251 0.852771 105.881 0.737607 105.502 0.738252C105.123 0.738897 104.753 0.855319 104.442 1.07187L2.80405 72.2105C2.72366 72.2668 2.62416 72.2889 2.52744 72.2719C2.43073 72.255 2.34471 72.2004 2.28832 72.1202C2.23194 72.04 2.20979 71.9407 2.22677 71.8442C2.24374 71.7477 2.29844 71.6618 2.37883 71.6056L104.017 0.466947C104.452 0.16382 104.97 0.000873802 105.5 3.50448e-06C106.031 -0.000866793 106.549 0.160379 106.986 0.462078L209.361 71.6048C209.426 71.6498 209.474 71.7142 209.5 71.7887C209.525 71.8631 209.526 71.9437 209.502 72.0187C209.479 72.0938 209.432 72.1593 209.368 72.2058C209.305 72.2524 209.228 72.2775 209.149 72.2774Z" fill="#3F3D56"/>
<path d="M8.61182 74.7993L105.602 3.07288L203.329 79.9029L110.6 134.755L60.2557 123.305L8.61182 74.7993Z" fill="#E6E6E6"/>
<path d="M64.5052 168.635H16.5896C16.2954 168.635 16.004 168.578 15.7321 168.466C15.4601 168.354 15.213 168.189 15.0048 167.982C14.7967 167.774 14.6315 167.528 14.5188 167.257C14.4061 166.986 14.3481 166.695 14.3481 166.401C14.3481 166.108 14.4061 165.817 14.5188 165.546C14.6315 165.275 14.7967 165.028 15.0048 164.821C15.213 164.613 15.4601 164.449 15.7321 164.337C16.004 164.225 16.2954 164.167 16.5896 164.167H64.5052C64.7995 164.167 65.0909 164.225 65.3628 164.337C65.6347 164.449 65.8818 164.613 66.09 164.821C66.2982 165.028 66.4634 165.275 66.576 165.546C66.6887 165.817 66.7467 166.108 66.7467 166.401C66.7467 166.695 66.6887 166.986 66.576 167.257C66.4634 167.528 66.2982 167.774 66.09 167.982C65.8818 168.189 65.6347 168.354 65.3628 168.466C65.0909 168.578 64.7995 168.635 64.5052 168.635Z" fill="#07689F"/>
<path d="M33.7807 159.031H16.5896C16.2954 159.032 16.004 158.974 15.7321 158.862C15.4601 158.75 15.213 158.585 15.0048 158.378C14.7967 158.171 14.6315 157.924 14.5188 157.653C14.4061 157.382 14.3481 157.091 14.3481 156.797C14.3481 156.504 14.4061 156.213 14.5188 155.942C14.6315 155.671 14.7967 155.424 15.0048 155.217C15.213 155.01 15.4601 154.845 15.7321 154.733C16.004 154.621 16.2954 154.563 16.5896 154.564H33.7807C34.0749 154.563 34.3663 154.621 34.6382 154.733C34.9102 154.845 35.1573 155.01 35.3655 155.217C35.5736 155.424 35.7388 155.671 35.8515 155.942C35.9641 156.213 36.0221 156.504 36.0221 156.797C36.0221 157.091 35.9641 157.382 35.8515 157.653C35.7388 157.924 35.5736 158.171 35.3655 158.378C35.1573 158.585 34.9102 158.75 34.6382 158.862C34.3663 158.974 34.0749 159.032 33.7807 159.031Z" fill="#07689F"/>
<path d="M106.966 114.75C106.602 114.75 106.241 114.68 105.904 114.542L46.0869 89.7761V12.2538C46.0877 11.5683 46.361 10.9111 46.8467 10.4264C47.3325 9.94168 47.9912 9.66901 48.6781 9.66821H163.433C164.119 9.66901 164.778 9.94168 165.264 10.4264C165.75 10.9111 166.023 11.5683 166.024 12.2538V89.8302L165.911 89.8782L108.06 114.53C107.714 114.675 107.342 114.75 106.966 114.75Z" fill="white"/>
<path d="M106.966 114.934C106.578 114.935 106.193 114.86 105.833 114.713L45.9019 89.8995V12.2538C45.9027 11.5194 46.1955 10.8152 46.7159 10.2958C47.2364 9.77649 47.9421 9.48435 48.6782 9.48352H163.433C164.169 9.48435 164.874 9.77649 165.395 10.2958C165.915 10.8152 166.208 11.5194 166.209 12.2538V89.9521L108.133 114.7C107.764 114.855 107.367 114.935 106.966 114.934ZM46.6422 89.406L106.116 114.03C106.67 114.255 107.292 114.251 107.844 114.02L165.469 89.4644V12.2538C165.468 11.7152 165.253 11.1989 164.872 10.818C164.49 10.4372 163.972 10.2229 163.433 10.2223H48.6782C48.1384 10.2229 47.6209 10.4372 47.2392 10.818C46.8576 11.1989 46.6429 11.7152 46.6422 12.2538L46.6422 89.406Z" fill="#3F3D56"/>
<path d="M208.409 71.5387H208.335L165.839 89.6455L107.695 114.419C107.468 114.515 107.224 114.565 106.978 114.566C106.731 114.567 106.487 114.52 106.259 114.427L46.2719 89.5938L2.73185 71.5683L2.66534 71.5387H2.59123C1.90423 71.5395 1.24558 71.8121 0.759793 72.2968C0.274008 72.7816 0.000762284 73.4388 0 74.1243V186.414C0.000763262 187.1 0.274009 187.757 0.759793 188.242C1.24558 188.727 1.90423 188.999 2.59123 189H208.409C209.096 188.999 209.754 188.727 210.24 188.242C210.726 187.757 210.999 187.1 211 186.414V74.1243C210.999 73.4388 210.726 72.7816 210.24 72.2968C209.754 71.8121 209.096 71.5395 208.409 71.5387ZM210.26 186.414C210.259 186.904 210.064 187.374 209.717 187.72C209.37 188.066 208.9 188.261 208.409 188.261H2.59123C2.10041 188.261 1.62974 188.066 1.28268 187.72C0.935615 187.374 0.740547 186.904 0.740351 186.414V74.1243C0.741022 73.6467 0.926683 73.1879 1.25852 72.8437C1.59035 72.4995 2.04266 72.2966 2.52092 72.2774L46.2719 90.3916L105.974 115.11C106.62 115.373 107.344 115.369 107.988 115.099L165.839 90.447L208.483 72.2774C208.96 72.298 209.411 72.5015 209.742 72.8455C210.073 73.1894 210.259 73.6475 210.26 74.1243V186.414Z" fill="#3F3D56"/>
<path d="M106.368 92.7675C104.16 92.7716 102.01 92.0591 100.243 90.7374L100.134 90.6553L77.0678 73.0333C75.9995 72.2166 75.103 71.1979 74.4293 70.0355C73.7556 68.873 73.318 67.5895 73.1414 66.2583C72.9648 64.9271 73.0527 63.5742 73.4 62.2769C73.7474 60.9795 74.3475 59.7632 75.166 58.6973C75.9845 57.6313 77.0053 56.7367 78.1703 56.0645C79.3353 55.3922 80.6215 54.9555 81.9557 54.7793C83.2898 54.6031 84.6456 54.6908 85.9457 55.0374C87.2459 55.3841 88.4649 55.9828 89.5331 56.7996L104.474 68.2309L139.78 22.2855C140.599 21.2199 141.62 20.3256 142.785 19.6537C143.951 18.9819 145.237 18.5457 146.571 18.3699C147.905 18.1942 149.261 18.2824 150.561 18.6295C151.861 18.9766 153.08 19.5759 154.148 20.393L153.928 20.6904L154.153 20.3973C156.308 22.0494 157.717 24.4866 158.073 27.1744C158.428 29.8621 157.701 32.5808 156.05 34.7341L114.521 88.7768C113.561 90.0222 112.326 91.03 110.912 91.7221C109.498 92.4141 107.943 92.7718 106.368 92.7675Z" fill="#00980F"/>
</g>
<defs>
<clipPath id="clip0_134_360">
<rect width="211" height="189" fill="white"/>
</clipPath>
</defs>
</svg>
