<svg width="70" height="88" viewBox="0 0 70 88" fill="none"
    xmlns="http://www.w3.org/2000/svg">
    <path d="M54.5501 87.7026H15.4504C12.8818 87.6985 10.4196 86.669 8.60339 84.8398C6.78714 83.0106 5.76496 80.5308 5.76086 77.9438V63.6653C4.29811 63.054 3.04898 62.0183 2.17243 60.6899C1.29588 59.3615 0.831525 57.8004 0.838453 56.2055V31.9179C0.813547 29.8161 1.61663 27.7901 3.07184 26.2834C4.52705 24.7768 6.51577 23.9123 8.6025 23.8794H10.5435C10.9553 23.8794 11.3503 24.0442 11.6415 24.3375C11.9327 24.6307 12.0963 25.0285 12.0963 25.4433C12.0963 25.8581 11.9327 26.2559 11.6415 26.5492C11.3503 26.8424 10.9553 27.0072 10.5435 27.0072H8.6025C7.33942 27.04 6.14055 27.5749 5.26773 28.495C4.3949 29.4151 3.91904 30.6456 3.94407 31.9179V53.4061H59.4259C59.8378 53.4061 60.2327 53.5708 60.5239 53.8641C60.8151 54.1574 60.9787 54.5552 60.9787 54.97C60.9787 55.3847 60.8151 55.7825 60.5239 56.0758C60.2327 56.3691 59.8378 56.5339 59.4259 56.5339H3.94407C3.99527 57.7515 4.50576 58.9035 5.37142 59.755C6.23708 60.6065 7.39268 61.0933 8.6025 61.1161H61.398C62.6611 61.0833 63.8599 60.5485 64.7328 59.6284C65.6056 58.7083 66.0815 57.4777 66.0564 56.2055V31.9179C66.0815 30.6456 65.6056 29.4151 64.7328 28.495C63.8599 27.5749 62.6611 27.04 61.398 27.0072H61.0874C60.8391 27.0082 60.5942 26.9492 60.3731 26.8352L52.0812 36.3594C53.069 37.0383 53.8162 38.0168 54.214 39.1526C54.6118 40.2885 54.6395 41.5226 54.2932 42.6754C53.9468 43.8283 53.2445 44.8398 52.2881 45.563C51.3318 46.2863 50.1714 46.6834 48.9755 46.6969H21.1492C20.0749 46.6857 19.0263 46.3647 18.1276 45.7718C17.2289 45.179 16.5176 44.3392 16.0781 43.3519C15.6386 42.3645 15.4892 41.271 15.6477 40.2009C15.8061 39.1307 16.2657 38.1286 16.9721 37.3134L15.5591 36.0623C14.9033 35.4781 14.3775 34.7609 14.0162 33.9578C13.655 33.1546 13.4664 32.2836 13.4628 31.4018C13.4263 29.6115 14.0644 27.8737 15.2485 26.538L36.1804 2.56328C37.3051 1.21087 38.9135 0.359041 40.6572 0.1922C42.401 0.0253592 44.1398 0.556937 45.4972 1.67185L61.398 15.7627C62.5 16.794 63.2181 18.1742 63.4328 19.6738C63.6475 21.1733 63.3459 22.7016 62.5781 24.0045C64.4289 24.3234 66.1069 25.2941 67.3129 26.7436C68.5188 28.193 69.1742 30.0269 69.162 31.9179V56.2055C69.1715 57.7969 68.7117 59.3553 67.841 60.6834C66.9702 62.0114 65.7276 63.0492 64.2707 63.6653V77.9438C64.2687 79.2274 64.0156 80.4981 63.526 81.6832C63.0364 82.8683 62.3198 83.9446 61.4172 84.8508C60.5145 85.757 59.4435 86.4753 58.2653 86.9646C57.087 87.4539 55.8246 87.7047 54.5501 87.7026ZM8.86648 64.244V77.9438C8.86648 79.7025 9.56014 81.3891 10.7949 82.6327C12.0296 83.8762 13.7042 84.5748 15.4504 84.5748H54.5501C56.2963 84.5748 57.9709 83.8762 59.2056 82.6327C60.4404 81.3891 61.134 79.7025 61.134 77.9438V64.244H8.86648ZM45.7302 43.569H48.8358C49.4033 43.5605 49.9515 43.36 50.3923 42.9999C50.8332 42.6398 51.141 42.1409 51.2664 41.5834C51.3918 41.0258 51.3275 40.442 51.0838 39.9257C50.8401 39.4094 50.4312 38.9906 49.9227 38.7366L45.7302 43.569ZM28.8045 43.569H41.5842L59.3794 23.2382C60.0384 22.5651 60.4079 21.6578 60.4079 20.7125C60.4079 19.7672 60.0384 18.8598 59.3794 18.1868L43.4786 4.11155C42.7377 3.53302 41.8 3.27253 40.8695 3.38675C39.9389 3.50097 39.0908 3.98067 38.5096 4.72147L17.5777 28.6024C16.8878 29.3649 16.525 30.3711 16.5684 31.4018C16.5692 31.8421 16.6623 32.2772 16.8416 32.6788C17.0209 33.0803 17.2823 33.4393 17.6088 33.732L28.8045 43.569ZM19.3014 39.3152C18.8649 39.7793 18.6254 40.3964 18.6336 41.0355C18.6377 41.7062 18.9041 42.3482 19.3749 42.8225C19.8458 43.2967 20.4833 43.5649 21.1492 43.569H24.1306L19.3014 39.3152ZM40.0314 79.5077H29.9692C28.7337 79.5077 27.5488 79.0134 26.6751 78.1336C25.8015 77.2537 25.3107 76.0603 25.3107 74.816V74.5032C25.3107 73.2589 25.8015 72.0655 26.6751 71.1857C27.5488 70.3058 28.7337 69.8115 29.9692 69.8115H40.0314C41.2668 69.8115 42.4517 70.3058 43.3254 71.1857C44.199 72.0655 44.6898 73.2589 44.6898 74.5032V74.816C44.6898 76.0603 44.199 77.2537 43.3254 78.1336C42.4517 79.0134 41.2668 79.5077 40.0314 79.5077ZM29.9692 72.9393C29.5573 72.9393 29.1624 73.1041 28.8711 73.3974C28.5799 73.6907 28.4163 74.0885 28.4163 74.5032V74.816C28.4163 75.2308 28.5799 75.6286 28.8711 75.9219C29.1624 76.2151 29.5573 76.3799 29.9692 76.3799H40.0314C40.4432 76.3799 40.8381 76.2151 41.1294 75.9219C41.4206 75.6286 41.5842 75.2308 41.5842 74.816V74.5032C41.5842 74.0885 41.4206 73.6907 41.1294 73.3974C40.8381 73.1041 40.4432 72.9393 40.0314 72.9393H29.9692ZM38.2456 41.3952C37.8682 41.3947 37.5039 41.2557 37.2208 41.0042L23.7579 29.0872C23.4494 28.8133 23.2614 28.4272 23.2352 28.0138C23.209 27.6004 23.3467 27.1934 23.6182 26.8821C23.7507 26.726 23.9125 26.5977 24.0942 26.5046C24.276 26.4115 24.4742 26.3553 24.6775 26.3394C24.8808 26.3234 25.0853 26.3479 25.2792 26.4115C25.4731 26.4751 25.6526 26.5766 25.8076 26.7101L39.2705 38.6271C39.5069 38.8371 39.6743 39.1146 39.7503 39.4226C39.8264 39.7307 39.8075 40.0548 39.6963 40.3519C39.5851 40.6489 39.3867 40.9049 39.1276 41.0856C38.8685 41.2664 38.5608 41.3635 38.2456 41.3639V41.3952ZM42.904 36.0623C42.5266 36.0617 42.1623 35.9227 41.8792 35.6713L28.4163 23.7543C28.1278 23.4751 27.9573 23.0946 27.9406 22.692C27.9238 22.2893 28.062 21.8957 28.3263 21.5932C28.5906 21.2907 28.9607 21.1026 29.3593 21.0682C29.758 21.0338 30.1544 21.1556 30.466 21.4084L43.9289 33.3254C44.2374 33.5994 44.4254 33.9855 44.4516 34.3989C44.4778 34.8123 44.3401 35.2193 44.0687 35.5305C43.926 35.7031 43.7482 35.8427 43.5472 35.9398C43.3463 36.037 43.1269 36.0894 42.904 36.0935V36.0623ZM47.5625 30.7293C47.185 30.7288 46.8207 30.5898 46.5376 30.3384L33.0748 18.4213C32.7662 18.1474 32.5783 17.7613 32.552 17.3479C32.5258 16.9345 32.6636 16.5275 32.935 16.2162C33.207 15.9055 33.5904 15.7162 34.0008 15.6898C34.4113 15.6634 34.8154 15.8021 35.1245 16.0755L48.5718 27.9925C48.8803 28.2665 49.0683 28.6525 49.0945 29.0659C49.1207 29.4793 48.983 29.8863 48.7116 30.1976C48.566 30.3644 48.3869 30.4981 48.1861 30.5898C47.9853 30.6815 47.7674 30.729 47.547 30.7293H47.5625ZM52.2209 25.3964C51.8435 25.3958 51.4791 25.2569 51.196 25.0054L37.7487 13.0884C37.4402 12.8144 37.2522 12.4284 37.226 12.015C37.1998 11.6015 37.3375 11.1945 37.609 10.8833C37.881 10.5726 38.2643 10.3832 38.6748 10.3568C39.0853 10.3304 39.4894 10.4692 39.7984 10.7425L53.2458 22.6595C53.5543 22.9335 53.7423 23.3196 53.7685 23.733C53.7947 24.1464 53.6569 24.5534 53.3855 24.8647C53.2383 25.0335 53.0566 25.1683 52.853 25.2601C52.6494 25.3519 52.4285 25.3983 52.2054 25.3964H52.2209Z" fill="#595BD4"/>
</svg>
