    <svg
        width="83"
        height="83"
        viewBox="0 0 83 83"
        fill="none"
        xmlns="http://www.w3.org/2000/svg"
    >
        <path
            d="M81.952 3.36707C81.8561 2.58471 81.5032 1.85703 80.9493 1.29962C80.3954 0.742208 79.6723 0.387023 78.8949 0.290479C77.911 0.290479 54.8947 -2.50321 41.858 10.6165C35.9349 16.3799 31.5794 23.5756 29.2079 31.5162L17.9633 31.3393C17.2683 31.3423 16.5898 31.5525 16.0136 31.9435C15.4374 32.3345 14.9893 32.8887 14.726 33.5359C14.4627 34.1832 14.3961 34.8945 14.5345 35.5799C14.6729 36.2653 15.0101 36.8939 15.5035 37.3865L45.3017 67.3744C45.6271 67.7086 46.0152 67.9744 46.4435 68.1565C46.8718 68.3386 47.3317 68.4334 47.7966 68.4353C48.2668 68.4265 48.7313 68.3306 49.167 68.1524C49.8133 67.8771 50.3629 67.4133 50.7449 66.8209C51.1269 66.2284 51.3239 65.5344 51.3105 64.8283L51.1348 53.3706C59.0251 50.9839 66.1753 46.6007 71.9022 40.6399C72.7423 39.7822 73.5286 38.8728 74.2565 37.9169C74.5726 37.5537 74.8113 37.1292 74.9582 36.6697C75.105 36.2101 75.1568 35.7251 75.1103 35.2446C75.0639 34.7641 74.9201 34.2983 74.688 33.8759C74.4558 33.4534 74.1402 33.0832 73.7605 32.7882C73.3808 32.4931 72.9451 32.2795 72.4803 32.1603C72.0154 32.0411 71.5312 32.019 71.0575 32.0953C70.5839 32.1716 70.1307 32.3447 69.7261 32.6039C69.3214 32.8632 68.9737 33.203 68.7045 33.6026C68.1423 34.3099 67.5449 34.9818 66.9124 35.6537C61.5155 41.4065 54.5038 45.3665 46.8127 47.0052C45.9812 47.1408 45.2258 47.5724 44.684 48.2215C44.1422 48.8706 43.8501 49.6939 43.861 50.5416V56.1643L26.2913 38.4827H31.8785C32.7207 38.4936 33.5388 38.1997 34.1838 37.6545C34.8288 37.1092 35.2577 36.349 35.3924 35.5122C36.7883 28.8937 39.9464 22.7817 44.5286 17.8306C44.6624 17.7562 44.7915 17.6736 44.9152 17.5831C44.9152 17.5831 45.126 17.2294 45.2666 17.0526C45.4071 16.8758 46.1802 16.0271 46.6721 15.532C54.8947 7.25703 69.0208 6.7973 75.0296 7.00948C75.2804 12.9865 74.5321 18.9635 72.8158 24.6911C72.6474 25.1497 72.5754 25.6386 72.6042 26.1267C72.6331 26.6148 72.7622 27.0916 72.9835 27.527C73.2047 27.9623 73.5133 28.3468 73.8896 28.656C74.266 28.9653 74.702 29.1926 75.1702 29.3237C75.6107 29.4727 76.0763 29.5322 76.5399 29.4989C77.0035 29.4656 77.4559 29.3401 77.871 29.1296C78.286 28.9191 78.6555 28.6278 78.9579 28.2726C79.2603 27.9175 79.4897 27.5054 79.6329 27.0604C81.9146 19.3866 82.702 11.3415 81.952 3.36707ZM16.9091 53.795C13.296 54.6037 9.99761 56.4601 7.42147 59.1348C1.97487 64.5807 0.885553 76.8164 0.780135 78.337C0.738059 78.8492 0.807433 79.3645 0.983424 79.847C1.15942 80.3295 1.43779 80.7675 1.79918 81.1307C2.45368 81.784 3.33709 82.1523 4.25893 82.1562H4.61032C6.0159 82.1562 18.2795 80.9185 23.7261 75.4726C26.356 72.8922 28.1867 69.6005 28.997 65.9953C29.4102 64.3011 29.4019 62.5306 28.9728 60.8405C28.5438 59.1504 27.7073 57.5928 26.5373 56.3058C25.2617 55.1222 23.7155 54.2738 22.0359 53.8358C20.3564 53.3978 18.5953 53.3838 16.9091 53.795ZM22.1097 64.4039C21.531 66.6631 20.3098 68.7032 18.5958 70.2742C15.5553 72.468 12.0142 73.8545 8.29996 74.3056C8.74816 70.5677 10.1259 67.004 12.3058 63.9442C13.877 62.2319 15.9003 61.0052 18.139 60.4079C18.5485 60.381 18.9593 60.381 19.3689 60.4079C19.7519 60.3822 20.1361 60.4347 20.4984 60.5624C20.8608 60.69 21.1937 60.89 21.4772 61.1505C21.8601 61.6439 22.1178 62.2238 22.228 62.84C22.3382 63.4561 22.2976 64.09 22.1097 64.6868V64.4039Z"
            fill="#07689F"
        />
    </svg>
