<svg width="765" height="430" viewBox="0 0 765 430" fill="none" xmlns="http://www.w3.org/2000/svg">
<g clip-path="url(#clip0_21_218)">
<path d="M704.864 429.158C716.056 429.158 725.128 427.649 725.128 425.788C725.128 423.928 716.056 422.419 704.864 422.419C693.672 422.419 684.599 423.928 684.599 425.788C684.599 427.649 693.672 429.158 704.864 429.158Z" fill="#F2F2F2"/>
<path d="M728.506 104.026H726.817V139.403H728.506V104.026Z" fill="#F2F2F2"/>
<path d="M709.93 81.2831H699.797V430H709.93V81.2831Z" fill="#F2F2F2"/>
<path d="M751.251 108.658H658.476C657.458 108.658 656.452 108.442 655.524 108.025C654.597 107.607 653.768 106.998 653.095 106.237C652.421 105.476 651.918 104.581 651.618 103.611C651.318 102.641 651.228 101.618 651.354 100.611L663.175 6.27168C663.394 4.54108 664.239 2.94956 665.549 1.79512C666.86 0.640673 668.548 0.00246764 670.297 0H739.43C741.179 0.0024674 742.866 0.640673 744.177 1.79512C745.488 2.94956 746.332 4.54108 746.552 6.27168L758.373 100.611C758.499 101.618 758.409 102.641 758.109 103.611C757.809 104.581 757.305 105.476 756.632 106.237C755.958 106.998 755.13 107.607 754.203 108.025C753.275 108.442 752.269 108.658 751.251 108.658Z" fill="#F2F2F2"/>
<path d="M727.662 145.299C730.926 145.299 733.572 142.659 733.572 139.403C733.572 136.146 730.926 133.506 727.662 133.506C724.397 133.506 721.751 136.146 721.751 139.403C721.751 142.659 724.397 145.299 727.662 145.299Z" fill="#F2F2F2"/>
<path d="M106.019 336.389C101.754 351.152 89.2978 361.486 76.3049 370.264C74.4907 371.49 72.676 372.688 70.8607 373.858C70.8484 373.863 70.8357 373.875 70.8232 373.88C70.7359 373.936 70.6484 373.992 70.567 374.049C70.1924 374.289 69.8176 374.531 69.446 374.769L69.6501 374.86C69.6501 374.86 69.8505 374.966 69.6312 374.877C69.566 374.85 69.4976 374.826 69.4325 374.798C61.8844 371.761 54.2023 368.501 48.4178 362.812C42.4173 356.904 38.9106 347.638 42.1598 339.877C42.5869 338.861 43.1264 337.895 43.7682 336.997C44.0318 336.621 44.3156 336.261 44.6111 335.908C46.4034 333.726 48.746 332.059 51.398 331.079C54.05 330.1 56.9157 329.843 59.7004 330.334C62.4851 330.826 65.0883 332.048 67.2424 333.876C69.3965 335.704 71.0237 338.071 71.9566 340.734C72.9112 331.868 65.5826 324.441 58.53 318.962C51.4742 313.485 43.4569 307.52 42.0928 298.704C41.3311 293.798 43.0411 289.044 46.1561 285.228C46.2526 285.112 46.3489 284.996 46.4482 284.883C50.2401 280.438 55.5734 277.584 61.3827 276.891C72.2018 275.769 82.7109 281.482 90.5708 288.986C103.221 301.059 110.869 319.604 106.019 336.389Z" fill="#F2F2F2"/>
<path d="M85.6834 317.08C87.7598 320.302 89.354 323.81 90.4156 327.491C91.3134 330.782 91.713 334.188 91.6011 337.596C91.3115 344.61 89.3377 351.452 85.8457 357.546C83.2153 362.17 80.0096 366.443 76.3048 370.264C74.4907 371.49 72.6759 372.688 70.8606 373.858C70.8483 373.863 70.8357 373.875 70.8232 373.88C70.7359 373.936 70.6484 373.992 70.567 374.048C70.1923 374.289 69.8175 374.53 69.446 374.769C69.446 374.769 69.8505 374.966 69.6312 374.877C69.566 374.85 69.4976 374.825 69.4325 374.798C70.109 369.265 69.4463 363.651 67.4998 358.426C65.5534 353.202 62.3799 348.518 58.2454 344.769C54.1009 341.077 49.1404 338.414 43.7682 336.997C44.0318 336.621 44.3156 336.261 44.6111 335.908C46.686 336.488 48.7053 337.25 50.6456 338.186C57.5813 341.508 63.2604 346.97 66.8421 353.763C70.0563 359.931 71.4396 366.886 70.8297 373.811C71.1398 373.531 71.4503 373.244 71.7515 372.96C77.4872 367.626 82.5817 361.503 86.0294 354.436C89.0206 348.452 90.4907 341.826 90.3103 335.141C90.0289 327.852 87.1177 321.101 82.9027 315.224C78.283 308.953 72.8255 303.343 66.6819 298.547C60.4905 293.6 53.7155 289.428 46.508 286.123C46.3454 286.047 46.2183 285.912 46.1528 285.745C46.0873 285.579 46.0885 285.394 46.1562 285.228C46.2042 285.079 46.3092 284.955 46.4483 284.883C46.5198 284.852 46.5974 284.838 46.6752 284.842C46.7531 284.845 46.8291 284.866 46.8978 284.902C47.7877 285.311 48.6714 285.725 49.548 286.157C56.8494 289.758 63.6743 294.248 69.8657 299.527C75.8462 304.613 81.4765 310.425 85.6834 317.08Z" fill="white"/>
<path d="M44.4352 373.565H91.1827C91.6955 373.565 92.2024 373.674 92.6698 373.884C93.1372 374.095 93.5545 374.402 93.8938 374.785C94.2332 375.169 94.4869 375.62 94.6382 376.109C94.7894 376.597 94.8347 377.113 94.7711 377.62L88.8147 425.155C88.7042 426.027 88.2789 426.829 87.6183 427.411C86.9578 427.993 86.1073 428.314 85.2263 428.315H50.3917C49.5106 428.314 48.6601 427.993 47.9996 427.411C47.3391 426.829 46.9137 426.027 46.8032 425.155L40.8468 377.62C40.7832 377.113 40.8285 376.597 40.9797 376.109C41.131 375.62 41.3847 375.169 41.7241 374.785C42.0634 374.402 42.4807 374.095 42.9481 373.884C43.4155 373.674 43.9225 373.565 44.4352 373.565Z" fill="#F2F2F2"/>
<path d="M196.855 428.681C200.086 428.681 202.705 426.068 202.705 422.845C202.705 419.621 200.086 417.009 196.855 417.009C193.624 417.009 191.005 419.621 191.005 422.845C191.005 426.068 193.624 428.681 196.855 428.681Z" fill="#CCCCCC"/>
<path d="M566.406 428.681C569.637 428.681 572.256 426.068 572.256 422.845C572.256 419.621 569.637 417.009 566.406 417.009C563.174 417.009 560.555 419.621 560.555 422.845C560.555 426.068 563.174 428.681 566.406 428.681Z" fill="#CCCCCC"/>
<path d="M304.112 341.625H212.456C208.19 341.62 204.101 339.928 201.085 336.919C198.069 333.91 196.372 329.831 196.367 325.576V263.324C196.372 259.068 198.069 254.989 201.085 251.98C204.101 248.971 208.19 247.279 212.456 247.274H304.112C308.378 247.279 312.467 248.971 315.483 251.98C318.5 254.989 320.196 259.068 320.201 263.324V325.576C320.196 329.831 318.5 333.91 315.483 336.919C312.467 339.928 308.378 341.62 304.112 341.625Z" fill="#E6E6E6"/>
<path d="M427.458 342.111H335.802C331.537 342.107 327.447 340.414 324.431 337.405C321.415 334.397 319.718 330.317 319.713 326.062V263.81C319.718 259.555 321.415 255.475 324.431 252.467C327.447 249.458 331.537 247.765 335.802 247.76H427.458C431.724 247.765 435.813 249.458 438.829 252.467C441.846 255.475 443.542 259.555 443.547 263.81V326.062C443.542 330.317 441.846 334.397 438.829 337.405C435.813 340.414 431.724 342.107 427.458 342.111Z" fill="#E6E6E6"/>
<path d="M550.804 342.598H459.148C454.883 342.593 450.793 340.9 447.777 337.892C444.761 334.883 443.064 330.803 443.059 326.548V264.296C443.064 260.041 444.761 255.962 447.777 252.953C450.793 249.944 454.883 248.252 459.148 248.247H550.804C555.07 248.252 559.159 249.944 562.176 252.953C565.192 255.962 566.888 260.041 566.893 264.296V326.548C566.888 330.803 565.192 334.883 562.176 337.892C559.159 340.9 555.07 342.593 550.804 342.598Z" fill="#E6E6E6"/>
<path d="M585.907 338.221H182.229V422.358H585.907V338.221Z" fill="#E6E6E6"/>
<path d="M196.855 422.845H179.304C170.432 422.845 163.215 414.67 163.215 404.622V316.822H196.855V422.845Z" fill="#E6E6E6"/>
<path d="M583.957 422.845H566.406V303.204H600.045V402.281C600.045 413.62 592.828 422.845 583.957 422.845Z" fill="#E6E6E6"/>
<path d="M320.689 355.729H196.855V329.466C238.133 305.846 279.411 305.846 320.689 329.466V355.729Z" fill="#CCCCCC"/>
<path d="M444.035 356.215H320.201V329.953C361.479 306.332 402.757 306.332 444.035 329.953V356.215Z" fill="#CCCCCC"/>
<path d="M567.381 356.702H443.547V330.439C484.825 306.819 526.103 306.819 567.381 330.439V356.702Z" fill="#CCCCCC"/>
<path d="M172.966 339.193C188.852 339.193 201.73 326.346 201.73 310.499C201.73 294.652 188.852 281.805 172.966 281.805C157.08 281.805 144.201 294.652 144.201 310.499C144.201 326.346 157.08 339.193 172.966 339.193Z" fill="#CCCCCC"/>
<path d="M594.195 338.221C610.081 338.221 622.96 325.374 622.96 309.526C622.96 293.679 610.081 280.832 594.195 280.832C578.309 280.832 565.431 293.679 565.431 309.526C565.431 325.374 578.309 338.221 594.195 338.221Z" fill="#CCCCCC"/>
<path d="M509.463 253.312C509.53 253.773 509.56 254.239 509.553 254.705L544.032 278.411L553.227 274.069L561.61 287.055L546.081 296.32C544.827 297.068 543.363 297.391 541.909 297.238C540.455 297.086 539.09 296.468 538.019 295.476L503.1 263.146C501.368 263.632 499.528 263.581 497.825 262.999C496.122 262.416 494.638 261.331 493.569 259.886C492.5 258.442 491.897 256.707 491.84 254.912C491.784 253.118 492.276 251.349 493.252 249.84C494.228 248.331 495.641 247.155 497.304 246.467C498.967 245.779 500.8 245.613 502.56 245.99C504.319 246.367 505.923 247.269 507.156 248.577C508.389 249.885 509.194 251.536 509.463 253.312Z" fill="#FFB8B8"/>
<path d="M544.697 276.371C544.848 275.848 545.111 275.363 545.468 274.951C545.824 274.538 546.266 274.207 546.762 273.98L564.1 266.056C566.441 264.535 569.291 264.003 572.025 264.576C574.759 265.148 577.153 266.779 578.684 269.11C580.215 271.441 580.756 274.283 580.19 277.011C579.624 279.74 577.996 282.134 575.664 283.667L561.331 296.31C560.922 296.671 560.44 296.939 559.917 297.098C559.395 297.256 558.844 297.3 558.303 297.226C557.762 297.153 557.243 296.964 556.782 296.673C556.321 296.382 555.928 295.995 555.63 295.538L545.162 279.493C544.863 279.037 544.668 278.522 544.587 277.983C544.507 277.444 544.544 276.894 544.697 276.371Z" fill="#05486E"/>
<path d="M509.028 254.857L508.855 254.869L508.382 248.346C508.231 246.26 506.878 244.659 505.362 244.768L495.308 245.494C493.791 245.603 491 247.504 491.151 249.589L491.273 251.27L493.747 285.38C493.899 287.465 496.935 288.945 498.452 288.836L508.505 288.11C510.022 288 511.129 286.221 510.978 284.136L509.192 259.513L509.365 259.501L509.028 254.857Z" fill="#3F3D56"/>
<path d="M507.799 248.414L510.391 284.152C510.504 285.709 509.678 287.038 508.545 287.12L498.443 287.849C497.31 287.931 496.301 286.734 496.188 285.177L493.595 249.439C493.482 247.882 494.309 246.553 495.442 246.471L496.667 246.383C496.583 246.701 496.601 247.038 496.72 247.344C496.839 247.651 497.052 247.913 497.33 248.091C497.446 248.147 497.575 248.172 497.704 248.163L503.463 247.748C504.001 247.708 504.394 247.076 504.34 246.336C504.328 246.165 504.291 245.997 504.231 245.837L505.544 245.742C506.676 245.661 507.686 246.857 507.799 248.414Z" fill="white"/>
<path d="M366.086 330.936L362.754 321.159L398.973 303.686L403.89 318.117L366.086 330.936Z" fill="#FFB8B8"/>
<path d="M357.436 336.651L346.693 305.126L347.092 304.991C348.708 304.443 350.415 304.218 352.118 304.328C353.82 304.439 355.484 304.883 357.015 305.635C358.545 306.387 359.912 307.432 361.038 308.711C362.163 309.99 363.025 311.478 363.575 313.089L370.136 332.345L357.436 336.651Z" fill="#2F2E41"/>
<path d="M509.833 337.914C502.065 338.349 494.32 336.731 487.379 333.224L444.79 304.322L395.061 322.691C393.741 323.139 392.3 323.071 391.028 322.5C389.757 321.929 388.75 320.898 388.211 319.615L385.774 313.767C385.218 312.452 385.202 310.971 385.729 309.644C386.256 308.317 387.285 307.249 388.593 306.671L436.103 285.387C441.808 282.841 448.206 282.289 454.264 283.82L520.22 300.587L537.653 321.24L537.46 321.507C528.901 333.286 518.75 337.27 509.833 337.914Z" fill="#2F2E41"/>
<path d="M563.7 251.61C575.153 251.61 584.438 242.347 584.438 230.922C584.438 219.496 575.153 210.234 563.7 210.234C552.246 210.234 542.961 219.496 542.961 230.922C542.961 242.347 552.246 251.61 563.7 251.61Z" fill="#FFB8B8"/>
<path d="M542.411 330.449L509.034 305.67L531.797 289.532C531.145 287.442 528.257 275.491 544.054 267.345C549.054 264.767 552.656 262.547 554.761 260.749C557.747 258.179 561.573 256.787 565.516 256.835C568.002 256.874 570.445 257.49 572.651 258.634C574.857 259.778 576.766 261.418 578.227 263.425C579.687 265.432 580.66 267.751 581.067 270.198C581.474 272.644 581.305 275.152 580.572 277.522C577.279 288.203 572.032 302.356 565.741 309.124C558.625 316.771 550.908 323.839 542.663 330.26L542.411 330.449Z" fill="#05486E"/>
<path d="M371.379 339.6L368.047 329.822L404.265 312.35L409.183 326.78L371.379 339.6Z" fill="#FFB8B8"/>
<path d="M362.728 345.315L351.985 313.79L352.385 313.654C354 313.106 355.708 312.881 357.41 312.992C359.113 313.102 360.777 313.546 362.307 314.298C363.838 315.05 365.205 316.096 366.33 317.375C367.456 318.654 368.318 320.142 368.867 321.753L375.429 341.008L362.728 345.315Z" fill="#2F2E41"/>
<path d="M515.126 346.577C507.358 347.012 499.612 345.395 492.672 341.888L450.083 312.985L400.354 331.355C399.033 331.803 397.592 331.734 396.321 331.164C395.049 330.593 394.042 329.562 393.503 328.279L391.066 322.431C390.51 321.115 390.494 319.635 391.021 318.308C391.549 316.98 392.577 315.913 393.886 315.335L441.396 294.051C447.1 291.505 453.498 290.953 459.556 292.484L525.512 309.25L542.946 329.904L542.752 330.17C534.194 341.949 524.042 345.934 515.126 346.577Z" fill="#2F2E41"/>
<path d="M505.553 278.129C505.812 278.517 506.039 278.925 506.233 279.349L547.566 286.046L554.012 278.195L567.161 286.35L557.104 301.356C556.292 302.568 555.107 303.484 553.728 303.968C552.349 304.451 550.85 304.475 549.456 304.036L504.024 289.734C502.667 290.913 500.982 291.653 499.194 291.854C497.405 292.055 495.597 291.708 494.011 290.859C492.425 290.01 491.136 288.7 490.314 287.102C489.493 285.505 489.179 283.695 489.413 281.915C489.648 280.135 490.42 278.468 491.628 277.136C492.835 275.805 494.42 274.871 496.172 274.46C497.924 274.049 499.76 274.18 501.436 274.836C503.112 275.491 504.548 276.64 505.553 278.129Z" fill="#FFB8B8"/>
<path d="M547.291 283.919C547.204 283.381 547.233 282.831 547.378 282.306C547.524 281.781 547.78 281.293 548.132 280.876L560.398 266.31C561.862 263.936 564.209 262.238 566.925 261.587C569.641 260.937 572.506 261.388 574.889 262.841C577.273 264.294 578.982 266.63 579.642 269.338C580.301 272.046 579.858 274.905 578.408 277.287L570.881 294.833C570.667 295.334 570.346 295.783 569.942 296.149C569.537 296.515 569.059 296.79 568.538 296.955C568.018 297.12 567.468 297.171 566.926 297.104C566.384 297.038 565.863 296.856 565.398 296.571L549.051 286.542C548.586 286.257 548.188 285.875 547.884 285.422C547.58 284.97 547.378 284.457 547.291 283.919Z" fill="#05486E"/>
<path d="M558.155 253.706C564.181 245.971 567.523 236.492 567.676 226.698C564.84 228.801 561.629 230.348 558.214 231.257C554.59 232.22 550.607 232.413 547.194 230.863C542.391 228.68 539.55 223.113 540.095 217.876C540.64 212.639 544.268 207.961 548.992 205.612C553.828 203.356 559.343 203.023 564.416 204.681C567.1 202.401 570.386 200.941 573.881 200.475C577.375 200.01 580.93 200.56 584.119 202.058C591.46 205.652 595.52 213.975 596.224 222.102C596.928 230.229 594.835 238.309 592.759 246.2L592.525 247.091C591.879 249.547 590.001 254.26 590.001 254.26C590.001 254.26 579.095 252.113 574.763 250.737C568.482 253.001 558.155 253.706 558.155 253.706Z" fill="#2F2E41"/>
<path d="M506.169 255.688L497.283 256.33C497.06 256.346 496.839 256.273 496.67 256.127C496.5 255.981 496.396 255.773 496.38 255.55C496.364 255.328 496.437 255.108 496.583 254.939C496.73 254.77 496.938 254.666 497.161 254.65L506.047 254.008C506.158 254 506.269 254.014 506.374 254.048C506.48 254.083 506.577 254.138 506.661 254.211C506.746 254.283 506.814 254.371 506.864 254.47C506.914 254.569 506.944 254.677 506.952 254.787C506.96 254.898 506.946 255.009 506.911 255.114C506.876 255.219 506.82 255.316 506.748 255.4C506.675 255.484 506.586 255.552 506.487 255.602C506.388 255.651 506.28 255.681 506.169 255.688Z" fill="#3F3D56"/>
<path d="M506.474 259.889L497.588 260.53C497.477 260.539 497.366 260.525 497.26 260.49C497.155 260.456 497.057 260.4 496.973 260.328C496.889 260.256 496.82 260.167 496.77 260.068C496.721 259.969 496.691 259.862 496.683 259.751C496.675 259.641 496.689 259.53 496.724 259.425C496.759 259.32 496.814 259.222 496.887 259.139C496.96 259.055 497.048 258.986 497.148 258.937C497.247 258.887 497.355 258.858 497.466 258.85L506.352 258.209C506.575 258.193 506.796 258.266 506.965 258.412C507.134 258.558 507.239 258.765 507.255 258.988C507.271 259.211 507.198 259.431 507.051 259.6C506.905 259.769 506.697 259.873 506.474 259.889Z" fill="#3F3D56"/>
<path d="M506.778 264.09L497.892 264.731C497.669 264.747 497.449 264.673 497.28 264.527C497.111 264.381 497.007 264.174 496.991 263.951C496.975 263.729 497.048 263.509 497.194 263.34C497.34 263.171 497.547 263.067 497.77 263.051L506.656 262.409C506.88 262.393 507.1 262.466 507.27 262.612C507.439 262.759 507.543 262.966 507.56 263.189C507.576 263.411 507.502 263.632 507.356 263.8C507.209 263.969 507.002 264.073 506.778 264.09Z" fill="#3F3D56"/>
<path d="M764.156 430H0.844371C0.62043 430 0.40566 429.911 0.24731 429.753C0.0889596 429.595 0 429.381 0 429.158C0 428.934 0.0889596 428.72 0.24731 428.562C0.40566 428.404 0.62043 428.315 0.844371 428.315H764.156C764.38 428.315 764.594 428.404 764.753 428.562C764.911 428.72 765 428.934 765 429.158C765 429.381 764.911 429.595 764.753 429.753C764.594 429.911 764.38 430 764.156 430Z" fill="#3F3D56"/>
<path d="M405.956 149.51H320.675C318.66 149.508 316.728 148.709 315.304 147.287C313.879 145.866 313.078 143.939 313.075 141.929V68.6484C313.078 66.6385 313.879 64.7116 315.304 63.2905C316.728 61.8693 318.66 61.0699 320.675 61.0676H405.956C407.971 61.0699 409.903 61.8693 411.327 63.2905C412.752 64.7117 413.553 66.6385 413.556 68.6484V141.929C413.553 143.939 412.752 145.866 411.327 147.287C409.903 148.709 407.971 149.508 405.956 149.51ZM320.675 62.7522C319.108 62.7539 317.605 63.3757 316.497 64.4811C315.389 65.5864 314.766 67.0851 314.764 68.6484V141.929C314.766 143.493 315.389 144.991 316.497 146.097C317.605 147.202 319.108 147.824 320.675 147.826H405.956C407.523 147.824 409.026 147.202 410.134 146.097C411.242 144.991 411.865 143.493 411.867 141.929V68.6484C411.865 67.0851 411.242 65.5864 410.134 64.4811C409.026 63.3757 407.523 62.7539 405.956 62.7522H320.675Z" fill="#F2F2F2"/>
<path d="M393.487 138.139H333.144C331.241 138.137 329.416 137.382 328.071 136.04C326.725 134.698 325.969 132.878 325.966 130.979V79.5985C325.969 77.7003 326.725 75.8805 328.071 74.5382C329.416 73.196 331.241 72.441 333.144 72.4388H393.487C395.39 72.441 397.215 73.196 398.56 74.5382C399.906 75.8805 400.662 77.7003 400.665 79.5985V130.979C400.662 132.878 399.906 134.698 398.56 136.04C397.215 137.382 395.39 138.137 393.487 138.139Z" fill="#E6E6E6"/>
<path d="M363.738 50.1175C366.069 50.1175 367.96 48.2319 367.96 45.906C367.96 43.58 366.069 41.6944 363.738 41.6944C361.406 41.6944 359.516 43.58 359.516 45.906C359.516 48.2319 361.406 50.1175 363.738 50.1175Z" fill="#F2F2F2"/>
<path d="M372.614 62.3428L363.74 47.5493L354.916 62.3403L353.465 61.4795L363.736 44.2626L374.063 61.477L372.614 62.3428Z" fill="#F2F2F2"/>
<path d="M373.448 99.3927C373.446 98.1179 373.305 96.8471 373.029 95.6023H360.36C359.464 95.6023 358.605 95.9573 357.972 96.5891C357.339 97.221 356.983 98.078 356.983 98.9715V117.017C361.453 116.701 365.636 114.707 368.691 111.437C371.746 108.166 373.446 103.863 373.448 99.3927Z" fill="#05486E"/>
<path d="M355.716 117.924C352.212 117.925 348.78 116.938 345.815 115.076C342.849 113.214 340.472 110.554 338.958 107.402C337.444 104.25 336.854 100.736 337.256 97.2635C337.659 93.7916 339.038 90.504 341.233 87.7802C343.429 85.0565 346.352 83.0077 349.665 81.8704C352.978 80.7331 356.546 80.5537 359.957 81.3528C363.367 82.1519 366.482 83.8969 368.941 86.3865C371.4 88.8761 373.104 92.0087 373.854 95.4227L374.078 96.4447H360.36C359.689 96.4455 359.045 96.7119 358.57 97.1857C358.095 97.6594 357.828 98.3017 357.827 98.9716V117.802L356.896 117.868C356.505 117.896 356.114 117.924 355.716 117.924ZM355.716 82.5466C351.237 82.5466 346.942 84.3214 343.775 87.4807C340.608 90.64 338.829 94.9249 338.829 99.3928C338.829 103.861 340.608 108.146 343.775 111.305C346.942 114.464 351.237 116.239 355.716 116.239C355.858 116.239 355.998 116.235 356.138 116.228V98.9716C356.14 97.8551 356.585 96.7846 357.376 95.995C358.168 95.2055 359.241 94.7614 360.36 94.7601H371.946C370.923 91.2503 368.79 88.1646 365.865 85.9634C362.94 83.7623 359.38 82.5637 355.716 82.5466Z" fill="white"/>
<path d="M380.625 123.399H360.36C359.241 123.397 358.168 122.953 357.376 122.164C356.585 121.374 356.14 120.304 356.138 119.187V116.233L356.923 116.177C359.34 116.011 361.693 115.326 363.821 114.169C365.949 113.013 367.801 111.412 369.252 109.476C370.703 107.539 371.717 105.314 372.227 102.951C372.737 100.587 372.729 98.1424 372.205 95.7825L371.98 94.76H380.625C381.744 94.7613 382.817 95.2054 383.609 95.995C384.4 96.7845 384.846 97.855 384.847 98.9716V119.187C384.846 120.304 384.4 121.374 383.609 122.164C382.817 122.953 381.744 123.397 380.625 123.399ZM357.827 117.785V119.187C357.828 119.857 358.095 120.499 358.57 120.973C359.045 121.447 359.689 121.713 360.36 121.714H380.625C381.297 121.713 381.94 121.447 382.415 120.973C382.89 120.499 383.157 119.857 383.158 119.187V98.9716C383.157 98.3016 382.89 97.6593 382.415 97.1856C381.94 96.7119 381.297 96.4454 380.625 96.4446H374.05C374.21 97.4192 374.291 98.4051 374.292 99.3927C374.277 103.937 372.593 108.317 369.559 111.706C366.525 115.095 362.351 117.258 357.827 117.785Z" fill="white"/>
</g>
<defs>
<clipPath id="clip0_21_218">
<rect width="765" height="430" fill="white"/>
</clipPath>
</defs>
</svg>
