<svg width="18" height="19" viewBox="0 0 18 19" fill="none" xmlns="http://www.w3.org/2000/svg">
<g clip-path="url(#clip0_51_63)">
<path d="M17.617 9.70251C17.617 8.96001 17.5609 8.42001 17.426 7.85751H8.98828V11.1988H13.9431C13.842 12.0313 13.3027 13.28 12.1005 14.1238L12.0892 14.2363L14.752 16.3063L14.9318 16.3288C16.6396 14.7538 17.617 12.4363 17.617 9.70251Z" fill="#4285F4"/>
<path d="M8.98835 18.5C11.4152 18.5 13.4488 17.7012 14.9431 16.3175L12.1118 14.1125C11.3478 14.6412 10.3366 15.0125 8.99958 15.0125C6.61769 15.0125 4.60656 13.4375 3.8875 11.2775L3.78638 11.2887L1.00001 13.4375L0.966309 13.5387C2.43814 16.475 5.47168 18.5 8.98835 18.5Z" fill="#34A853"/>
<path d="M3.87619 11.2775C3.68519 10.715 3.57284 10.1187 3.57284 9.49999C3.57284 8.88124 3.68519 8.28499 3.86496 7.72249V7.59874L1.05612 5.41624L0.96624 5.46124C0.348296 6.67624 0 8.04874 0 9.49999C0 10.9512 0.348296 12.3237 0.955004 13.5387L3.87619 11.2775Z" fill="#FBBC05"/>
<path d="M8.98835 3.97625C10.6737 3.97625 11.8197 4.7075 12.4601 5.315L14.9993 2.84C13.4375 1.38875 11.4152 0.5 8.98835 0.5C5.47169 0.5 2.43814 2.525 0.955078 5.46125L3.86503 7.7225C4.59533 5.55125 6.60646 3.97625 8.98835 3.97625Z" fill="#EB4335"/>
</g>
<defs>
<clipPath id="clip0_51_63">
<rect y="0.5" width="18" height="18" rx="9" fill="white"/>
</clipPath>
</defs>
</svg>
