<svg width="589" height="546" viewBox="0 0 589 546" fill="none" xmlns="http://www.w3.org/2000/svg">
<path fill-rule="evenodd" clip-rule="evenodd" d="M423.288 185.16C503.406 187.986 563.886 245.995 584.766 314.842C602.612 373.688 561.551 427.203 508.346 465.619C440.698 514.462 357.66 573.397 283.995 532.007C200.705 485.209 183.761 384.377 216.898 301.864C247.214 226.377 333.227 181.982 423.288 185.16Z" fill="#07689F"/>
<path fill-rule="evenodd" clip-rule="evenodd" d="M222.288 0.159777C302.406 2.98628 362.886 60.9945 383.766 129.842C401.612 188.688 360.551 242.203 307.346 280.619C239.698 329.462 156.66 388.397 82.995 347.007C-0.295309 300.209 -17.2386 199.377 15.8984 116.864C46.2141 41.3766 132.227 -3.01751 222.288 0.159777Z" fill="#07689F"/>
<g clip-path="url(#clip0_0_1)">
<path opacity="0.4" d="M470.464 184.788C477.041 184.788 482.373 179.45 482.373 172.865C482.373 166.28 477.041 160.942 470.464 160.942C463.887 160.942 458.555 166.28 458.555 172.865C458.555 179.45 463.887 184.788 470.464 184.788Z" fill="#05486E"/>
<path opacity="0.4" d="M219.378 119.191C228.754 119.191 236.354 111.581 236.354 102.194C236.354 92.8068 228.754 85.1969 219.378 85.1969C210.002 85.1969 202.402 92.8068 202.402 102.194C202.402 111.581 210.002 119.191 219.378 119.191Z" fill="#05486E"/>
<path opacity="0.4" d="M187.96 122.235C194.537 122.235 199.868 116.897 199.868 110.312C199.868 103.727 194.537 98.3886 187.96 98.3886C181.383 98.3886 176.051 103.727 176.051 110.312C176.051 116.897 181.383 122.235 187.96 122.235Z" fill="#05486E"/>
<path d="M480.438 306.198C471.028 316.512 470.687 331.537 470.687 331.537C470.687 331.537 485.601 329.839 495.011 319.525C504.42 309.211 504.762 294.186 504.762 294.186C504.762 294.186 489.848 295.884 480.438 306.198Z" fill="#3F3D56"/>
<path d="M485.754 309.166C482.906 322.841 470.937 331.911 470.937 331.911C470.937 331.911 463.585 318.809 466.432 305.133C469.28 291.458 481.248 282.388 481.248 282.388C481.248 282.388 488.601 295.491 485.754 309.166Z" fill="#05486E"/>
<path d="M473.532 168.054V331.078L419.257 375.969H141.589V205.069L222.608 168.054H473.532Z" fill="#3F3D56"/>
<path opacity="0.1" d="M473.532 168.054V168.708L454.048 181.765L419.257 205.069H141.589L222.608 168.054H473.532Z" fill="black"/>
<path opacity="0.1" d="M473.532 168.054V331.078L419.257 375.969L419.651 204.676L454.048 181.765L473.218 168.054H473.532Z" fill="black"/>
<path d="M400.379 190.499H231.261L243.847 183.411H405.885L400.379 190.499Z" fill="#2F2E41"/>
<path d="M546.34 384.836C546.34 384.836 549.618 398.563 546.638 399.159C543.657 399.756 529.053 399.564 525.476 400.161C521.9 400.757 514.448 399.756 514.448 397.071C514.448 394.385 522.198 392.594 522.198 392.594C522.198 392.594 533.225 386.626 533.523 386.328C533.822 386.029 546.34 384.836 546.34 384.836Z" fill="#2F2E41"/>
<path d="M543.657 303.965C543.657 303.965 542.763 314.111 542.763 315.007C542.763 315.902 543.657 329.927 542.763 330.524C541.869 331.121 543.359 335.299 543.359 336.791C543.359 338.283 548.128 363.051 546.936 372.601C545.744 382.15 548.724 381.255 547.83 382.15C546.936 383.045 546.936 383.045 546.936 384.836C546.936 386.626 537.398 388.118 537.398 388.118L526.966 322.169L532.331 302.473L543.657 303.965Z" fill="#575A89"/>
<path opacity="0.1" d="M543.657 303.965C543.657 303.965 542.763 314.111 542.763 315.007C542.763 315.902 543.657 329.927 542.763 330.524C541.869 331.121 543.359 335.299 543.359 336.791C543.359 338.283 548.128 363.051 546.936 372.601C545.744 382.15 548.724 381.255 547.83 382.15C546.936 383.045 546.936 383.045 546.936 384.836C546.936 386.626 537.398 388.118 537.398 388.118L526.966 322.169L532.331 302.473L543.657 303.965Z" fill="black"/>
<path d="M542.167 389.013C542.167 389.013 545.148 399.756 542.167 400.353C539.187 400.95 524.582 399.669 521.005 400.266C517.429 400.863 509.978 400.95 509.978 398.264C509.978 395.579 517.727 393.788 517.727 393.788C517.727 393.788 528.755 387.82 529.053 387.521C529.351 387.223 542.167 389.013 542.167 389.013Z" fill="#2F2E41"/>
<path d="M546.34 292.029C546.34 292.029 549.916 300.683 545.744 305.159C541.571 309.635 536.802 318.588 536.802 319.184C536.802 319.781 545.148 379.166 543.955 383.045C542.763 386.924 543.061 389.312 543.359 389.909C543.657 390.505 540.379 393.788 536.802 393.788C533.226 393.788 527.861 391.102 527.265 388.715C526.668 386.328 528.159 365.737 527.861 361.858C527.563 357.978 526.072 352.308 525.476 351.115C524.88 349.921 521.602 348.727 521.005 345.146C520.409 341.565 515.641 295.908 517.131 294.416C518.621 292.924 546.34 292.029 546.34 292.029Z" fill="#575A89"/>
<path d="M523.688 223.393C529.284 223.393 533.821 218.851 533.821 213.247C533.821 207.644 529.284 203.101 523.688 203.101C518.091 203.101 513.554 207.644 513.554 213.247C513.554 218.851 518.091 223.393 523.688 223.393Z" fill="#FFB9B9"/>
<path d="M529.947 218.32C529.947 218.32 527.861 229.362 529.351 230.555C530.841 231.749 518.025 233.539 518.025 233.539C518.025 233.539 516.535 218.917 516.237 217.425C515.939 215.933 529.947 218.32 529.947 218.32Z" fill="#FFB9B9"/>
<path d="M516.237 232.644C516.237 232.644 519.813 222.2 534.418 225.184C534.418 225.184 537.1 226.079 536.206 226.974C535.312 227.87 534.418 227.87 535.61 228.765C536.802 229.66 538.292 228.765 537.398 229.66C536.504 230.555 545.446 235.927 544.849 246.073C544.253 256.219 546.936 270.543 544.849 272.93C542.763 275.317 546.34 285.762 545.744 287.851C545.148 289.94 549.32 292.625 547.532 293.521C545.744 294.416 513.554 299.787 512.66 293.521C511.766 287.254 512.362 291.73 511.468 290.238C510.574 288.746 510.276 286.06 510.872 282.778C511.468 279.495 512.958 271.438 512.362 268.454C511.766 265.47 512.362 240.403 514.15 237.419C515.939 234.435 516.237 232.644 516.237 232.644Z" fill="#05486E"/>
<path d="M522.496 305.457C522.496 305.457 526.966 322.467 521.303 322.467C515.64 322.467 515.938 304.86 515.938 304.86L522.496 305.457Z" fill="#FFB9B9"/>
<path d="M519.217 213.247C519.217 214.113 520.469 214.662 522.409 214.787H522.412C523.235 214.834 524.06 214.818 524.88 214.739C526.12 214.626 526.633 215.793 526.844 217.333C527.19 219.872 526.707 223.432 527.264 223.99C528.033 224.76 533.64 223.987 535.392 222.241C535.665 221.997 535.847 221.666 535.908 221.304C536.092 220.238 536.617 219.261 537.404 218.52C538.438 217.389 539.911 216.136 541.571 214.142C544.551 210.562 541.571 210.263 540.677 207.577C539.783 204.892 538.292 203.996 538.292 202.206C538.292 200.415 531.437 198.923 525.774 199.222C520.111 199.52 521.303 206.682 521.303 206.682C521.303 206.682 520.967 207.548 520.564 208.664C520.02 210.064 519.578 211.502 519.241 212.967C519.227 213.06 519.219 213.153 519.217 213.247Z" fill="#2F2E41"/>
<path opacity="0.1" d="M520.409 237.12C520.409 237.12 530.543 236.524 531.437 251.444C532.331 266.365 532.033 280.391 532.033 280.689C532.033 280.987 527.861 309.337 523.986 309.337C520.111 309.337 517.131 308.74 516.237 307.248C515.342 305.756 518.621 284.27 518.621 284.27C518.621 284.27 520.111 261.59 517.727 254.428C515.342 247.267 515.044 238.016 520.409 237.12Z" fill="black"/>
<path d="M518.919 235.628C518.919 235.628 529.053 235.032 529.947 249.952C530.841 264.873 530.543 278.898 530.543 279.197C530.543 279.495 526.37 307.845 522.496 307.845C518.621 307.845 515.64 307.248 514.746 305.756C513.852 304.264 517.131 282.778 517.131 282.778C517.131 282.778 518.621 260.098 516.237 252.936C513.852 245.774 513.554 236.524 518.919 235.628Z" fill="#05486E"/>
<path d="M350.88 89.7596C350.88 89.7596 346.463 77.2314 343.274 81.1618C340.084 85.0922 348.181 91.7248 348.181 91.7248L350.88 89.7596Z" fill="#A0616A"/>
<path d="M371.734 77.477L369.078 78.4628C369.078 78.4628 367.809 84.1096 368.299 85.0922C368.79 86.0748 369.036 85.3379 368.299 87.3031C367.563 89.2683 365.355 94.4269 365.11 95.1639C364.865 95.9009 350.879 90.4965 350.879 87.7944C350.879 87.7944 347.935 91.2335 346.463 91.9704C346.463 91.9704 362.656 103.762 364.864 105.236C367.073 106.71 368.299 105.973 370.262 104.253C372.225 102.533 380.567 88.2857 380.567 88.2857L371.734 77.477Z" fill="#575A89"/>
<path d="M364.619 164.683C364.619 164.683 364.864 167.385 365.355 167.631C365.846 167.877 369.526 174.018 365.355 175.246C361.184 176.474 358.731 175.983 357.749 176.474C356.768 176.966 339.593 177.948 339.348 175.246C339.103 172.544 347.69 172.053 347.69 172.053C347.69 172.053 355.541 166.894 356.768 164.192C357.995 161.49 364.619 164.683 364.619 164.683Z" fill="#2F2E41"/>
<path d="M414.426 169.596C414.426 169.596 420.314 179.668 418.842 180.896C417.37 182.124 403.033 186.6 400.931 186.792C398.232 187.037 396.269 184.827 398.478 183.598C400.686 182.37 405.348 177.211 405.348 175.492V171.07L414.426 169.596Z" fill="#2F2E41"/>
<path d="M420.069 103.762C420.069 103.762 425.221 110.149 417.125 120.466L403.63 137.662C403.63 137.662 411.972 150.927 412.218 157.805C412.463 164.683 414.18 163.209 414.671 166.157C415.162 169.105 417.37 167.631 415.652 169.842C413.935 172.053 407.556 174.018 405.593 172.298C404.918 171.68 404.391 170.917 404.051 170.066C403.711 169.216 403.567 168.299 403.63 167.385C403.63 166.403 400.195 160.753 399.95 159.033C399.705 157.314 390.627 143.312 390.627 143.312C390.627 143.312 387.682 134.959 391.117 130.292C394.552 125.625 396.822 119.005 396.822 119.005C396.822 119.005 386.701 131.275 379.586 134.222C379.586 134.222 376.887 134.714 377.378 135.942C377.868 137.17 377.378 137.907 376.642 139.135C375.905 140.364 370.753 154.611 369.036 158.296C367.318 161.981 368.054 164.192 366.091 165.42C364.129 166.648 355.296 165.666 355.296 164.438C355.296 163.209 356.523 160.016 357.259 158.296C357.995 156.577 363.883 136.679 363.393 133.24C362.902 129.801 363.638 125.133 367.318 123.168C370.998 121.203 389.645 105.236 390.627 105.236C391.608 105.236 420.069 103.762 420.069 103.762Z" fill="#2F2E41"/>
<path d="M370.753 65.1945C376.444 65.1945 381.058 60.5752 381.058 54.8771C381.058 49.179 376.444 44.5598 370.753 44.5598C365.062 44.5598 360.448 49.179 360.448 54.8771C360.448 60.5752 365.062 65.1945 370.753 65.1945Z" fill="#A0616A"/>
<path d="M379.095 55.8597C379.095 55.8597 382.285 61.5097 386.21 62.2467C390.136 62.9837 375.905 74.2836 375.905 74.2836C375.905 74.2836 372.47 63.4749 369.526 62.9836C366.582 62.4923 379.095 55.8597 379.095 55.8597Z" fill="#A0616A"/>
<path d="M369.036 78.9509C369.036 82.1444 378.604 91.2335 378.604 91.2335L387.682 98.8487C387.682 98.8487 387.928 101.551 388.909 101.796C389.891 102.042 391.117 102.042 390.136 103.516C389.154 104.99 386.701 108.183 388.909 108.675C389.575 108.776 390.246 108.84 390.919 108.866C391.507 108.901 392.199 108.933 392.977 108.962C394.793 109.026 397.065 109.068 399.526 109.051C400.225 109.048 400.936 109.04 401.66 109.026C410.937 108.842 421.683 107.773 420.805 104.253C419.333 98.3573 420.314 96.3921 417.125 93.1987C413.935 90.0052 408.783 78.9509 408.783 78.9509C408.783 78.9509 398.478 61.5097 389.891 61.5097L388.107 61.0405C387.278 60.8219 386.402 60.8698 385.601 61.1776C384.801 61.4853 384.118 62.0372 383.649 62.7551C381.926 65.3811 379.21 69.3263 377.623 70.5988C375.169 72.564 374.787 71.1539 374.787 71.1539C374.787 71.1539 369.036 75.7575 369.036 78.9509Z" fill="#575A89"/>
<path d="M390.872 116.29C390.872 116.29 383.757 127.344 388.173 129.309C392.589 131.275 395.043 117.764 395.043 117.764L390.872 116.29Z" fill="#A0616A"/>
<path d="M377.49 53.7118C377.094 53.6618 376.969 53.1622 376.902 52.7687C376.546 50.6614 374.977 48.6632 372.87 48.323C372.065 48.2157 371.245 48.2818 370.467 48.5168C369.353 48.823 368.307 49.3386 367.385 50.0361C366.934 50.449 366.412 50.7771 365.844 51.0046C365.458 51.1183 363.816 51.8491 363.432 51.9728C362.589 52.2446 361.891 53.1285 361.022 52.9535C360.191 52.7861 359.875 51.7813 359.742 50.9432C359.438 49.0338 360.529 46.1848 361.614 44.5855C362.438 43.3718 363.832 42.6733 365.225 42.2189C366.858 41.7228 368.535 41.389 370.233 41.2226C372.525 40.9516 374.899 40.8078 377.096 41.5172C379.292 42.2265 381.292 43.9618 381.702 46.2358C381.788 46.7095 381.804 47.1948 381.908 47.6646C382.164 48.8107 382.921 49.7741 383.363 50.8619C383.682 51.6608 383.83 52.5177 383.798 53.3773C383.765 54.237 383.553 55.0803 383.176 55.853C382.564 57.0848 381.5 58.2686 381.729 59.625L379.836 58.1302C379.562 57.9746 379.35 57.7297 379.235 57.4364C379.12 57.1432 379.109 56.8193 379.204 56.5188L379.479 54.1452C379.575 53.7151 379.532 53.266 379.357 52.8619C378.515 51.39 378.149 53.7951 377.49 53.7118Z" fill="#2F2E41"/>
<path opacity="0.1" d="M395.288 99.34L392.977 108.962C395.308 109.046 398.392 109.09 401.66 109.026C402.484 106.55 403.272 103.968 403.876 101.551C406.084 92.7074 402.403 79.1966 400.441 72.8096C398.478 66.4227 393.571 64.7032 393.571 64.7032C391.559 65.4115 389.659 66.4041 387.928 67.651C384.738 69.8618 395.288 99.34 395.288 99.34Z" fill="black"/>
<path opacity="0.1" d="M393.325 98.8487L390.918 108.866C391.507 108.901 392.199 108.933 392.977 108.962C394.793 109.026 397.064 109.068 399.525 109.051C400.411 106.42 401.267 103.644 401.913 101.06C404.121 92.2161 400.441 78.7053 398.478 72.3183C396.515 65.9314 392.221 72.9324 392.221 72.9324C392.221 72.9324 393.939 68.7564 390.749 70.9672C387.56 73.1781 393.325 98.8487 393.325 98.8487Z" fill="black"/>
<path d="M392.589 64.2119C392.589 64.2119 397.496 65.9314 399.459 72.3184C401.422 78.7053 405.102 92.2161 402.894 101.06C400.686 109.903 396.024 120.957 396.024 120.957C396.024 120.957 391.363 117.518 389.645 118.255L394.307 98.8487C394.307 98.8487 383.757 69.3706 386.946 67.1597C388.677 65.9129 390.578 64.9202 392.589 64.2119Z" fill="#575A89"/>
<path d="M396.247 187.428L328.366 45.8019L214.864 100.336L256.607 187.428H396.247Z" fill="#F2F2F2"/>
<path d="M305.395 101.394L245.11 130.358L246.905 134.105L307.191 105.14L305.395 101.394Z" fill="#3F3D56"/>
<path d="M321.356 134.695L261.071 163.66L262.867 167.406L323.152 138.441L321.356 134.695Z" fill="#3F3D56"/>
<path d="M332.32 81.7993L317.353 88.9906L324.535 103.976L339.503 96.7849L332.32 81.7993Z" fill="#3F3D56"/>
<path d="M348.281 115.101L333.314 122.292L340.496 137.277L355.464 130.086L348.281 115.101Z" fill="#3F3D56"/>
<path d="M333.352 71.4193L327.187 88.9788L318.878 86.0546L317.741 89.2938L329.275 93.3521L336.586 72.5578L333.352 71.4193Z" fill="#57B894"/>
<path d="M349.312 104.72L343.148 122.28L334.839 119.356L333.702 122.595L345.236 126.653L352.548 105.859L349.312 104.72Z" fill="#57B894"/>
<path d="M57.5509 350.432L88.219 343.873L81.668 313.167L51 319.726L57.5509 350.432Z" fill="#F2F2F2"/>
<path d="M87.366 304.963C87.366 304.963 76.1016 313.019 79.8564 316.241C83.6112 319.464 91.1208 306.574 91.1208 306.574L87.366 304.963Z" fill="#FFB9B9"/>
<path d="M139.397 317.315C139.397 317.315 137.252 344.168 136.715 347.928C136.179 351.687 135.642 385.522 134.57 389.281C133.497 393.04 132.424 402.17 132.424 402.17H125.987C125.987 402.17 126.524 385.522 124.914 379.077C123.305 372.632 123.842 354.909 123.842 354.909C123.842 354.909 120.623 323.223 122.232 318.927C123.842 314.63 139.397 317.315 139.397 317.315Z" fill="#FFB9B9"/>
<path d="M130.815 400.559C130.815 400.559 133.497 402.17 133.497 403.244C133.497 404.319 132.96 407.004 133.497 408.078C134.033 409.152 137.788 413.449 135.642 414.523C133.497 415.597 123.842 414.523 123.842 414.523C123.842 414.523 124.378 407.004 124.914 406.467C125.451 405.93 124.378 400.559 124.378 400.559H130.815Z" fill="#2F2E41"/>
<path d="M98.3922 316.657C98.3922 316.657 97.7107 343.587 97.85 347.382C97.9893 351.177 94.9756 384.881 95.6484 388.733C96.3211 392.584 96.4308 401.776 96.4308 401.776L102.832 402.453C102.832 402.453 104.044 385.84 106.32 379.6C108.596 373.36 109.921 355.678 109.921 355.678C109.921 355.678 116.443 324.505 115.293 320.063C114.143 315.622 98.3922 316.657 98.3922 316.657Z" fill="#FFB9B9"/>
<path d="M98.2001 400.343C98.2001 400.343 95.364 401.664 95.2514 402.732C95.1388 403.8 95.3907 406.527 94.7447 407.539C94.0986 408.55 89.9141 412.428 91.9353 413.722C93.9564 415.016 103.671 414.962 103.671 414.962C103.671 414.962 103.926 407.429 103.449 406.838C102.972 406.248 104.601 401.02 104.601 401.02L98.2001 400.343Z" fill="#2F2E41"/>
<path d="M131.888 277.036C131.888 277.036 136.179 277.573 137.788 286.703C139.397 295.833 145.298 318.927 140.47 320.538C135.642 322.149 121.16 325.371 120.623 324.297C120.087 323.223 119.014 320.538 119.014 320.538C119.014 320.538 120.623 325.371 118.478 325.371C116.332 325.371 95.4122 322.149 95.9486 320.538C96.485 318.927 97.5578 307.111 97.5578 307.111C97.5578 307.111 100.776 287.24 103.995 284.018C104.926 283.122 105.649 282.033 106.113 280.826C106.576 279.62 106.769 278.326 106.677 277.036H131.888Z" fill="#2F2E41"/>
<path d="M139.934 272.74C139.934 272.74 132.96 271.129 131.888 273.277C130.815 275.425 134.57 278.647 136.179 278.647C137.788 278.647 140.47 277.036 140.47 277.036L139.934 272.74Z" fill="#FFB9B9"/>
<path d="M125.451 227.09C130.783 227.09 135.106 222.762 135.106 217.423C135.106 212.084 130.783 207.756 125.451 207.756C120.118 207.756 115.795 212.084 115.795 217.423C115.795 222.762 120.118 227.09 125.451 227.09Z" fill="#FFB9B9"/>
<path d="M123.841 224.405C123.841 224.405 122.232 231.923 123.305 231.923C124.378 231.923 115.259 236.757 115.259 236.757L108.286 235.683L106.14 232.46C106.14 232.46 117.405 224.942 117.405 220.645C117.405 216.349 123.841 224.405 123.841 224.405Z" fill="#FFB9B9"/>
<path d="M119.014 231.923C119.014 231.923 120.623 230.849 121.159 230.849H125.451C125.987 230.849 132.96 232.46 132.96 232.46L137.252 256.628C137.252 256.628 129.742 268.98 135.106 278.647C135.106 278.647 133.497 277.573 125.987 278.11C118.477 278.647 105.067 280.258 104.531 280.258C103.995 280.258 103.995 275.962 104.531 274.888C105.067 273.814 103.995 274.351 103.995 271.666C103.995 268.98 102.385 264.147 102.385 264.147L94.8757 236.757C94.8757 236.757 104.531 231.386 106.14 231.923C107.749 232.46 112.577 234.072 113.65 233.534C114.723 232.997 119.014 231.923 119.014 231.923Z" fill="#05486E"/>
<path d="M131.351 232.997L132.96 232.46C132.96 232.46 136.179 231.923 139.933 235.146C143.688 238.368 157.635 248.035 157.635 248.035C157.635 248.035 162.999 252.332 161.39 257.165C159.78 261.999 157.098 273.814 149.052 273.277C149.052 273.277 144.225 279.721 141.543 278.647C138.861 277.573 136.715 273.277 138.324 272.74C139.934 272.203 144.225 266.832 144.225 266.832L138.861 256.628H137.252L131.351 253.406L131.351 232.997Z" fill="#05486E"/>
<path d="M99.1669 236.22L94.8757 236.757C94.8757 236.757 91.1209 238.368 91.6573 245.35C92.1937 252.332 88.4388 284.018 90.0481 287.777C90.0481 287.777 84.684 306.037 85.7568 306.574C86.8296 307.111 93.2665 310.334 92.7301 308.185C92.1937 306.037 98.6305 291 98.6305 291C98.6305 291 106.14 282.944 102.922 271.665V262.536L99.1669 236.22Z" fill="#05486E"/>
<path d="M133.486 226.769L126.667 228.256L125.791 224.895L126.128 228.374L115.127 230.774L114.644 228.918L114.829 230.839L107.784 232.375L106.276 217.889C104.727 211.945 110.382 205.609 116.319 204.058L118.953 203.369C123.314 202.23 131.24 203.266 132.378 207.632C130.386 215.244 126.991 223.589 133.486 226.769Z" fill="#2F2E41"/>
</g>
<defs>
<clipPath id="clip0_0_1">
<rect width="497" height="374" fill="white" transform="translate(51 41)"/>
</clipPath>
</defs>
</svg>
