<svg width="126" height="24" viewBox="0 0 126 24" fill="none" xmlns="http://www.w3.org/2000/svg">
<g clip-path="url(#clip0_25_273)">
<path d="M33.2484 19.6105H0.806094C0.360788 19.6105 0 19.9737 0 20.4231C0 20.872 0.360334 21.2357 0.806094 21.2357H33.248C33.6933 21.2357 34.0541 20.8724 34.0541 20.4231C34.0541 19.9742 33.6937 19.6105 33.2484 19.6105Z" fill="#07689F"/>
<path d="M4.86786 5.85982L9.01738 17.438C9.13688 17.7682 9.44542 17.9743 9.77621 17.9743C9.86755 17.9743 9.96024 17.9583 10.0502 17.9267C10.4692 17.7728 10.6864 17.3079 10.5351 16.8856L6.57002 5.82317L17.5759 1.83813L23.6925 16.9112C23.8201 17.2254 24.1205 17.416 24.4386 17.416C24.5408 17.416 24.6431 17.3967 24.7439 17.3555C25.1565 17.1856 25.3533 16.711 25.1847 16.2956L18.7759 0.502456C18.7677 0.481844 18.7555 0.464438 18.7455 0.4452C18.7332 0.420923 18.7219 0.396188 18.7078 0.373744C18.6923 0.349925 18.6746 0.328397 18.6573 0.30641C18.6423 0.28763 18.6283 0.267933 18.6119 0.250527C18.5896 0.226709 18.5646 0.206555 18.5396 0.185943C18.5256 0.174492 18.5124 0.161666 18.4978 0.151131C18.466 0.128228 18.4324 0.109448 18.3983 0.0915838C18.3883 0.0865452 18.3788 0.0801326 18.3688 0.0755521C18.3279 0.0563139 18.2856 0.041657 18.2425 0.0297477C18.237 0.0283735 18.232 0.0260825 18.227 0.0247084C18.1807 0.0127991 18.1339 0.00592842 18.0857 0.00226401C18.0816 0.00180596 18.078 0.00134779 18.0739 0.000889739C18.0294 -0.00140051 17.9844 0.000890466 17.9389 0.00592902C17.9294 0.00684512 17.9203 0.00684474 17.9108 0.00821889C17.8762 0.0132575 17.8417 0.0228769 17.8076 0.032954C17.7913 0.0375345 17.7749 0.0389083 17.7585 0.0448629L5.35497 4.53605C4.97918 4.67255 4.76835 5.06098 4.83605 5.44391C4.81151 5.57949 4.81833 5.72149 4.86786 5.85982Z" fill="#07689F"/>
<path d="M16.369 7.03883L14.311 12.4837L12.3372 10.8681C11.9909 10.5823 11.4838 10.6382 11.2039 10.9854C10.9222 11.3344 10.9758 11.8456 11.3202 12.1278L14.1588 14.451C14.1647 14.456 14.1725 14.4574 14.1788 14.4625C14.2397 14.5092 14.3056 14.5509 14.381 14.5797C14.3842 14.5811 14.3878 14.5815 14.391 14.5825C14.4037 14.587 14.416 14.5893 14.4287 14.5935C14.5078 14.6187 14.5873 14.6338 14.6673 14.6338C14.7395 14.6338 14.8104 14.6205 14.8799 14.6012C14.8999 14.5957 14.9186 14.5884 14.9381 14.5815C14.9881 14.5637 15.0358 14.5403 15.0822 14.5119C15.1003 14.5009 15.1185 14.4913 15.1358 14.4789C15.1926 14.4377 15.2462 14.391 15.2925 14.3337L15.2934 14.3324C15.298 14.3269 15.3007 14.3205 15.3048 14.3145C15.3489 14.2563 15.3825 14.194 15.4089 14.1295C15.4116 14.1221 15.417 14.1171 15.4198 14.1098L17.8739 7.61597C18.033 7.19686 17.8253 6.72735 17.4077 6.56841C16.9956 6.41038 16.5267 6.61696 16.369 7.03883Z" fill="#07689F"/>
<path d="M33.0027 22.3748H19.0314C18.5861 22.3748 18.2253 22.7381 18.2253 23.1874C18.2253 23.6363 18.5857 24 19.0314 24H33.0027C33.448 24 33.8088 23.6368 33.8088 23.1874C33.8088 22.7385 33.4484 22.3748 33.0027 22.3748Z" fill="#07689F"/>
<path d="M44.3725 7.28957C44.6728 6.87544 45.1902 6.50512 45.925 6.17859C46.6597 5.85207 47.4616 5.6888 48.3307 5.6888C49.6737 5.6888 50.839 5.99144 51.8266 6.5967C52.8142 7.20197 53.5687 8.02625 54.0901 9.06953C54.6115 10.1128 54.8722 11.2716 54.8722 12.5458C54.8722 13.8201 54.6115 14.9788 54.0901 16.0221C53.5687 17.0654 52.8142 17.8897 51.8266 18.495C50.839 19.1002 49.6737 19.4029 48.3307 19.4029C47.43 19.4029 46.636 19.2476 45.9487 18.937C45.2613 18.6264 44.736 18.2321 44.3725 17.7543V23.3451H40.8647V5.97551H44.3725V7.28957ZM45.2021 15.2337C45.8499 15.9266 46.719 16.273 47.8092 16.273C48.9153 16.273 49.7883 15.9266 50.4282 15.2337C51.0682 14.5408 51.3881 13.6449 51.3881 12.5458C51.3881 11.4787 51.0603 10.5946 50.4045 9.89381C49.7488 9.19298 48.8837 8.84256 47.8092 8.84256C46.7032 8.84256 45.8302 9.17306 45.1902 9.83408C44.5503 10.4951 44.2303 11.399 44.2303 12.5458C44.2303 13.6449 44.5543 14.5408 45.2021 15.2337ZM68.7256 7.194C69.5394 8.16562 69.9463 9.55136 69.9463 11.3512V19.1162H66.3437V11.3512C66.3437 10.4115 66.1106 9.73453 65.6445 9.3204C65.1783 8.90627 64.5661 8.69921 63.8076 8.69921C63.1598 8.69921 62.5752 8.95804 62.0537 9.4757C61.5323 9.99336 61.2874 10.8893 61.319 12.1636V19.1162H57.7875V1.02985H61.319V7.14622C61.7456 6.71616 62.2828 6.37371 62.9307 6.11886C63.5785 5.86401 64.2026 5.73659 64.8031 5.73659C66.6044 5.73659 67.9119 6.22239 68.7256 7.194ZM83.2901 17.8021C82.9899 18.2162 82.4724 18.5865 81.7377 18.9131C81.0029 19.2396 80.201 19.4029 79.332 19.4029C77.9889 19.4029 76.8236 19.1002 75.836 18.495C74.8485 17.8897 74.094 17.0654 73.5726 16.0221C73.0511 14.9788 72.7904 13.8201 72.7904 12.5458C72.7904 11.2716 73.0511 10.1128 73.5726 9.06953C74.094 8.02625 74.8485 7.20197 75.836 6.5967C76.8236 5.99144 77.9889 5.6888 79.332 5.6888C80.2326 5.6888 81.0266 5.8441 81.714 6.1547C82.4013 6.46529 82.9267 6.85952 83.2901 7.33736V5.97551H86.7979V19.1162H83.2901V17.8021ZM82.4606 9.85797C81.8127 9.1651 80.9437 8.81867 79.8534 8.81867C78.7473 8.81867 77.8744 9.1651 77.2344 9.85797C76.5945 10.5508 76.2745 11.4468 76.2745 12.5458C76.2745 13.613 76.6024 14.497 77.2581 15.1979C77.9139 15.8987 78.7789 16.2491 79.8534 16.2491C80.9595 16.2491 81.8325 15.9186 82.4724 15.2576C83.1123 14.5966 83.4323 13.6927 83.4323 12.5458C83.4323 11.4468 83.1084 10.5508 82.4606 9.85797ZM90.3294 1.05374H93.8846V19.1162H90.3294V1.05374ZM100.213 18.5308C99.1226 17.9176 98.2575 17.0853 97.6175 16.0341C96.9776 14.9828 96.6576 13.836 96.6576 12.5936C96.6576 11.3512 96.9776 10.2084 97.6175 9.1651C98.2575 8.12181 99.1186 7.29355 100.201 6.68032C101.283 6.06709 102.464 5.76048 103.744 5.76048C105.119 5.76048 106.363 6.09099 107.477 6.752C108.591 7.41301 109.48 8.35675 110.144 9.58321L106.944 10.8495C106.565 10.1964 106.099 9.70666 105.546 9.38013C104.993 9.05361 104.392 8.89034 103.744 8.89034C102.717 8.89034 101.868 9.24076 101.196 9.94159C100.525 10.6424 100.189 11.5264 100.189 12.5936C100.189 13.6608 100.529 14.5448 101.208 15.2456C101.888 15.9465 102.741 16.2969 103.768 16.2969C105.19 16.2969 106.288 15.6598 107.063 14.3855L110.073 15.5801C108.824 18.1605 106.723 19.4506 103.768 19.4506C102.488 19.4506 101.303 19.144 100.213 18.5308ZM115.346 18.5069C114.264 17.8937 113.407 17.0614 112.775 16.0102C112.143 14.9589 111.826 13.8121 111.826 12.5697C111.826 11.3433 112.143 10.2044 112.775 9.15316C113.407 8.1019 114.264 7.26966 115.346 6.65643C116.428 6.0432 117.61 5.73659 118.889 5.73659C120.169 5.73659 121.354 6.0432 122.445 6.65643C123.535 7.26966 124.4 8.1019 125.04 9.15316C125.68 10.2044 126 11.3433 126 12.5697C126 13.8121 125.68 14.9589 125.04 16.0102C124.4 17.0614 123.535 17.8937 122.445 18.5069C121.354 19.1201 120.169 19.4268 118.889 19.4268C117.61 19.4268 116.428 19.1201 115.346 18.5069ZM117.088 9.35624C116.535 9.68276 116.101 10.1287 115.785 10.6942C115.469 11.2596 115.311 11.8848 115.311 12.5697C115.311 13.2865 115.465 13.9276 115.773 14.493C116.081 15.0585 116.507 15.5045 117.053 15.831C117.598 16.1575 118.21 16.3208 118.889 16.3208C119.553 16.3208 120.158 16.1575 120.703 15.831C121.248 15.5045 121.678 15.0545 121.994 14.4811C122.31 13.9077 122.468 13.2706 122.468 12.5697C122.468 11.8848 122.31 11.2596 121.994 10.6942C121.678 10.1287 121.248 9.68276 120.703 9.35624C120.158 9.02971 119.553 8.86645 118.889 8.86645C118.242 8.86645 117.641 9.02971 117.088 9.35624Z" fill="#07689F"/>
</g>
<defs>
<clipPath id="clip0_25_273">
<rect width="126" height="24" fill="white"/>
</clipPath>
</defs>
</svg>
