<svg width="256" height="57" viewBox="0 0 256 57" fill="none" xmlns="http://www.w3.org/2000/svg">
<path fill-rule="evenodd" clip-rule="evenodd" d="M31.9131 56.1199C27.796 56.1199 24.4585 52.7823 24.4585 48.6653V18.2603C24.4585 14.1432 27.796 10.8057 31.9131 10.8057C36.0301 10.8057 39.3677 14.1433 39.3677 18.2603V48.6653C39.3677 52.7824 36.0301 56.1199 31.9131 56.1199Z" fill="#07689F"/>
<path fill-rule="evenodd" clip-rule="evenodd" d="M7.94043 56.1199C3.82338 56.1199 0.485862 52.7824 0.485862 48.6653V35.6888C0.485862 31.5718 3.82338 28.2343 7.94043 28.2343C12.0575 28.2343 15.395 31.5718 15.395 35.6888V48.6653C15.395 52.7824 12.0575 56.1199 7.94043 56.1199Z" fill="#0988D0"/>
<path fill-rule="evenodd" clip-rule="evenodd" d="M75.1436 56.1199C71.0265 56.1199 67.689 52.7823 67.689 48.6653V11.2889C67.689 7.17185 71.0265 3.83432 75.1436 3.83432C79.2606 3.83432 82.5981 7.17184 82.5981 11.2889V48.6653C82.5981 52.7823 79.2606 56.1199 75.1436 56.1199Z" fill="#07689F"/>
<path fill-rule="evenodd" clip-rule="evenodd" d="M51.1709 56.1199C47.0539 56.1199 43.7163 52.7824 43.7163 48.6653V18.2603C43.7163 14.1433 47.0539 10.8058 51.1709 10.8058C55.2879 10.8058 58.6255 14.1433 58.6255 18.2603V48.6653C58.6255 52.7824 55.2879 56.1199 51.1709 56.1199Z" fill="#0988D0"/>
<path fill-rule="evenodd" clip-rule="evenodd" d="M118.37 56.1199C114.253 56.1199 110.916 52.7823 110.916 48.6653V21.746C110.916 17.6289 114.253 14.2914 118.37 14.2914C122.487 14.2914 125.825 17.6289 125.825 21.746V48.6653C125.825 52.7823 122.487 56.1199 118.37 56.1199Z" fill="#07689F"/>
<path fill-rule="evenodd" clip-rule="evenodd" d="M94.3975 56.1199C90.2804 56.1199 86.9429 52.7824 86.9429 48.6653V32.2031C86.9429 28.0861 90.2804 24.7485 94.3975 24.7485C98.5145 24.7485 101.852 28.0861 101.852 32.2031V48.6653C101.852 52.7824 98.5145 56.1199 94.3975 56.1199Z" fill="#0988D0"/>
<path fill-rule="evenodd" clip-rule="evenodd" d="M161.601 56.1198C157.484 56.1198 154.146 52.7823 154.146 48.6653V14.7746C154.146 10.6575 157.484 7.31999 161.601 7.31999C165.718 7.31999 169.055 10.6575 169.055 14.7746V48.6653C169.055 52.7823 165.718 56.1198 161.601 56.1198Z" fill="#07689F"/>
<path fill-rule="evenodd" clip-rule="evenodd" d="M137.628 56.1199C133.511 56.1199 130.173 52.7824 130.173 48.6653V35.6888C130.173 31.5718 133.511 28.2342 137.628 28.2342C141.745 28.2342 145.083 31.5718 145.083 35.6888V48.6653C145.083 52.7823 141.745 56.1199 137.628 56.1199Z" fill="#0988D0"/>
<path fill-rule="evenodd" clip-rule="evenodd" d="M204.831 56.1198C200.714 56.1198 197.376 52.7823 197.376 48.6653V7.45457C197.376 3.33752 200.714 0 204.831 0C208.948 0 212.286 3.33753 212.286 7.45457V48.6653C212.286 52.7823 208.948 56.1198 204.831 56.1198Z" fill="#07689F"/>
<path fill-rule="evenodd" clip-rule="evenodd" d="M180.858 56.1198C176.741 56.1198 173.404 52.7823 173.404 48.6653V25.2317C173.404 21.1147 176.741 17.7771 180.858 17.7771C184.975 17.7771 188.313 21.1146 188.313 25.2317V48.6653C188.313 52.7823 184.975 56.1198 180.858 56.1198Z" fill="#0988D0"/>
<path fill-rule="evenodd" clip-rule="evenodd" d="M248.062 56.1198C243.849 56.1198 240.434 52.7047 240.434 48.4919L240.434 7.62794C240.434 3.41514 243.849 0 248.062 0C252.274 0 255.689 3.41515 255.689 7.62794V48.4919C255.689 52.7047 252.274 56.1198 248.062 56.1198Z" fill="#07689F"/>
<path fill-rule="evenodd" clip-rule="evenodd" d="M224.089 56.1199C219.876 56.1199 216.461 52.7047 216.461 48.4919L216.461 35.8622C216.461 31.6494 219.876 28.2342 224.089 28.2342C228.302 28.2342 231.717 31.6494 231.717 35.8622V48.4919C231.717 52.7047 228.302 56.1199 224.089 56.1199Z" fill="#0988D0"/>
</svg>
