<svg width="58" height="63" viewBox="0 0 58 63" fill="none"
    xmlns="http://www.w3.org/2000/svg">
    <path d="M27.4992 4C27.2588 7.58624 26.7795 11.1545 26.5791 14.7427C26.1769 21.9457 26.4687 29.1699 26.1315 36.3773C25.7742 44.0152 24.513 51.5 23.4707 59.0564M13.3999 46.747C14.4867 45.6602 15.6628 44.6867 16.8316 43.6883C21.3471 39.8314 25.7085 35.8051 30.1605 31.8763C36.0086 26.7155 41.9919 21.7703 48.3137 17.2046M9.37109 21.9048C13.0827 23.5397 16.4782 26.1279 19.6413 28.619C25.4094 33.1615 30.618 38.4556 35.8424 43.6016C38.9231 46.6361 41.68 49.9614 44.7325 53.0139M4 36.4521C11.4449 33.8245 19.7749 36.1851 27.3505 36.7505C36.3228 37.4201 45.3598 37.5711 54.3564 37.5711" stroke="#FF853A" stroke-width="6.56906" stroke-linecap="round"/>
</svg>
