<svg width="163" height="78" viewBox="0 0 163 78" fill="none"
    xmlns="http://www.w3.org/2000/svg">
    <path d="M4.40406 8.01814C5.65045 6.79182 6.9589 6.12039 8.65831 5.64684C12.8301 4.48435 17.421 4.09002 21.7345 4.15821C36.3592 4.3894 51.4583 10.567 62.9402 19.4746C69.0697 24.2298 73.7586 30.9656 71.7609 38.9807C70.6447 43.4593 66.1348 43.0557 62.3911 42.4987C59.9005 42.128 57.2789 41.6211 55.0029 40.505C53.2147 39.6281 50.4376 38.0045 49.3702 36.2623C48.0091 34.0408 51.013 29.1371 52.3841 27.5685C53.767 25.9864 55.7858 25.3867 57.79 25.0027C62.9905 24.0064 68.6265 24.3417 73.8771 24.7002C79.3675 25.0752 84.8072 26.2056 90.1843 27.3303C96.953 28.746 103.664 30.8169 109.415 34.7798C114.095 38.0054 116.4 41.9549 116.993 47.5675C117.704 54.2957 115.922 59.6013 110.899 64.2014C108.944 65.991 106.025 68.544 103.717 65.6566C101.199 62.5071 99.2982 55.8051 101.231 51.9819C102.125 50.2124 104.535 49.0324 106.315 48.4672C110.881 47.0174 116.241 47.3937 120.959 47.5331C126.832 47.7067 132.721 48.1705 138.518 49.1541C143.619 50.0199 148.6 51.4332 152.788 54.5864C157.306 57.9878 157.686 63.8672 158.755 69.0159C159.141 70.8736 159.117 71.8291 158.443 73.5409" stroke="black" stroke-width="7" stroke-linecap="round"/>
</svg>
