<svg width="82" height="77" viewBox="0 0 82 77" fill="none" xmlns="http://www.w3.org/2000/svg">
<path d="M-76.4954 7.56111C-75.249 6.33479 -73.9405 5.66335 -72.2411 5.18981C-68.0693 4.02732 -63.4784 3.63299 -59.1649 3.70118C-44.5403 3.93237 -29.4411 10.11 -17.9593 19.0175C-11.8297 23.7728 -7.14081 30.5086 -9.13847 38.5237C-10.2547 43.0023 -14.7646 42.5987 -18.5083 42.0416C-20.9989 41.671 -23.6205 41.1641 -25.8966 40.0479C-27.6847 39.1711 -30.4618 37.5475 -31.5292 35.8052C-32.8903 33.5837 -29.8864 28.6801 -28.5153 27.1115C-27.1324 25.5294 -25.1136 24.9297 -23.1094 24.5457C-17.9089 23.5494 -12.2729 23.8846 -7.02232 24.2432C-1.53196 24.6182 3.90777 25.7486 9.2849 26.8732C16.0536 28.289 22.7648 30.3599 28.5154 34.3228C33.196 37.5483 35.501 41.4979 36.0938 47.1104C36.8045 53.8387 35.0223 59.1442 29.9992 63.7444C28.0451 65.534 25.1256 68.087 22.8175 65.1995C20.2998 62.05 18.3988 55.3481 20.3314 51.5249C21.226 49.7553 23.6355 48.5754 25.4156 48.0102C29.9817 46.5604 35.3412 46.9367 40.0598 47.0761C45.9325 47.2496 51.8219 47.7135 57.6183 48.6971C62.7197 49.5628 67.7003 50.9762 71.8887 54.1294C76.4068 57.5308 76.7869 63.4101 77.8559 68.5589C78.2416 70.4166 78.2179 71.3721 77.5436 73.0839" stroke="#5917C1" stroke-width="7" stroke-linecap="round"/>
</svg>
