<svg width="108" height="264" viewBox="0 0 108 264" fill="none"
    xmlns="http://www.w3.org/2000/svg">
    <path fill-rule="evenodd" clip-rule="evenodd" d="M114.064 261.797C108.894 265.677 99.6689 262.112 93.4588 253.836L16.4354 151.187C-1.86236 126.802 -4.3537 97.6905 10.8785 86.2609C26.1109 74.8311 53.3652 85.362 71.6628 109.747L103.709 152.455C109.587 160.288 118.391 163.69 123.284 160.018C128.177 156.347 127.372 146.943 121.494 139.11L70.7074 71.4265C52.4098 47.0414 49.918 17.9298 65.1503 6.50003L67.1004 5.03675C82.3327 -6.39291 109.587 4.13746 127.885 28.5228L145.501 51.9996C151.711 60.2757 152.554 70.1295 147.385 74.0086C142.215 77.8877 132.99 74.3233 126.78 66.0472L109.164 42.5704C103.286 34.7375 94.482 31.3356 89.589 35.0071L87.6389 36.4704C82.7461 40.1418 83.5509 49.5458 89.4285 57.3789L140.215 125.062C158.513 149.447 161.004 178.559 145.772 189.989C130.54 201.418 103.286 190.888 84.9879 166.502L52.9416 123.795C47.064 115.962 38.26 112.56 33.3671 116.231C28.4741 119.903 29.2791 129.307 35.1565 137.14L112.18 239.789C118.39 248.065 119.233 257.918 114.064 261.797Z" fill="#FF853A"/>
</svg>
