<svg width="141" height="105" viewBox="0 0 141 105" fill="none"
    xmlns="http://www.w3.org/2000/svg">
    <path d="M133.389 104.839L88.9257 84.1216C94.6377 71.8629 89.3074 57.231 77.0487 51.519C64.7901 45.8069 50.1749 51.1451 44.4629 63.4037L2.27428e-05 42.6859C4.19042 33.6928 10.0222 25.7703 17.3615 19.1618C24.4264 12.7923 32.557 7.89768 41.5178 4.6333C50.4786 1.36893 59.8523 -0.113183 69.3588 0.219489C79.2213 0.575394 88.7658 2.88252 97.7756 7.08072C106.785 11.2789 114.691 17.1029 121.3 24.4422C127.669 31.5071 132.564 39.6377 135.828 48.5985C139.092 57.5593 140.575 66.933 140.242 76.4395C139.886 86.302 137.579 95.8465 133.389 104.839Z" fill="#08BA63"/>
</svg>
