<svg width="206" height="275" viewBox="0 0 206 275" fill="none"
    xmlns="http://www.w3.org/2000/svg">
    <path d="M-226.343 260.818C-224.591 262.033 -223.272 263.621 -221.617 264.924C-217.571 268.109 -210.701 268.237 -205.852 268.677C-167.596 272.148 -132.684 251.868 -101.751 231.762C-74.2219 213.87 -32.9809 186.551 -34.7647 148.735C-35.6267 130.46 -50.2057 121.817 -66.7162 120.351C-74.3074 119.676 -83.0531 120.705 -89.589 125.002C-97.4458 130.168 -100.065 144.638 -100.131 153.209C-100.23 166.115 -92.3153 175.246 -80.6325 179.932C-71.0489 183.776 -59.4699 183.993 -49.3268 184.933C-36.2851 186.142 -23.0442 186.33 -9.97937 185.277C30.4282 182.019 66.9471 151.975 94.3811 124.609C113.133 105.904 131.515 85.9391 147.639 64.9032C156.354 53.5333 165.536 41.3148 171.063 27.9766C171.382 27.2086 176.603 15.2071 173.62 17.0948C166.49 21.6063 158.983 25.1905 151.471 29.0382C131.533 39.2508 111.876 49.9856 91.7994 59.9344C79.153 66.2013 66.1759 71.8193 53.5962 78.2124C47.738 81.1895 52.57 78.7249 54.708 77.168C69.9691 66.055 87.1914 57.9858 104.05 49.6416C128.068 37.754 152.171 26.0761 176.571 14.9913C177.082 14.7594 192.756 7.66132 194.71 6.8618C197.571 5.69074 201.323 3.55493 200.463 8.01282C197.934 21.1261 194.913 34.0431 192.836 47.2757C188.504 74.8784 187.588 102.06 186.475 129.867" stroke="black" stroke-width="10" stroke-linecap="round"/>
</svg>
