<svg width="49" height="56" viewBox="0 0 49 56" fill="none"
    xmlns="http://www.w3.org/2000/svg">
    <path d="M48.2608 35.87L46.0783 34.7787L32.6667 28.0553L31.1882 27.3161L32.5611 26.3657L44.9519 17.9526L46.9583 16.5797L47.0991 12.1796L42.9806 10.6659L40.9741 12.0388L28.5833 20.4519L27.7385 21.0151V2.56966L24.1832 0L20.6279 2.56966V21.6487L19.1846 20.8391L6.08978 13.5173L3.97771 12.3204L0 14.186L0.528017 18.551L2.64009 19.7478L15.7349 27.0697L17.1781 27.8793L15.7701 28.7593L3.02729 36.6444L0.950414 37.9116L0.633595 42.2766L4.68173 43.9663L6.75861 42.699L19.5014 34.814L20.9095 33.9339L20.9799 35.5884L21.6487 50.5489L21.7543 52.9777L25.4152 55.4066L28.865 52.6961L28.7593 50.2672L28.0905 35.3067L28.0201 33.6523L29.4985 34.3915L42.9102 41.1149L45.0927 42.2062L49 40.1645L48.2608 35.87ZM26.6473 28.9705L27.2105 32.3499L24.3592 30.449L21.6839 32.5963L21.9303 29.1818L18.7622 27.8793L21.8599 26.4361L21.4727 23.0216L24.2536 25.028L26.6121 23.3383L26.5416 26.2249L29.7802 27.3865L26.6473 28.9705Z" fill="#91D3ED"/>
</svg>
